{
.appVersion = "1287";
DisplayStrings = (

glyphs = (
{
glyphname = .notdef;
lastChange = "2020-07-13 12:03:15 +0000";
layers = (
{
layerId = "6CB67BB4-1561-4377-8865-B188364DD954";
paths = (
{
closed = 1;
nodes = (
"20 1 LINE",
"631 1 LINE",
"631 1144 LINE",
"20 1144 LINE"
);
},
{
closed = 1;
nodes = (
"127 105 LINE",
"127 1038 LINE",
"527 1038 LINE",
"527 105 LINE"
);
},
{
closed = 0;
nodes = (
"18170 21 LINE",
"2165 21 LINE"
);
}
);
width = 692;
}
);
note = .notdef;
},
{
glyphname = exclam;
layers = (
{
layerId = "6CB67BB4-1561-4377-8865-B188364DD954";
paths = (
{
closed = 1;
nodes = (
"170 1360 LINE SMOOTH",
"122 1359 OFFCURVE",
"65 1323 OFFCURVE",
"65 1267 CURVE SMOOTH",
"95 416 LINE SMOOTH",
"95 368 OFFCURVE",
"117 323 OFFCURVE",
"171 323 CURVE SMOOTH",
"225 323 OFFCURVE",
"248 368 OFFCURVE",
"248 416 CURVE SMOOTH",
"276 1267 LINE SMOOTH",
"276 1323 OFFCURVE",
"220 1360 OFFCURVE",
"171 1360 CURVE SMOOTH"
);
},
{
closed = 1;
nodes = (
"109 221 OFFCURVE",
"55 167 OFFCURVE",
"55 100 CURVE SMOOTH",
"55 33 OFFCURVE",
"109 -21 OFFCURVE",
"176 -21 CURVE SMOOTH",
"243 -21 OFFCURVE",
"297 33 OFFCURVE",
"297 100 CURVE SMOOTH",
"297 167 OFFCURVE",
"243 221 OFFCURVE",
"176 221 CURVE SMOOTH"
);
}
);
width = 352;
}
);
note = exclam;
unicode = 0021;
},
{
glyphname = quotedbl;
layers = (
{
layerId = "6CB67BB4-1561-4377-8865-B188364DD954";
paths = (
{
closed = 1;
nodes = (
"559 795 OFFCURVE",
"581 840 OFFCURVE",
"585 896 CURVE",
"627 1213 LINE",
"631 1277 OFFCURVE",
"560 1317 OFFCURVE",
"507 1316 CURVE SMOOTH",
"457 1315 OFFCURVE",
"393 1277 OFFCURVE",
"395 1216 CURVE",
"425 896 LINE",
"427 842 OFFCURVE",
"449 795 OFFCURVE",
"505 795 CURVE SMOOTH"
);
},
{
closed = 1;
nodes = (
"239 792 OFFCURVE",
"261 837 OFFCURVE",
"265 893 CURVE",
"307 1210 LINE",
"311 1274 OFFCURVE",
"240 1314 OFFCURVE",
"187 1313 CURVE SMOOTH",
"137 1312 OFFCURVE",
"73 1274 OFFCURVE",
"75 1213 CURVE",
"105 893 LINE",
"107 839 OFFCURVE",
"129 792 OFFCURVE",
"185 792 CURVE SMOOTH"
);
}
);
width = 702;
}
);
leftKerningGroup = quotedbl;
note = quotedbl;
unicode = 0022;
},
{
glyphname = numbersign;
layers = (
{
layerId = "6CB67BB4-1561-4377-8865-B188364DD954";
paths = (
{
closed = 1;
nodes = (
"824 754 LINE",
"1016 754 LINE",
"1016 907 LINE",
"851 907 LINE",
"913 1256 LINE",
"746 1256 LINE",
"684 907 LINE",
"496 907 LINE",
"561 1256 LINE",
"398 1256 LINE",
"332 907 LINE",
"113 907 LINE",
"113 754 LINE",
"304 754 LINE",
"252 475 LINE",
"43 475 LINE",
"43 322 LINE",
"223 322 LINE",
"152 -55 LINE",
"316 -55 LINE",
"386 322 LINE",
"580 322 LINE",
"514 -55 LINE",
"680 -55 LINE",
"747 322 LINE",
"960 322 LINE",
"960 475 LINE",
"774 475 LINE"
);
},
{
closed = 1;
nodes = (
"467 754 LINE",
"657 754 LINE",
"608 475 LINE",
"415 475 LINE"
);
}
);
width = 937;
}
);
note = numbersign;
unicode = 0023;
},
{
glyphname = dollar;
layers = (
{
layerId = "6CB67BB4-1561-4377-8865-B188364DD954";
paths = (
{
closed = 1;
nodes = (
"799 -261 OFFCURVE",
"845 -204 OFFCURVE",
"845 -135 CURVE SMOOTH",
"845 -8 LINE",
"1106 20 OFFCURVE",
"1352 154 OFFCURVE",
"1352 421 CURVE SMOOTH",
"1352 700 OFFCURVE",
"1089 764 OFFCURVE",
"844 790 CURVE",
"844 1238 LINE",
"967 1216 OFFCURVE",
"1061 1154 OFFCURVE",
"1113 1059 CURVE SMOOTH",
"1128 1029 OFFCURVE",
"1168 1005 OFFCURVE",
"1202 1005 CURVE SMOOTH",
"1257 1005 OFFCURVE",
"1302 1050 OFFCURVE",
"1302 1105 CURVE SMOOTH",
"1302 1119 OFFCURVE",
"1297 1142 OFFCURVE",
"1290 1154 CURVE SMOOTH",
"1208 1305 OFFCURVE",
"1040 1412 OFFCURVE",
"844 1440 CURVE",
"844 1446 LINE SMOOTH",
"844 1518 OFFCURVE",
"799 1572 OFFCURVE",
"736 1572 CURVE SMOOTH",
"683 1572 OFFCURVE",
"639 1510 OFFCURVE",
"639 1446 CURVE SMOOTH",
"639 1442 LINE",
"382 1415 OFFCURVE",
"120 1282 OFFCURVE",
"120 1013 CURVE SMOOTH",
"120 746 OFFCURVE",
"386 655 OFFCURVE",
"640 614 CURVE",
"640 191 LINE",
"477 210 OFFCURVE",
"351 281 OFFCURVE",
"289 401 CURVE SMOOTH",
"274 431 OFFCURVE",
"234 456 OFFCURVE",
"200 456 CURVE SMOOTH",
"145 456 OFFCURVE",
"100 411 OFFCURVE",
"100 356 CURVE SMOOTH",
"100 342 OFFCURVE",
"105 321 OFFCURVE",
"112 309 CURVE SMOOTH",
"207 127 OFFCURVE",
"406 17 OFFCURVE",
"640 -8 CURVE",
"640 -135 LINE SMOOTH",
"640 -204 OFFCURVE",
"687 -261 OFFCURVE",
"743 -261 CURVE SMOOTH"
);
},
{
closed = 1;
nodes = (
"639 816 LINE",
"484 844 OFFCURVE",
"323 899 OFFCURVE",
"323 1020 CURVE SMOOTH",
"323 1152 OFFCURVE",
"486 1221 OFFCURVE",
"639 1241 CURVE"
);
},
{
closed = 1;
nodes = (
"845 589 LINE",
"985 575 OFFCURVE",
"1152 559 OFFCURVE",
"1152 420 CURVE SMOOTH",
"1152 281 OFFCURVE",
"997 214 OFFCURVE",
"845 193 CURVE"
);
}
);
width = 1452;
}
);
note = dollar;
unicode = 0024;
},
{
glyphname = percent;
layers = (
{
layerId = "6CB67BB4-1561-4377-8865-B188364DD954";
paths = (
{
closed = 1;
nodes = (
"1263 1454 OFFCURVE",
"1205 1433 OFFCURVE",
"1176 1394 CURVE SMOOTH",
"246 127 LINE SMOOTH",
"210 78 OFFCURVE",
"228 16 OFFCURVE",
"276 -17 CURVE SMOOTH",
"316 -44 OFFCURVE",
"380 -35 OFFCURVE",
"409 13 CURVE",
"1340 1279 LINE SMOOTH",
"1369 1319 OFFCURVE",
"1364 1385 OFFCURVE",
"1310 1422 CURVE SMOOTH"
);
},
{
closed = 1;
nodes = (
"150 1429 OFFCURVE",
"6 1263 OFFCURVE",
"6 1053 CURVE SMOOTH",
"6 861 OFFCURVE",
"173 709 OFFCURVE",
"364 709 CURVE SMOOTH",
"565 709 OFFCURVE",
"722 871 OFFCURVE",
"722 1070 CURVE SMOOTH",
"722 1263 OFFCURVE",
"569 1429 OFFCURVE",
"369 1429 CURVE SMOOTH"
);
},
{
closed = 1;
nodes = (
"533 976 OFFCURVE",
"461 900 OFFCURVE",
"363 900 CURVE SMOOTH",
"273 900 OFFCURVE",
"195 979 OFFCURVE",
"195 1067 CURVE SMOOTH",
"195 1156 OFFCURVE",
"272 1238 OFFCURVE",
"366 1238 CURVE SMOOTH",
"458 1238 OFFCURVE",
"533 1158 OFFCURVE",
"533 1071 CURVE SMOOTH"
);
},
{
closed = 1;
nodes = (
"1014 722 OFFCURVE",
"870 556 OFFCURVE",
"870 346 CURVE SMOOTH",
"870 154 OFFCURVE",
"1037 2 OFFCURVE",
"1228 2 CURVE SMOOTH",
"1429 2 OFFCURVE",
"1586 164 OFFCURVE",
"1586 363 CURVE SMOOTH",
"1586 556 OFFCURVE",
"1433 722 OFFCURVE",
"1233 722 CURVE SMOOTH"
);
},
{
closed = 1;
nodes = (
"1397 269 OFFCURVE",
"1325 193 OFFCURVE",
"1227 193 CURVE SMOOTH",
"1137 193 OFFCURVE",
"1059 272 OFFCURVE",
"1059 360 CURVE SMOOTH",
"1059 449 OFFCURVE",
"1136 531 OFFCURVE",
"1230 531 CURVE SMOOTH",
"1322 531 OFFCURVE",
"1397 451 OFFCURVE",
"1397 364 CURVE SMOOTH"
);
}
);
width = 1584;
}
);
note = percent;
unicode = 0025;
},
{
glyphname = ampersand;
layers = (
{
layerId = "6CB67BB4-1561-4377-8865-B188364DD954";
paths = (
{
closed = 1;
nodes = (
"883 1243 OFFCURVE",
"738 1381 OFFCURVE",
"551 1381 CURVE SMOOTH",
"384 1381 OFFCURVE",
"231 1241 OFFCURVE",
"231 1068 CURVE SMOOTH",
"231 949 OFFCURVE",
"310 853 OFFCURVE",
"369 776 CURVE",
"193 681 OFFCURVE",
"76 580 OFFCURVE",
"76 379 CURVE SMOOTH",
"76 157 OFFCURVE",
"264 -6 OFFCURVE",
"494 -6 CURVE SMOOTH",
"653 -6 OFFCURVE",
"775 70 OFFCURVE",
"863 165 CURVE",
"890 130 OFFCURVE",
"927 83 OFFCURVE",
"968 27 CURVE SMOOTH",
"987 2 OFFCURVE",
"1014 -13 OFFCURVE",
"1043 -13 CURVE SMOOTH",
"1095 -13 OFFCURVE",
"1141 26 OFFCURVE",
"1141 79 CURVE SMOOTH",
"1141 99 OFFCURVE",
"1138 117 OFFCURVE",
"1128 131 CURVE SMOOTH",
"1121 140 OFFCURVE",
"1074 200 OFFCURVE",
"975 325 CURVE",
"1026 429 OFFCURVE",
"1051 540 OFFCURVE",
"1051 657 CURVE SMOOTH",
"1051 703 OFFCURVE",
"995 735 OFFCURVE",
"956 735 CURVE SMOOTH",
"904 735 OFFCURVE",
"862 693 OFFCURVE",
"861 646 CURVE SMOOTH",
"859 593 OFFCURVE",
"851 544 OFFCURVE",
"837 494 CURVE",
"785 558 OFFCURVE",
"724 632 OFFCURVE",
"653 720 CURVE",
"801 812 OFFCURVE",
"883 923 OFFCURVE",
"883 1061 CURVE SMOOTH"
);
},
{
closed = 1;
nodes = (
"456 963 OFFCURVE",
"420 1004 OFFCURVE",
"420 1060 CURVE SMOOTH",
"420 1138 OFFCURVE",
"483 1189 OFFCURVE",
"560 1189 CURVE SMOOTH",
"634 1189 OFFCURVE",
"693 1133 OFFCURVE",
"693 1062 CURVE SMOOTH",
"693 996 OFFCURVE",
"646 931 OFFCURVE",
"536 864 CURVE"
);
},
{
closed = 1;
nodes = (
"575 521 OFFCURVE",
"660 415 OFFCURVE",
"744 311 CURVE",
"691 249 OFFCURVE",
"598 185 OFFCURVE",
"495 185 CURVE SMOOTH",
"362 185 OFFCURVE",
"264 275 OFFCURVE",
"264 393 CURVE SMOOTH",
"264 493 OFFCURVE",
"369 569 OFFCURVE",
"486 630 CURVE"
);
}
);
width = 1216;
}
);
note = ampersand;
unicode = 0026;
},
{
glyphname = quotesingle;
layers = (
{
layerId = "6CB67BB4-1561-4377-8865-B188364DD954";
paths = (
{
closed = 1;
nodes = (
"239 930 OFFCURVE",
"261 975 OFFCURVE",
"265 1031 CURVE",
"307 1348 LINE",
"311 1412 OFFCURVE",
"240 1452 OFFCURVE",
"187 1451 CURVE SMOOTH",
"137 1450 OFFCURVE",
"73 1412 OFFCURVE",
"75 1351 CURVE",
"105 1031 LINE",
"107 977 OFFCURVE",
"129 930 OFFCURVE",
"185 930 CURVE SMOOTH"
);
}
);
width = 382;
}
);
leftKerningGroup = quotedbl;
note = quotesingle;
unicode = 0027;
},
{
glyphname = parenleft;
layers = (
{
layerId = "6CB67BB4-1561-4377-8865-B188364DD954";
paths = (
{
closed = 1;
nodes = (
"631 -245 OFFCURVE",
"617 -219 OFFCURVE",
"590 -200 CURVE SMOOTH",
"424 -72 OFFCURVE",
"275 164 OFFCURVE",
"275 441 CURVE SMOOTH",
"275 717 OFFCURVE",
"420 951 OFFCURVE",
"585 1080 CURVE SMOOTH",
"610 1098 OFFCURVE",
"625 1126 OFFCURVE",
"625 1157 CURVE SMOOTH",
"625 1211 OFFCURVE",
"583 1260 OFFCURVE",
"527 1260 CURVE SMOOTH",
"503 1260 OFFCURVE",
"480 1252 OFFCURVE",
"463 1238 CURVE SMOOTH",
"253 1076 OFFCURVE",
"75 788 OFFCURVE",
"75 440 CURVE SMOOTH",
"75 91 OFFCURVE",
"258 -196 OFFCURVE",
"469 -358 CURVE SMOOTH",
"486 -372 OFFCURVE",
"509 -380 OFFCURVE",
"533 -380 CURVE SMOOTH",
"589 -380 OFFCURVE",
"631 -331 OFFCURVE",
"631 -276 CURVE SMOOTH"
);
}
);
width = 705;
}
);
note = parenleft;
unicode = 0028;
},
{
glyphname = parenright;
layers = (
{
layerId = "6CB67BB4-1561-4377-8865-B188364DD954";
paths = (
{
closed = 1;
nodes = (
"120 1096 OFFCURVE",
"134 1070 OFFCURVE",
"161 1051 CURVE SMOOTH",
"327 923 OFFCURVE",
"476 687 OFFCURVE",
"476 410 CURVE SMOOTH",
"476 134 OFFCURVE",
"331 -100 OFFCURVE",
"166 -229 CURVE SMOOTH",
"141 -247 OFFCURVE",
"126 -275 OFFCURVE",
"126 -306 CURVE SMOOTH",
"126 -360 OFFCURVE",
"168 -409 OFFCURVE",
"224 -409 CURVE SMOOTH",
"248 -409 OFFCURVE",
"271 -401 OFFCURVE",
"288 -387 CURVE SMOOTH",
"498 -225 OFFCURVE",
"676 63 OFFCURVE",
"676 411 CURVE SMOOTH",
"676 760 OFFCURVE",
"493 1047 OFFCURVE",
"282 1209 CURVE SMOOTH",
"265 1223 OFFCURVE",
"242 1231 OFFCURVE",
"218 1231 CURVE SMOOTH",
"162 1231 OFFCURVE",
"120 1182 OFFCURVE",
"120 1127 CURVE SMOOTH"
);
}
);
width = 732;
}
);
note = parenright;
unicode = 0029;
},
{
glyphname = asterisk;
layers = (
{
layerId = "6CB67BB4-1561-4377-8865-B188364DD954";
paths = (
{
closed = 1;
nodes = (
"-24 1203 OFFCURVE",
"-5 1177 OFFCURVE",
"23 1160 CURVE SMOOTH",
"307 987 LINE",
"20 803 LINE SMOOTH",
"-7 786 OFFCURVE",
"-25 761 OFFCURVE",
"-25 728 CURVE SMOOTH",
"-25 678 OFFCURVE",
"11 628 OFFCURVE",
"66 628 CURVE SMOOTH",
"86 628 OFFCURVE",
"105 632 OFFCURVE",
"122 643 CURVE SMOOTH",
"393 817 LINE",
"398 547 LINE SMOOTH",
"398 496 OFFCURVE",
"441 452 OFFCURVE",
"493 452 CURVE SMOOTH",
"533 452 OFFCURVE",
"588 486 OFFCURVE",
"588 533 CURVE SMOOTH",
"588 549 LINE",
"583 818 LINE",
"836 665 LINE SMOOTH",
"851 656 OFFCURVE",
"869 650 OFFCURVE",
"890 650 CURVE SMOOTH",
"945 650 OFFCURVE",
"981 700 OFFCURVE",
"981 750 CURVE SMOOTH",
"981 783 OFFCURVE",
"963 810 OFFCURVE",
"935 827 CURVE SMOOTH",
"666 990 LINE",
"936 1163 LINE SMOOTH",
"966 1182 OFFCURVE",
"981 1215 OFFCURVE",
"981 1253 CURVE SMOOTH",
"981 1299 OFFCURVE",
"933 1339 OFFCURVE",
"890 1339 CURVE SMOOTH",
"868 1339 OFFCURVE",
"850 1333 OFFCURVE",
"834 1323 CURVE SMOOTH",
"580 1160 LINE",
"576 1364 LINE SMOOTH",
"576 1415 OFFCURVE",
"533 1459 OFFCURVE",
"481 1459 CURVE SMOOTH",
"441 1459 OFFCURVE",
"386 1424 OFFCURVE",
"386 1378 CURVE SMOOTH",
"386 1362 LINE",
"390 1159 LINE",
"122 1322 LINE SMOOTH",
"107 1331 OFFCURVE",
"89 1337 OFFCURVE",
"67 1337 CURVE SMOOTH",
"13 1337 OFFCURVE",
"-24 1286 OFFCURVE",
"-24 1236 CURVE SMOOTH"
);
}
);
width = 955;
}
);
note = asterisk;
unicode = 002A;
},
{
glyphname = plus;
layers = (
{
layerId = "6CB67BB4-1561-4377-8865-B188364DD954";
paths = (
{
closed = 1;
nodes = (
"574 969 LINE SMOOTH",
"520 968 OFFCURVE",
"476 923 OFFCURVE",
"476 869 CURVE SMOOTH",
"476 866 LINE",
"480 586 LINE",
"200 586 LINE SMOOTH",
"145 586 OFFCURVE",
"100 541 OFFCURVE",
"100 486 CURVE SMOOTH",
"100 431 OFFCURVE",
"145 386 OFFCURVE",
"200 386 CURVE SMOOTH",
"482 386 LINE",
"485 100 LINE SMOOTH",
"485 45 OFFCURVE",
"530 0 OFFCURVE",
"585 0 CURVE SMOOTH",
"640 0 OFFCURVE",
"685 45 OFFCURVE",
"685 100 CURVE SMOOTH",
"685 103 LINE",
"682 386 LINE",
"963 386 LINE SMOOTH",
"1018 386 OFFCURVE",
"1063 431 OFFCURVE",
"1063 486 CURVE SMOOTH",
"1063 541 OFFCURVE",
"1018 586 OFFCURVE",
"963 586 CURVE SMOOTH",
"680 586 LINE",
"676 868 LINE",
"676 869 LINE SMOOTH",
"676 924 OFFCURVE",
"631 969 OFFCURVE",
"576 969 CURVE SMOOTH"
);
}
);
width = 1162;
}
);
note = plus;
unicode = 002B;
},
{
glyphname = comma;
lastChange = "2020-05-20 22:45:54 +0000";
layers = (
{
background = {
paths = (
{
closed = 1;
nodes = (
"86 60 OFFCURVE",
"151 -5 OFFCURVE",
"230 -5 CURVE SMOOTH",
"232 -5 LINE",
"213 -70 OFFCURVE",
"176 -120 OFFCURVE",
"123 -155 CURVE SMOOTH",
"100 -171 OFFCURVE",
"88 -190 OFFCURVE",
"88 -212 CURVE SMOOTH",
"88 -253 OFFCURVE",
"120 -287 OFFCURVE",
"157 -287 CURVE SMOOTH",
"170 -287 OFFCURVE",
"184 -283 OFFCURVE",
"197 -274 CURVE SMOOTH",
"280 -219 OFFCURVE",
"338 -137 OFFCURVE",
"371 -28 CURVE SMOOTH",
"385 18 OFFCURVE",
"392 60 OFFCURVE",
"392 97 CURVE SMOOTH",
"392 176 OFFCURVE",
"360 232 OFFCURVE",
"295 267 CURVE SMOOTH",
"274 278 OFFCURVE",
"248 283 OFFCURVE",
"217 283 CURVE SMOOTH",
"148 283 OFFCURVE",
"86 211 OFFCURVE",
"86 139 CURVE SMOOTH"
);
}
);
};
layerId = "6CB67BB4-1561-4377-8865-B188364DD954";
paths = (
{
closed = 1;
nodes = (
"249 -54 OFFCURVE",
"195 -116 OFFCURVE",
"100 -195 CURVE",
"254 -195 OFFCURVE",
"379 -92 OFFCURVE",
"379 125 CURVE",
"249 119 LINE"
);
},
{
closed = 1;
nodes = (
"319 -9 OFFCURVE",
"379 44 OFFCURVE",
"379 125 CURVE SMOOTH",
"379 213 OFFCURVE",
"327 274 OFFCURVE",
"238 273 CURVE SMOOTH",
"145 272 OFFCURVE",
"106 208 OFFCURVE",
"106 125 CURVE SMOOTH",
"106 44 OFFCURVE",
"158 -9 OFFCURVE",
"238 -9 CURVE SMOOTH"
);
}
);
width = 479;
}
);
note = comma;
unicode = 002C;
},
{
glyphname = hyphen;
layers = (
{
layerId = "6CB67BB4-1561-4377-8865-B188364DD954";
paths = (
{
closed = 1;
nodes = (
"200 674 LINE SMOOTH",
"145 674 OFFCURVE",
"100 629 OFFCURVE",
"100 574 CURVE SMOOTH",
"100 519 OFFCURVE",
"145 474 OFFCURVE",
"200 474 CURVE SMOOTH",
"963 474 LINE SMOOTH",
"1018 474 OFFCURVE",
"1063 519 OFFCURVE",
"1063 574 CURVE SMOOTH",
"1063 629 OFFCURVE",
"1018 674 OFFCURVE",
"963 674 CURVE SMOOTH"
);
}
);
width = 1162;
}
);
note = hyphen;
unicode = 002D;
},
{
glyphname = period;
lastChange = "2020-05-20 22:46:07 +0000";
layers = (
{
background = {
paths = (
{
closed = 1;
nodes = (
"266 -4 OFFCURVE",
"345 69 OFFCURVE",
"345 161 CURVE SMOOTH",
"345 253 OFFCURVE",
"266 325 OFFCURVE",
"175 325 CURVE SMOOTH",
"84 325 OFFCURVE",
"6 253 OFFCURVE",
"6 161 CURVE SMOOTH",
"6 69 OFFCURVE",
"84 -4 OFFCURVE",
"175 -4 CURVE SMOOTH"
);
}
);
};
layerId = "6CB67BB4-1561-4377-8865-B188364DD954";
paths = (
{
closed = 1;
nodes = (
"288 -10 OFFCURVE",
"348 43 OFFCURVE",
"348 124 CURVE SMOOTH",
"348 212 OFFCURVE",
"296 273 OFFCURVE",
"207 272 CURVE SMOOTH",
"114 271 OFFCURVE",
"75 207 OFFCURVE",
"75 124 CURVE SMOOTH",
"75 43 OFFCURVE",
"127 -10 OFFCURVE",
"207 -10 CURVE SMOOTH"
);
}
);
width = 423;
}
);
note = period;
unicode = 002E;
},
{
color = 6;
glyphname = slash;
lastChange = "2020-07-16 18:06:35 +0000";
layers = (
{
background = {
paths = (
{
closed = 1;
nodes = (
"751 1471 OFFCURVE",
"699 1439 OFFCURVE",
"676 1396 CURVE SMOOTH",
"14 65 LINE SMOOTH",
"-12 10 OFFCURVE",
"16 -47 OFFCURVE",
"69 -71 CURVE SMOOTH",
"113 -91 OFFCURVE",
"174 -71 OFFCURVE",
"195 -19 CURVE",
"857 1312 LINE",
"877 1357 OFFCURVE",
"863 1420 OFFCURVE",
"803 1447 CURVE SMOOTH"
);
}
);
};
layerId = "6CB67BB4-1561-4377-8865-B188364DD954";
paths = (
{
closed = 1;
nodes = (
"674 1390 OFFCURVE",
"657 1332 OFFCURVE",
"630 1273 CURVE SMOOTH",
"125 190 LINE SMOOTH",
"92 120 OFFCURVE",
"69 50 OFFCURVE",
"76 0 CURVE",
"236 0 LINE",
"229 50 OFFCURVE",
"252 120 OFFCURVE",
"285 190 CURVE SMOOTH",
"790 1273 LINE SMOOTH",
"817 1332 OFFCURVE",
"834 1390 OFFCURVE",
"824 1432 CURVE",
"664 1432 LINE"
);
}
);
width = 902;
}
);
note = slash;
unicode = 002F;
},
{
color = 6;
glyphname = zero;
lastChange = "2020-07-16 18:06:02 +0000";
layers = (
{
background = {
paths = (
{
closed = 1;
nodes = (
"995 -25 OFFCURVE",
"1154 321 OFFCURVE",
"1154 688 CURVE SMOOTH",
"1154 1036 OFFCURVE",
"999 1377 OFFCURVE",
"634 1385 CURVE SMOOTH",
"248 1385 OFFCURVE",
"85 1045 OFFCURVE",
"85 680 CURVE SMOOTH",
"85 328 OFFCURVE",
"242 -25 OFFCURVE",
"616 -25 CURVE SMOOTH"
);
},
{
closed = 1;
nodes = (
"383 175 OFFCURVE",
"285 409 OFFCURVE",
"285 682 CURVE SMOOTH",
"285 953 OFFCURVE",
"386 1185 OFFCURVE",
"623 1185 CURVE SMOOTH",
"855 1185 OFFCURVE",
"954 956 OFFCURVE",
"954 696 CURVE SMOOTH",
"954 418 OFFCURVE",
"858 175 OFFCURVE",
"620 175 CURVE SMOOTH"
);
}
);
};
layerId = "6CB67BB4-1561-4377-8865-B188364DD954";
paths = (
{
closed = 1;
nodes = (
"75 248 OFFCURVE",
"291 -23 OFFCURVE",
"618 -23 CURVE SMOOTH",
"961 -23 OFFCURVE",
"1191 248 OFFCURVE",
"1191 654 CURVE SMOOTH",
"1191 1087 OFFCURVE",
"963 1376 OFFCURVE",
"618 1376 CURVE SMOOTH",
"293 1376 OFFCURVE",
"75 1087 OFFCURVE",
"75 654 CURVE SMOOTH"
);
},
{
closed = 1;
nodes = (
"225 991 OFFCURVE",
"383 1216 OFFCURVE",
"618 1216 CURVE SMOOTH",
"855 1216 OFFCURVE",
"1011 991 OFFCURVE",
"1011 654 CURVE SMOOTH",
"1011 332 OFFCURVE",
"853 117 OFFCURVE",
"618 117 CURVE SMOOTH",
"381 117 OFFCURVE",
"225 332 OFFCURVE",
"225 654 CURVE SMOOTH"
);
}
);
width = 1266;
}
);
note = zero;
unicode = 0030;
},
{
color = 6;
glyphname = one;
lastChange = "2020-07-16 18:06:02 +0000";
layers = (
{
background = {
paths = (
{
closed = 1;
nodes = (
"175 983 OFFCURVE",
"211 1003 OFFCURVE",
"248 1025 CURVE",
"248 186 LINE",
"107 186 LINE SMOOTH",
"60 186 OFFCURVE",
"26 131 OFFCURVE",
"26 91 CURVE SMOOTH",
"26 39 OFFCURVE",
"69 -4 OFFCURVE",
"121 -4 CURVE SMOOTH",
"553 -4 LINE SMOOTH",
"605 -4 OFFCURVE",
"648 39 OFFCURVE",
"648 91 CURVE SMOOTH",
"648 131 OFFCURVE",
"614 186 OFFCURVE",
"567 186 CURVE SMOOTH",
"448 186 LINE",
"449 1292 LINE SMOOTH",
"449 1351 OFFCURVE",
"398 1387 OFFCURVE",
"341 1387 CURVE SMOOTH",
"305 1387 OFFCURVE",
"276 1365 OFFCURVE",
"258 1331 CURVE SMOOTH",
"207 1237 OFFCURVE",
"152 1190 OFFCURVE",
"101 1180 CURVE SMOOTH",
"52 1171 OFFCURVE",
"29 1118 OFFCURVE",
"29 1076 CURVE SMOOTH",
"29 1033 OFFCURVE",
"72 983 OFFCURVE",
"117 983 CURVE SMOOTH"
);
}
);
};
layerId = "6CB67BB4-1561-4377-8865-B188364DD954";
paths = (
{
closed = 1;
nodes = (
"262 1335 OFFCURVE",
"272 1277 OFFCURVE",
"272 1218 CURVE SMOOTH",
"272 190 LINE SMOOTH",
"272 120 OFFCURVE",
"282 50 OFFCURVE",
"312 0 CURVE",
"472 0 LINE",
"442 50 OFFCURVE",
"432 120 OFFCURVE",
"432 190 CURVE SMOOTH",
"432 1218 LINE SMOOTH",
"432 1277 OFFCURVE",
"422 1335 OFFCURVE",
"392 1377 CURVE",
"232 1377 LINE"
);
},
{
closed = 1;
nodes = (
"117 1227 OFFCURVE",
"175 1237 OFFCURVE",
"234 1237 CURVE",
"234 1377 LINE",
"175 1377 OFFCURVE",
"117 1367 OFFCURVE",
"75 1337 CURVE",
"75 1197 LINE"
);
},
{
closed = 1;
nodes = (
"234 1237 LINE",
"399 1237 LINE",
"365 1377 LINE",
"234 1377 LINE"
);
}
);
width = 547;
}
);
note = one;
unicode = 0031;
},
{
color = 6;
glyphname = two;
lastChange = "2020-07-16 18:06:02 +0000";
layers = (
{
background = {
paths = (
{
closed = 1;
nodes = (
"950 -3 LINE SMOOTH",
"1005 -3 OFFCURVE",
"1050 42 OFFCURVE",
"1050 97 CURVE SMOOTH",
"1050 152 OFFCURVE",
"1005 197 OFFCURVE",
"950 197 CURVE SMOOTH",
"365 197 LINE",
"402 242 OFFCURVE",
"447 288 OFFCURVE",
"492 328 CURVE SMOOTH",
"664 477 OFFCURVE",
"981 610 OFFCURVE",
"981 961 CURVE SMOOTH",
"981 1215 OFFCURVE",
"794 1415 OFFCURVE",
"535 1415 CURVE SMOOTH",
"325 1415 OFFCURVE",
"107 1250 OFFCURVE",
"107 1053 CURVE SMOOTH",
"107 1000 OFFCURVE",
"152 955 OFFCURVE",
"207 955 CURVE SMOOTH",
"254 955 OFFCURVE",
"296 992 OFFCURVE",
"306 1035 CURVE SMOOTH",
"326 1128 OFFCURVE",
"417 1215 OFFCURVE",
"533 1215 CURVE SMOOTH",
"673 1215 OFFCURVE",
"781 1102 OFFCURVE",
"781 957 CURVE SMOOTH",
"781 708 OFFCURVE",
"525 620 OFFCURVE",
"358 474 CURVE SMOOTH",
"272 399 OFFCURVE",
"78 234 OFFCURVE",
"78 97 CURVE SMOOTH",
"78 42 OFFCURVE",
"123 -3 OFFCURVE",
"178 -3 CURVE SMOOTH"
);
}
);
};
layerId = "6CB67BB4-1561-4377-8865-B188364DD954";
paths = (
{
closed = 1;
nodes = (
"263 -23 OFFCURVE",
"267 128 CURVE",
"272 286 OFFCURVE",
"899 488 OFFCURVE",
"899 1004 CURVE SMOOTH",
"899 1241 OFFCURVE",
"719 1392 OFFCURVE",
"479 1392 CURVE SMOOTH",
"271 1392 OFFCURVE",
"120 1279 OFFCURVE",
"75 1114 CURVE",
"200 997 LINE",
"200 999 OFFCURVE",
"200 1002 OFFCURVE",
"200 1004 CURVE SMOOTH",
"200 1141 OFFCURVE",
"312 1242 OFFCURVE",
"479 1242 CURVE SMOOTH",
"635 1242 OFFCURVE",
"739 1150 OFFCURVE",
"739 1004 CURVE SMOOTH",
"739 528 OFFCURVE",
"107 454 OFFCURVE",
"107 100 CURVE SMOOTH",
"107 -66 OFFCURVE"
);
},
{
closed = 1;
nodes = (
"149 -10 OFFCURVE",
"207 0 OFFCURVE",
"266 0 CURVE",
"266 140 LINE",
"207 140 OFFCURVE",
"149 130 OFFCURVE",
"107 100 CURVE",
"107 -40 LINE"
);
},
{
closed = 1;
nodes = (
"913 150 OFFCURVE",
"855 140 OFFCURVE",
"796 140 CURVE SMOOTH",
"796 0 LINE SMOOTH",
"855 0 OFFCURVE",
"913 10 OFFCURVE",
"955 40 CURVE SMOOTH",
"955 180 LINE SMOOTH"
);
},
{
closed = 1;
nodes = (
"251 0 LINE",
"799 0 LINE",
"799 140 LINE",
"251 140 LINE"
);
}
);
width = 1030;
}
);
note = two;
unicode = 0032;
},
{
color = 6;
glyphname = three;
lastChange = "2020-07-16 18:06:02 +0000";
layers = (
{
background = {
paths = (
{
closed = 1;
nodes = (
"715 856 OFFCURVE",
"625 797 OFFCURVE",
"503 797 CURVE SMOOTH",
"451 797 OFFCURVE",
"390 764 OFFCURVE",
"390 691 CURVE SMOOTH",
"390 633 OFFCURVE",
"434 592 OFFCURVE",
"486 592 CURVE SMOOTH",
"653 591 OFFCURVE",
"747 550 OFFCURVE",
"747 415 CURVE SMOOTH",
"747 286 OFFCURVE",
"622 184 OFFCURVE",
"475 184 CURVE SMOOTH",
"375 184 OFFCURVE",
"285 245 OFFCURVE",
"239 305 CURVE SMOOTH",
"221 329 OFFCURVE",
"195 345 OFFCURVE",
"162 345 CURVE SMOOTH",
"109 345 OFFCURVE",
"57 308 OFFCURVE",
"57 254 CURVE SMOOTH",
"57 233 OFFCURVE",
"64 212 OFFCURVE",
"76 195 CURVE SMOOTH",
"157 83 OFFCURVE",
"302 -17 OFFCURVE",
"481 -17 CURVE SMOOTH",
"728 -17 OFFCURVE",
"947 164 OFFCURVE",
"947 419 CURVE SMOOTH",
"947 548 OFFCURVE",
"888 648 OFFCURVE",
"795 712 CURVE",
"859 774 OFFCURVE",
"916 866 OFFCURVE",
"916 982 CURVE SMOOTH",
"916 1209 OFFCURVE",
"727 1376 OFFCURVE",
"505 1376 CURVE SMOOTH",
"311 1376 OFFCURVE",
"170 1255 OFFCURVE",
"116 1111 CURVE SMOOTH",
"113 1101 OFFCURVE",
"109 1087 OFFCURVE",
"109 1069 CURVE SMOOTH",
"109 1026 OFFCURVE",
"156 980 OFFCURVE",
"200 980 CURVE SMOOTH",
"261 980 OFFCURVE",
"291 1011 OFFCURVE",
"310 1061 CURVE SMOOTH",
"331 1117 OFFCURVE",
"416 1177 OFFCURVE",
"505 1177 CURVE SMOOTH",
"618 1177 OFFCURVE",
"715 1090 OFFCURVE",
"715 990 CURVE SMOOTH"
);
},
{
closed = 1;
nodes = (
"-52 1265 LINE",
"-52 191 LINE",
"502 722 LINE"
);
}
);
};
layerId = "6CB67BB4-1561-4377-8865-B188364DD954";
paths = (
{
closed = 1;
nodes = (
"491 644 LINE",
"495 644 OFFCURVE",
"498 644 OFFCURVE",
"501 644 CURVE SMOOTH",
"752 643 OFFCURVE",
"901 777 OFFCURVE",
"901 1004 CURVE SMOOTH",
"901 1231 OFFCURVE",
"741 1392 OFFCURVE",
"501 1392 CURVE SMOOTH",
"293 1392 OFFCURVE",
"142 1279 OFFCURVE",
"97 1114 CURVE",
"222 997 LINE",
"222 999 OFFCURVE",
"222 1002 OFFCURVE",
"222 1004 CURVE SMOOTH",
"222 1141 OFFCURVE",
"334 1242 OFFCURVE",
"501 1242 CURVE SMOOTH",
"657 1242 OFFCURVE",
"761 1140 OFFCURVE",
"761 1004 CURVE SMOOTH",
"761 878 OFFCURVE",
"664 804 OFFCURVE",
"501 804 CURVE SMOOTH",
"498 804 OFFCURVE",
"495 804 OFFCURVE",
"491 804 CURVE"
);
},
{
closed = 1;
nodes = (
"75 199 LINE",
"144 61 OFFCURVE",
"295 -23 OFFCURVE",
"494 -24 CURVE SMOOTH",
"768 -25 OFFCURVE",
"951 139 OFFCURVE",
"951 386 CURVE SMOOTH",
"951 637 OFFCURVE",
"768 804 OFFCURVE",
"494 804 CURVE SMOOTH",
"489 804 OFFCURVE",
"484 804 OFFCURVE",
"480 804 CURVE",
"480 643 LINE",
"488 644 OFFCURVE",
"496 644 OFFCURVE",
"504 644 CURVE SMOOTH",
"694 644 OFFCURVE",
"801 541 OFFCURVE",
"801 386 CURVE SMOOTH",
"801 236 OFFCURVE",
"694 136 OFFCURVE",
"504 136 CURVE SMOOTH",
"354 136 OFFCURVE",
"239 204 OFFCURVE",
"203 313 CURVE"
);
},
{
closed = 1;
nodes = (
"384 634 OFFCURVE",
"442 644 OFFCURVE",
"501 644 CURVE",
"501 804 LINE",
"442 804 OFFCURVE",
"384 794 OFFCURVE",
"342 764 CURVE",
"342 604 LINE"
);
}
);
width = 1026;
}
);
note = three;
unicode = 0033;
},
{
color = 6;
glyphname = four;
lastChange = "2020-07-16 18:06:02 +0000";
layers = (
{
background = {
paths = (
{
closed = 1;
nodes = (
"883 -21 OFFCURVE",
"927 21 OFFCURVE",
"927 75 CURVE SMOOTH",
"926 371 LINE",
"1124 370 LINE SMOOTH",
"1181 370 OFFCURVE",
"1226 416 OFFCURVE",
"1226 472 CURVE SMOOTH",
"1226 528 OFFCURVE",
"1181 572 OFFCURVE",
"1126 572 CURVE SMOOTH",
"1059 572 OFFCURVE",
"993 573 OFFCURVE",
"926 573 CURVE",
"923 1262 LINE SMOOTH",
"923 1317 OFFCURVE",
"877 1359 OFFCURVE",
"821 1359 CURVE SMOOTH",
"791 1359 OFFCURVE",
"764 1346 OFFCURVE",
"745 1322 CURVE SMOOTH",
"94 534 LINE SMOOTH",
"79 515 OFFCURVE",
"73 493 OFFCURVE",
"73 470 CURVE SMOOTH",
"73 417 OFFCURVE",
"120 373 OFFCURVE",
"173 373 CURVE SMOOTH",
"726 371 LINE",
"727 75 LINE SMOOTH",
"727 21 OFFCURVE",
"771 -21 OFFCURVE",
"827 -21 CURVE SMOOTH"
);
},
{
closed = 1;
nodes = (
"726 573 LINE",
"380 575 LINE",
"724 989 LINE"
);
}
);
};
layerId = "6CB67BB4-1561-4377-8865-B188364DD954";
paths = (
{
closed = 1;
nodes = (
"737 1390 OFFCURVE",
"747 1332 OFFCURVE",
"747 1273 CURVE SMOOTH",
"747 190 LINE SMOOTH",
"747 120 OFFCURVE",
"757 50 OFFCURVE",
"787 0 CURVE",
"947 0 LINE",
"917 50 OFFCURVE",
"907 120 OFFCURVE",
"907 190 CURVE SMOOTH",
"907 1273 LINE SMOOTH",
"907 1332 OFFCURVE",
"897 1390 OFFCURVE",
"867 1432 CURVE",
"707 1432 LINE"
);
},
{
closed = 1;
nodes = (
"117 382 OFFCURVE",
"175 392 OFFCURVE",
"234 392 CURVE SMOOTH",
"957 392 LINE",
"1027 392 OFFCURVE",
"1097 402 OFFCURVE",
"1147 432 CURVE SMOOTH",
"1147 592 LINE SMOOTH",
"1097 562 OFFCURVE",
"1027 552 OFFCURVE",
"957 552 CURVE",
"234 552 LINE SMOOTH",
"175 552 OFFCURVE",
"151 542 OFFCURVE",
"109 512 CURVE",
"75 352 LINE"
);
},
{
closed = 1;
nodes = (
"229 435 OFFCURVE",
"260 493 OFFCURVE",
"301 552 CURVE SMOOTH",
"773 1242 LINE SMOOTH",
"821 1312 OFFCURVE",
"861 1382 OFFCURVE",
"866 1432 CURVE",
"706 1432 LINE",
"701 1382 OFFCURVE",
"662 1312 OFFCURVE",
"613 1242 CURVE SMOOTH",
"131 552 LINE SMOOTH",
"121 537 OFFCURVE",
"113 527 OFFCURVE",
"109 512 CURVE SMOOTH",
"90 444 OFFCURVE",
"131 383 OFFCURVE",
"127 405 CURVE",
"230 393 LINE"
);
}
);
width = 1222;
}
);
note = four;
unicode = 0034;
},
{
color = 6;
glyphname = five;
lastChange = "2020-07-16 18:06:02 +0000";
layers = (
{
background = {
paths = (
{
closed = 1;
nodes = (
"234 590 OFFCURVE",
"262 605 OFFCURVE",
"280 631 CURVE SMOOTH",
"322 689 OFFCURVE",
"423 755 OFFCURVE",
"517 755 CURVE SMOOTH",
"703 755 OFFCURVE",
"832 632 OFFCURVE",
"832 467 CURVE SMOOTH",
"832 301 OFFCURVE",
"697 175 OFFCURVE",
"522 175 CURVE SMOOTH",
"384 175 OFFCURVE",
"285 250 OFFCURVE",
"237 341 CURVE SMOOTH",
"218 377 OFFCURVE",
"183 395 OFFCURVE",
"141 395 CURVE SMOOTH",
"94 395 OFFCURVE",
"47 352 OFFCURVE",
"47 307 CURVE SMOOTH",
"47 289 OFFCURVE",
"50 273 OFFCURVE",
"57 258 CURVE SMOOTH",
"133 105 OFFCURVE",
"303 -25 OFFCURVE",
"521 -25 CURVE SMOOTH",
"806 -25 OFFCURVE",
"1032 188 OFFCURVE",
"1032 469 CURVE SMOOTH",
"1032 747 OFFCURVE",
"811 957 OFFCURVE",
"530 957 CURVE SMOOTH",
"464 957 OFFCURVE",
"403 945 OFFCURVE",
"340 918 CURVE",
"386 1177 LINE",
"914 1177 LINE SMOOTH",
"974 1177 OFFCURVE",
"1014 1226 OFFCURVE",
"1014 1285 CURVE SMOOTH",
"1014 1336 OFFCURVE",
"963 1377 OFFCURVE",
"914 1377 CURVE SMOOTH",
"302 1377 LINE SMOOTH",
"254 1377 OFFCURVE",
"212 1342 OFFCURVE",
"204 1293 CURVE SMOOTH",
"98 680 LINE",
"98 624 OFFCURVE",
"147 590 OFFCURVE",
"201 590 CURVE SMOOTH"
);
}
);
};
layerId = "6CB67BB4-1561-4377-8865-B188364DD954";
paths = (
{
closed = 1;
nodes = (
"978 1387 OFFCURVE",
"920 1377 OFFCURVE",
"861 1377 CURVE",
"861 1237 LINE",
"920 1237 OFFCURVE",
"978 1247 OFFCURVE",
"1020 1277 CURVE",
"1020 1417 LINE"
);
},
{
closed = 1;
nodes = (
"296 1237 LINE",
"861 1237 LINE",
"861 1377 LINE",
"296 1377 LINE"
);
},
{
closed = 1;
nodes = (
"75 312 LINE",
"131 113 OFFCURVE",
"310 -23 OFFCURVE",
"539 -24 CURVE SMOOTH",
"813 -25 OFFCURVE",
"1016 175 OFFCURVE",
"1016 446 CURVE SMOOTH",
"1016 733 OFFCURVE",
"835 924 OFFCURVE",
"579 924 CURVE SMOOTH",
"343 924 OFFCURVE",
"289 832 OFFCURVE",
"202 732 CURVE",
"215 719 OFFCURVE",
"225 699 OFFCURVE",
"272 688 CURVE",
"280 698 OFFCURVE",
"325 679 OFFCURVE",
"333 673 CURVE",
"392 730 OFFCURVE",
"453 764 OFFCURVE",
"589 764 CURVE SMOOTH",
"749 764 OFFCURVE",
"866 637 OFFCURVE",
"866 446 CURVE SMOOTH",
"866 272 OFFCURVE",
"727 136 OFFCURVE",
"549 136 CURVE SMOOTH",
"377 136 OFFCURVE",
"265 248 OFFCURVE",
"220 396 CURVE"
);
},
{
closed = 1;
nodes = (
"302 1335 OFFCURVE",
"296 1277 OFFCURVE",
"280 1218 CURVE SMOOTH",
"184 863 LINE SMOOTH",
"165 793 OFFCURVE",
"157 723 OFFCURVE",
"173 673 CURVE",
"333 673 LINE",
"317 723 OFFCURVE",
"325 793 OFFCURVE",
"344 863 CURVE SMOOTH",
"440 1218 LINE SMOOTH",
"456 1277 OFFCURVE",
"462 1335 OFFCURVE",
"443 1377 CURVE",
"283 1377 LINE"
);
}
);
width = 1091;
}
);
note = five;
unicode = 0035;
},
{
color = 6;
glyphname = six;
lastChange = "2020-07-16 18:06:02 +0000";
layers = (
{
background = {
paths = (
{
closed = 1;
nodes = (
"948 -18 OFFCURVE",
"1147 201 OFFCURVE",
"1147 450 CURVE SMOOTH",
"1147 728 OFFCURVE",
"931 937 OFFCURVE",
"647 937 CURVE SMOOTH",
"512 937 OFFCURVE",
"385 868 OFFCURVE",
"304 783 CURVE",
"325 1015 OFFCURVE",
"441 1212 OFFCURVE",
"669 1212 CURVE SMOOTH",
"778 1212 OFFCURVE",
"863 1151 OFFCURVE",
"906 1080 CURVE SMOOTH",
"926 1048 OFFCURVE",
"961 1031 OFFCURVE",
"1003 1031 CURVE SMOOTH",
"1051 1031 OFFCURVE",
"1094 1080 OFFCURVE",
"1094 1124 CURVE SMOOTH",
"1094 1144 OFFCURVE",
"1090 1164 OFFCURVE",
"1080 1179 CURVE SMOOTH",
"1005 1305 OFFCURVE",
"860 1411 OFFCURVE",
"669 1411 CURVE SMOOTH",
"294 1411 OFFCURVE",
"100 1067 OFFCURVE",
"100 713 CURVE SMOOTH",
"100 353 OFFCURVE",
"282 -18 OFFCURVE",
"665 -18 CURVE SMOOTH"
);
},
{
closed = 1;
nodes = (
"518 181 OFFCURVE",
"372 305 OFFCURVE",
"372 457 CURVE SMOOTH",
"372 608 OFFCURVE",
"500 739 OFFCURVE",
"659 739 CURVE SMOOTH",
"816 739 OFFCURVE",
"947 609 OFFCURVE",
"947 460 CURVE SMOOTH",
"947 300 OFFCURVE",
"833 181 OFFCURVE",
"669 181 CURVE SMOOTH"
);
}
);
};
layerId = "6CB67BB4-1561-4377-8865-B188364DD954";
paths = (
{
closed = 1;
nodes = (
"992 1224 LINE",
"896 1321 OFFCURVE",
"768 1386 OFFCURVE",
"618 1386 CURVE SMOOTH",
"293 1386 OFFCURVE",
"75 1087 OFFCURVE",
"75 654 CURVE SMOOTH",
"75 248 OFFCURVE",
"254 -33 OFFCURVE",
"584 -33 CURVE SMOOTH",
"858 -33 OFFCURVE",
"1044 142 OFFCURVE",
"1046 417 CURVE SMOOTH",
"1047 698 OFFCURVE",
"869 865 OFFCURVE",
"584 865 CURVE SMOOTH",
"373 865 OFFCURVE",
"226 714 OFFCURVE",
"137 580 CURVE",
"180 414 LINE",
"276 565 OFFCURVE",
"392 716 OFFCURVE",
"584 716 CURVE",
"762 716 OFFCURVE",
"877 596 OFFCURVE",
"876 417 CURVE SMOOTH",
"874 226 OFFCURVE",
"749 107 OFFCURVE",
"584 107 CURVE SMOOTH",
"344 107 OFFCURVE",
"225 332 OFFCURVE",
"225 654 CURVE SMOOTH",
"225 991 OFFCURVE",
"383 1226 OFFCURVE",
"618 1226 CURVE SMOOTH",
"712 1226 OFFCURVE",
"799 1186 OFFCURVE",
"868 1127 CURVE"
);
}
);
width = 1121;
}
);
note = six;
unicode = 0036;
},
{
color = 6;
glyphname = seven;
lastChange = "2020-07-16 18:06:02 +0000";
layers = (
{
background = {
paths = (
{
closed = 1;
nodes = (
"215 1380 LINE SMOOTH",
"160 1380 OFFCURVE",
"115 1335 OFFCURVE",
"115 1280 CURVE SMOOTH",
"115 1225 OFFCURVE",
"160 1180 OFFCURVE",
"215 1180 CURVE SMOOTH",
"878 1180 LINE",
"704 832 OFFCURVE",
"556 472 OFFCURVE",
"432 102 CURVE",
"427 91 OFFCURVE",
"426 76 OFFCURVE",
"426 62 CURVE SMOOTH",
"426 18 OFFCURVE",
"474 -25 OFFCURVE",
"518 -25 CURVE SMOOTH",
"568 -25 OFFCURVE",
"607 -2 OFFCURVE",
"621 44 CURVE SMOOTH",
"758 454 OFFCURVE",
"926 853 OFFCURVE",
"1127 1239 CURVE SMOOTH",
"1134 1253 OFFCURVE",
"1138 1268 OFFCURVE",
"1138 1284 CURVE SMOOTH",
"1138 1341 OFFCURVE",
"1089 1380 OFFCURVE",
"1038 1380 CURVE SMOOTH"
);
}
);
};
layerId = "6CB67BB4-1561-4377-8865-B188364DD954";
paths = (
{
closed = 1;
nodes = (
"752 1335 OFFCURVE",
"741 1277 OFFCURVE",
"720 1218 CURVE",
"346 190 LINE SMOOTH",
"320 120 OFFCURVE",
"305 50 OFFCURVE",
"317 0 CURVE",
"477 0 LINE",
"465 50 OFFCURVE",
"480 120 OFFCURVE",
"506 190 CURVE SMOOTH",
"880 1218 LINE SMOOTH",
"901 1277 OFFCURVE",
"912 1335 OFFCURVE",
"898 1377 CURVE",
"738 1377 LINE"
);
},
{
closed = 1;
nodes = (
"117 1207 OFFCURVE",
"175 1217 OFFCURVE",
"234 1217 CURVE SMOOTH",
"747 1217 LINE SMOOTH",
"801 1217 OFFCURVE",
"751 1353 OFFCURVE",
"751 1377 CURVE",
"234 1377 LINE SMOOTH",
"175 1377 OFFCURVE",
"117 1367 OFFCURVE",
"75 1337 CURVE",
"75 1177 LINE"
);
}
);
width = 979;
}
);
note = seven;
unicode = 0037;
},
{
color = 6;
glyphname = eight;
lastChange = "2020-07-16 18:06:02 +0000";
layers = (
{
background = {
paths = (
{
closed = 1;
nodes = (
"952 1212 OFFCURVE",
"758 1380 OFFCURVE",
"534 1380 CURVE SMOOTH",
"318 1380 OFFCURVE",
"121 1214 OFFCURVE",
"121 999 CURVE SMOOTH",
"121 873 OFFCURVE",
"176 774 OFFCURVE",
"257 708 CURVE",
"159 643 OFFCURVE",
"76 533 OFFCURVE",
"76 384 CURVE SMOOTH",
"76 138 OFFCURVE",
"298 -19 OFFCURVE",
"536 -19 CURVE SMOOTH",
"772 -19 OFFCURVE",
"997 140 OFFCURVE",
"997 382 CURVE SMOOTH",
"997 528 OFFCURVE",
"914 640 OFFCURVE",
"814 707 CURVE",
"905 779 OFFCURVE",
"952 871 OFFCURVE",
"952 984 CURVE SMOOTH"
);
},
{
closed = 1;
nodes = (
"320 1101 OFFCURVE",
"421 1181 OFFCURVE",
"540 1181 CURVE SMOOTH",
"646 1181 OFFCURVE",
"752 1097 OFFCURVE",
"752 995 CURVE SMOOTH",
"752 881 OFFCURVE",
"652 807 OFFCURVE",
"537 807 CURVE SMOOTH",
"420 807 OFFCURVE",
"320 891 OFFCURVE",
"320 996 CURVE SMOOTH"
);
},
{
closed = 1;
nodes = (
"795 267 OFFCURVE",
"675 181 OFFCURVE",
"536 181 CURVE SMOOTH",
"397 181 OFFCURVE",
"276 267 OFFCURVE",
"276 386 CURVE SMOOTH",
"276 509 OFFCURVE",
"399 590 OFFCURVE",
"534 590 CURVE SMOOTH",
"671 590 OFFCURVE",
"795 502 OFFCURVE",
"795 386 CURVE SMOOTH"
);
}
);
};
layerId = "6CB67BB4-1561-4377-8865-B188364DD954";
paths = (
{
closed = 1;
nodes = (
"811 -25 OFFCURVE",
"994 139 OFFCURVE",
"994 386 CURVE SMOOTH",
"994 638 OFFCURVE",
"811 804 OFFCURVE",
"537 804 CURVE SMOOTH",
"260 804 OFFCURVE",
"75 637 OFFCURVE",
"75 386 CURVE SMOOTH",
"75 141 OFFCURVE",
"260 -23 OFFCURVE",
"537 -24 CURVE SMOOTH"
);
},
{
closed = 1;
nodes = (
"366 136 OFFCURVE",
"235 236 OFFCURVE",
"235 386 CURVE SMOOTH",
"235 541 OFFCURVE",
"366 644 OFFCURVE",
"547 644 CURVE SMOOTH",
"737 644 OFFCURVE",
"844 540 OFFCURVE",
"844 386 CURVE SMOOTH",
"844 236 OFFCURVE",
"737 136 OFFCURVE",
"547 136 CURVE SMOOTH"
);
},
{
closed = 1;
nodes = (
"795 643 OFFCURVE",
"944 777 OFFCURVE",
"944 1004 CURVE SMOOTH",
"944 1231 OFFCURVE",
"784 1392 OFFCURVE",
"544 1392 CURVE SMOOTH",
"293 1392 OFFCURVE",
"125 1231 OFFCURVE",
"125 1004 CURVE SMOOTH",
"125 779 OFFCURVE",
"281 645 OFFCURVE",
"544 644 CURVE SMOOTH"
);
},
{
closed = 1;
nodes = (
"369 804 OFFCURVE",
"265 878 OFFCURVE",
"265 1004 CURVE SMOOTH",
"265 1141 OFFCURVE",
"377 1242 OFFCURVE",
"544 1242 CURVE SMOOTH",
"700 1242 OFFCURVE",
"804 1141 OFFCURVE",
"804 1004 CURVE SMOOTH",
"804 878 OFFCURVE",
"707 804 OFFCURVE",
"544 804 CURVE SMOOTH"
);
}
);
width = 1069;
}
);
note = eight;
unicode = 0038;
},
{
color = 6;
glyphname = nine;
lastChange = "2020-07-16 18:06:02 +0000";
layers = (
{
background = {
paths = (
{
closed = 1;
nodes = (
"100 629 OFFCURVE",
"323 430 OFFCURVE",
"593 430 CURVE SMOOTH",
"755 430 OFFCURVE",
"882 507 OFFCURVE",
"965 608 CURVE",
"960 372 OFFCURVE",
"853 154 OFFCURVE",
"609 154 CURVE SMOOTH",
"509 154 OFFCURVE",
"429 207 OFFCURVE",
"384 270 CURVE SMOOTH",
"364 298 OFFCURVE",
"332 313 OFFCURVE",
"294 313 CURVE SMOOTH",
"240 313 OFFCURVE",
"200 266 OFFCURVE",
"200 219 CURVE SMOOTH",
"200 196 OFFCURVE",
"206 175 OFFCURVE",
"218 160 CURVE",
"296 46 OFFCURVE",
"435 -45 OFFCURVE",
"609 -45 CURVE SMOOTH",
"987 -45 OFFCURVE",
"1166 291 OFFCURVE",
"1166 626 CURVE SMOOTH",
"1166 1009 OFFCURVE",
"961 1383 OFFCURVE",
"589 1383 CURVE SMOOTH",
"294 1383 OFFCURVE",
"100 1160 OFFCURVE",
"100 915 CURVE SMOOTH"
);
},
{
closed = 1;
nodes = (
"726 1185 OFFCURVE",
"876 1069 OFFCURVE",
"876 910 CURVE SMOOTH",
"876 764 OFFCURVE",
"754 626 OFFCURVE",
"590 626 CURVE SMOOTH",
"436 626 OFFCURVE",
"300 750 OFFCURVE",
"300 907 CURVE SMOOTH",
"300 1059 OFFCURVE",
"409 1185 OFFCURVE",
"578 1185 CURVE SMOOTH"
);
}
);
};
components = (
{
name = six;
transform = "{-1, 0, 0, -1, 1161, 1353}";
}
);
layerId = "6CB67BB4-1561-4377-8865-B188364DD954";
width = 1136;
}
);
note = nine;
unicode = 0039;
},
{
glyphname = colon;
layers = (
{
layerId = "6CB67BB4-1561-4377-8865-B188364DD954";
paths = (
{
closed = 1;
nodes = (
"320 686 OFFCURVE",
"399 759 OFFCURVE",
"399 851 CURVE SMOOTH",
"399 943 OFFCURVE",
"320 1015 OFFCURVE",
"229 1015 CURVE SMOOTH",
"138 1015 OFFCURVE",
"60 943 OFFCURVE",
"60 851 CURVE SMOOTH",
"60 759 OFFCURVE",
"138 686 OFFCURVE",
"229 686 CURVE SMOOTH"
);
},
{
closed = 1;
nodes = (
"322 172 OFFCURVE",
"401 245 OFFCURVE",
"401 337 CURVE SMOOTH",
"401 429 OFFCURVE",
"322 501 OFFCURVE",
"231 501 CURVE SMOOTH",
"140 501 OFFCURVE",
"62 429 OFFCURVE",
"62 337 CURVE SMOOTH",
"62 245 OFFCURVE",
"140 172 OFFCURVE",
"231 172 CURVE SMOOTH"
);
}
);
width = 461;
}
);
note = colon;
unicode = 003A;
},
{
glyphname = semicolon;
layers = (
{
layerId = "6CB67BB4-1561-4377-8865-B188364DD954";
paths = (
{
closed = 1;
nodes = (
"330 574 OFFCURVE",
"409 646 OFFCURVE",
"409 738 CURVE SMOOTH",
"409 830 OFFCURVE",
"330 905 OFFCURVE",
"239 905 CURVE SMOOTH",
"148 905 OFFCURVE",
"70 830 OFFCURVE",
"70 738 CURVE SMOOTH",
"70 646 OFFCURVE",
"148 574 OFFCURVE",
"239 574 CURVE SMOOTH"
);
},
{
closed = 1;
nodes = (
"130 306 OFFCURVE",
"60 221 OFFCURVE",
"60 137 CURVE SMOOTH",
"60 55 OFFCURVE",
"117 -13 OFFCURVE",
"196 -29 CURVE",
"177 -73 OFFCURVE",
"148 -110 OFFCURVE",
"108 -137 CURVE SMOOTH",
"80 -156 OFFCURVE",
"62 -182 OFFCURVE",
"62 -214 CURVE SMOOTH",
"62 -267 OFFCURVE",
"103 -314 OFFCURVE",
"156 -314 CURVE SMOOTH",
"174 -314 OFFCURVE",
"193 -308 OFFCURVE",
"210 -297 CURVE SMOOTH",
"298 -239 OFFCURVE",
"359 -150 OFFCURVE",
"394 -37 CURVE SMOOTH",
"409 11 OFFCURVE",
"416 55 OFFCURVE",
"416 95 CURVE SMOOTH",
"416 205 OFFCURVE",
"347 306 OFFCURVE",
"216 306 CURVE SMOOTH"
);
}
);
width = 476;
}
);
note = semicolon;
unicode = 003B;
},
{
glyphname = less;
layers = (
{
layerId = "6CB67BB4-1561-4377-8865-B188364DD954";
paths = (
{
closed = 1;
nodes = (
"135 611 LINE SMOOTH",
"100 598 OFFCURVE",
"75 560 OFFCURVE",
"75 523 CURVE SMOOTH",
"75 487 OFFCURVE",
"99 450 OFFCURVE",
"133 435 CURVE SMOOTH",
"1020 68 LINE SMOOTH",
"1032 63 OFFCURVE",
"1046 61 OFFCURVE",
"1058 61 CURVE SMOOTH",
"1110 61 OFFCURVE",
"1153 104 OFFCURVE",
"1153 156 CURVE SMOOTH",
"1153 194 OFFCURVE",
"1127 231 OFFCURVE",
"1093 244 CURVE SMOOTH",
"423 521 LINE",
"1092 786 LINE SMOOTH",
"1127 799 OFFCURVE",
"1153 838 OFFCURVE",
"1153 875 CURVE SMOOTH",
"1153 927 OFFCURVE",
"1110 970 OFFCURVE",
"1058 970 CURVE SMOOTH",
"1046 970 OFFCURVE",
"1032 968 OFFCURVE",
"1021 963 CURVE SMOOTH"
);
}
);
width = 1227;
}
);
note = less;
unicode = 003C;
},
{
glyphname = equal;
layers = (
{
layerId = "6CB67BB4-1561-4377-8865-B188364DD954";
paths = (
{
closed = 1;
nodes = (
"75 663 OFFCURVE",
"108 604 OFFCURVE",
"156 604 CURVE SMOOTH",
"954 604 LINE SMOOTH",
"1002 604 OFFCURVE",
"1035 662 OFFCURVE",
"1035 702 CURVE SMOOTH",
"1035 739 OFFCURVE",
"1004 796 OFFCURVE",
"956 796 CURVE SMOOTH",
"175 796 LINE",
"168 797 OFFCURVE",
"163 797 OFFCURVE",
"156 797 CURVE SMOOTH",
"110 797 OFFCURVE",
"75 742 OFFCURVE",
"75 702 CURVE SMOOTH"
);
},
{
closed = 1;
nodes = (
"75 338 OFFCURVE",
"110 283 OFFCURVE",
"156 283 CURVE SMOOTH",
"954 283 LINE SMOOTH",
"1000 283 OFFCURVE",
"1035 338 OFFCURVE",
"1035 378 CURVE SMOOTH",
"1035 417 OFFCURVE",
"1002 476 OFFCURVE",
"954 476 CURVE SMOOTH",
"939 475 LINE",
"171 475 LINE",
"148 476 LINE SMOOTH",
"100 476 OFFCURVE",
"75 409 OFFCURVE",
"75 378 CURVE SMOOTH"
);
}
);
width = 1109;
}
);
note = equal;
unicode = 003D;
},
{
glyphname = greater;
layers = (
{
layerId = "6CB67BB4-1561-4377-8865-B188364DD954";
paths = (
{
closed = 1;
nodes = (
"207 963 LINE SMOOTH",
"196 968 OFFCURVE",
"182 970 OFFCURVE",
"170 970 CURVE SMOOTH",
"118 970 OFFCURVE",
"75 927 OFFCURVE",
"75 875 CURVE SMOOTH",
"75 838 OFFCURVE",
"101 799 OFFCURVE",
"136 786 CURVE SMOOTH",
"805 521 LINE",
"135 244 LINE SMOOTH",
"101 231 OFFCURVE",
"75 194 OFFCURVE",
"75 156 CURVE SMOOTH",
"75 104 OFFCURVE",
"118 61 OFFCURVE",
"170 61 CURVE SMOOTH",
"182 61 OFFCURVE",
"196 63 OFFCURVE",
"208 68 CURVE SMOOTH",
"1095 435 LINE SMOOTH",
"1129 450 OFFCURVE",
"1153 487 OFFCURVE",
"1153 523 CURVE SMOOTH",
"1153 560 OFFCURVE",
"1128 598 OFFCURVE",
"1093 611 CURVE SMOOTH"
);
}
);
width = 1227;
}
);
note = greater;
unicode = 003E;
},
{
glyphname = question;
layers = (
{
layerId = "6CB67BB4-1561-4377-8865-B188364DD954";
paths = (
{
closed = 1;
nodes = (
"75 905 OFFCURVE",
"98 846 OFFCURVE",
"166 846 CURVE SMOOTH",
"216 846 OFFCURVE",
"256 884 OFFCURVE",
"256 933 CURVE SMOOTH",
"256 943 OFFCURVE",
"255 951 OFFCURVE",
"255 957 CURVE SMOOTH",
"255 1066 OFFCURVE",
"344 1132 OFFCURVE",
"460 1132 CURVE SMOOTH",
"589 1132 OFFCURVE",
"694 1063 OFFCURVE",
"694 949 CURVE SMOOTH",
"694 906 OFFCURVE",
"681 876 OFFCURVE",
"661 843 CURVE SMOOTH",
"590 728 OFFCURVE",
"360 647 OFFCURVE",
"360 414 CURVE SMOOTH",
"360 359 OFFCURVE",
"372 271 OFFCURVE",
"456 271 CURVE SMOOTH",
"506 271 OFFCURVE",
"546 310 OFFCURVE",
"546 359 CURVE SMOOTH",
"546 382 OFFCURVE",
"540 400 OFFCURVE",
"540 413 CURVE SMOOTH",
"540 487 OFFCURVE",
"581 519 OFFCURVE",
"638 568 CURVE SMOOTH",
"730 647 OFFCURVE",
"874 756 OFFCURVE",
"874 949 CURVE SMOOTH",
"874 986 OFFCURVE",
"868 1022 OFFCURVE",
"855 1058 CURVE SMOOTH",
"802 1210 OFFCURVE",
"650 1312 OFFCURVE",
"458 1312 CURVE SMOOTH",
"253 1312 OFFCURVE",
"75 1172 OFFCURVE",
"75 958 CURVE SMOOTH"
);
},
{
closed = 1;
nodes = (
"407 221 OFFCURVE",
"353 167 OFFCURVE",
"353 100 CURVE SMOOTH",
"353 33 OFFCURVE",
"407 -21 OFFCURVE",
"474 -21 CURVE SMOOTH",
"541 -21 OFFCURVE",
"595 33 OFFCURVE",
"595 100 CURVE SMOOTH",
"595 167 OFFCURVE",
"541 221 OFFCURVE",
"474 221 CURVE SMOOTH"
);
}
);
width = 949;
}
);
note = question;
unicode = 003F;
},
{
glyphname = at;
layers = (
{
layerId = "6CB67BB4-1561-4377-8865-B188364DD954";
paths = (
{
closed = 1;
nodes = (
"976 56 OFFCURVE",
"1068 102 OFFCURVE",
"1136 162 CURVE",
"1192 90 OFFCURVE",
"1271 49 OFFCURVE",
"1369 49 CURVE SMOOTH",
"1590 49 OFFCURVE",
"1708 255 OFFCURVE",
"1708 463 CURVE SMOOTH",
"1708 486 OFFCURVE",
"1707 511 OFFCURVE",
"1704 537 CURVE SMOOTH",
"1658 942 OFFCURVE",
"1304 1292 OFFCURVE",
"900 1292 CURVE SMOOTH",
"415 1292 OFFCURVE",
"74 884 OFFCURVE",
"74 477 CURVE SMOOTH",
"74 44 OFFCURVE",
"407 -341 OFFCURVE",
"869 -341 CURVE SMOOTH",
"964 -341 OFFCURVE",
"1060 -323 OFFCURVE",
"1157 -286 CURVE SMOOTH",
"1205 -268 OFFCURVE",
"1233 -228 OFFCURVE",
"1233 -176 CURVE SMOOTH",
"1233 -123 OFFCURVE",
"1206 -83 OFFCURVE",
"1153 -83 CURVE SMOOTH",
"1133 -83 OFFCURVE",
"1112 -89 OFFCURVE",
"1088 -97 CURVE SMOOTH",
"1012 -123 OFFCURVE",
"940 -137 OFFCURVE",
"869 -137 CURVE SMOOTH",
"519 -137 OFFCURVE",
"273 148 OFFCURVE",
"273 480 CURVE SMOOTH",
"273 793 OFFCURVE",
"537 1084 OFFCURVE",
"900 1084 CURVE SMOOTH",
"1210 1084 OFFCURVE",
"1506 804 OFFCURVE",
"1506 462 CURVE SMOOTH",
"1506 357 OFFCURVE",
"1462 252 OFFCURVE",
"1369 252 CURVE SMOOTH",
"1320 252 OFFCURVE",
"1276 286 OFFCURVE",
"1276 321 CURVE SMOOTH",
"1276 811 LINE SMOOTH",
"1276 866 OFFCURVE",
"1231 911 OFFCURVE",
"1176 911 CURVE SMOOTH",
"1133 911 OFFCURVE",
"1096 883 OFFCURVE",
"1082 843 CURVE",
"1015 886 OFFCURVE",
"935 909 OFFCURVE",
"846 909 CURVE SMOOTH",
"631 909 OFFCURVE",
"440 708 OFFCURVE",
"440 491 CURVE SMOOTH",
"440 249 OFFCURVE",
"624 56 OFFCURVE",
"866 56 CURVE SMOOTH"
);
},
{
closed = 1;
nodes = (
"981 707 OFFCURVE",
"1078 606 OFFCURVE",
"1079 480 CURVE SMOOTH",
"1077 355 OFFCURVE",
"984 257 OFFCURVE",
"858 257 CURVE SMOOTH",
"728 257 OFFCURVE",
"640 363 OFFCURVE",
"640 483 CURVE SMOOTH",
"640 604 OFFCURVE",
"739 707 OFFCURVE",
"858 707 CURVE SMOOTH"
);
}
);
width = 1783;
}
);
note = at;
unicode = 0040;
},
{
glyphname = braceleft;
layers = (
{
layerId = "6CB67BB4-1561-4377-8865-B188364DD954";
paths = (
{
closed = 1;
nodes = (
"429 185 LINE",
"429 192 LINE SMOOTH",
"429 283 OFFCURVE",
"409 359 OFFCURVE",
"361 416 CURVE",
"401 467 OFFCURVE",
"422 537 OFFCURVE",
"423 617 CURVE SMOOTH",
"429 1081 LINE SMOOTH",
"430 1134 OFFCURVE",
"432 1185 OFFCURVE",
"477 1185 CURVE SMOOTH",
"490 1185 OFFCURVE",
"504 1181 OFFCURVE",
"518 1181 CURVE SMOOTH",
"573 1181 OFFCURVE",
"618 1226 OFFCURVE",
"618 1281 CURVE SMOOTH",
"618 1352 OFFCURVE",
"551 1387 OFFCURVE",
"476 1387 CURVE SMOOTH",
"419 1387 OFFCURVE",
"367 1366 OFFCURVE",
"324 1330 CURVE SMOOTH",
"257 1274 OFFCURVE",
"230 1189 OFFCURVE",
"229 1084 CURVE SMOOTH",
"223 620 LINE SMOOTH",
"222 554 OFFCURVE",
"201 510 OFFCURVE",
"144 507 CURVE SMOOTH",
"92 503 OFFCURVE",
"50 459 OFFCURVE",
"50 407 CURVE SMOOTH",
"50 352 OFFCURVE",
"95 307 OFFCURVE",
"150 307 CURVE SMOOTH",
"220 307 OFFCURVE",
"229 262 OFFCURVE",
"229 186 CURVE SMOOTH",
"227 -226 LINE",
"227 -237 LINE SMOOTH",
"227 -278 OFFCURVE",
"228 -329 OFFCURVE",
"248 -383 CURVE SMOOTH",
"280 -471 OFFCURVE",
"368 -558 OFFCURVE",
"489 -558 CURVE SMOOTH",
"561 -558 OFFCURVE",
"617 -522 OFFCURVE",
"617 -456 CURVE SMOOTH",
"617 -401 OFFCURVE",
"572 -356 OFFCURVE",
"517 -356 CURVE SMOOTH",
"507 -356 OFFCURVE",
"498 -357 OFFCURVE",
"489 -357 CURVE SMOOTH",
"431 -357 OFFCURVE",
"427 -295 OFFCURVE",
"427 -227 CURVE SMOOTH"
);
}
);
width = 718;
}
);
note = braceleft;
unicode = 007B;
},
{
glyphname = bar;
layers = (
{
layerId = "6CB67BB4-1561-4377-8865-B188364DD954";
paths = (
{
closed = 1;
nodes = (
"275 1210 LINE SMOOTH",
"275 1265 OFFCURVE",
"232 1311 OFFCURVE",
"175 1311 CURVE SMOOTH",
"174 1311 LINE SMOOTH",
"118 1311 OFFCURVE",
"75 1265 OFFCURVE",
"75 1211 CURVE SMOOTH",
"75 -294 LINE SMOOTH",
"75 -360 OFFCURVE",
"119 -395 OFFCURVE",
"186 -395 CURVE SMOOTH",
"236 -395 OFFCURVE",
"275 -341 OFFCURVE",
"275 -295 CURVE SMOOTH"
);
}
);
width = 350;
}
);
note = bar;
unicode = 007C;
},
{
glyphname = braceright;
layers = (
{
layerId = "6CB67BB4-1561-4377-8865-B188364DD954";
paths = (
{
closed = 1;
nodes = (
"289 640 LINE",
"289 633 LINE SMOOTH",
"289 542 OFFCURVE",
"309 466 OFFCURVE",
"357 409 CURVE",
"317 358 OFFCURVE",
"296 288 OFFCURVE",
"295 208 CURVE SMOOTH",
"289 -256 LINE SMOOTH",
"288 -309 OFFCURVE",
"286 -360 OFFCURVE",
"241 -360 CURVE SMOOTH",
"228 -360 OFFCURVE",
"214 -356 OFFCURVE",
"200 -356 CURVE SMOOTH",
"145 -356 OFFCURVE",
"100 -401 OFFCURVE",
"100 -456 CURVE SMOOTH",
"100 -527 OFFCURVE",
"167 -562 OFFCURVE",
"242 -562 CURVE SMOOTH",
"299 -562 OFFCURVE",
"351 -541 OFFCURVE",
"394 -505 CURVE SMOOTH",
"461 -449 OFFCURVE",
"488 -364 OFFCURVE",
"489 -259 CURVE SMOOTH",
"495 205 LINE SMOOTH",
"496 271 OFFCURVE",
"517 315 OFFCURVE",
"574 318 CURVE SMOOTH",
"626 322 OFFCURVE",
"668 366 OFFCURVE",
"668 418 CURVE SMOOTH",
"668 473 OFFCURVE",
"623 518 OFFCURVE",
"568 518 CURVE SMOOTH",
"498 518 OFFCURVE",
"489 563 OFFCURVE",
"489 639 CURVE SMOOTH",
"491 1051 LINE",
"491 1062 LINE SMOOTH",
"491 1103 OFFCURVE",
"490 1154 OFFCURVE",
"470 1208 CURVE SMOOTH",
"438 1296 OFFCURVE",
"350 1383 OFFCURVE",
"229 1383 CURVE SMOOTH",
"157 1383 OFFCURVE",
"101 1347 OFFCURVE",
"101 1281 CURVE SMOOTH",
"101 1226 OFFCURVE",
"146 1181 OFFCURVE",
"201 1181 CURVE SMOOTH",
"211 1181 OFFCURVE",
"220 1182 OFFCURVE",
"229 1182 CURVE SMOOTH",
"287 1182 OFFCURVE",
"291 1120 OFFCURVE",
"291 1052 CURVE SMOOTH"
);
}
);
width = 718;
}
);
note = braceright;
unicode = 007D;
},
{
glyphname = asciitilde;
layers = (
{
layerId = "6CB67BB4-1561-4377-8865-B188364DD954";
paths = (
{
closed = 1;
nodes = (
"623 1281 OFFCURVE",
"602 1260 OFFCURVE",
"574 1260 CURVE SMOOTH",
"561 1260 OFFCURVE",
"550 1265 OFFCURVE",
"533 1276 CURVE SMOOTH",
"450 1329 OFFCURVE",
"390 1428 OFFCURVE",
"248 1428 CURVE SMOOTH",
"113 1428 OFFCURVE",
"0 1313 OFFCURVE",
"0 1180 CURVE SMOOTH",
"0 1113 OFFCURVE",
"39 1062 OFFCURVE",
"101 1062 CURVE SMOOTH",
"156 1062 OFFCURVE",
"201 1107 OFFCURVE",
"201 1162 CURVE SMOOTH",
"201 1167 OFFCURVE",
"200 1173 OFFCURVE",
"200 1178 CURVE SMOOTH",
"200 1206 OFFCURVE",
"222 1228 OFFCURVE",
"251 1228 CURVE SMOOTH",
"265 1228 OFFCURVE",
"277 1222 OFFCURVE",
"294 1211 CURVE SMOOTH",
"376 1158 OFFCURVE",
"437 1060 OFFCURVE",
"577 1060 CURVE SMOOTH",
"709 1060 OFFCURVE",
"823 1172 OFFCURVE",
"823 1306 CURVE SMOOTH",
"823 1378 OFFCURVE",
"787 1434 OFFCURVE",
"721 1434 CURVE SMOOTH",
"720 1434 LINE SMOOTH",
"665 1434 OFFCURVE",
"620 1389 OFFCURVE",
"620 1334 CURVE SMOOTH",
"620 1326 OFFCURVE",
"623 1317 OFFCURVE",
"623 1309 CURVE SMOOTH"
);
}
);
width = 822;
}
);
note = asciitilde;
unicode = 007E;
},
{
glyphname = anuswara;
layers = (
{
layerId = "6CB67BB4-1561-4377-8865-B188364DD954";
paths = (
{
closed = 1;
nodes = (
"224 697 OFFCURVE",
"80 531 OFFCURVE",
"80 321 CURVE SMOOTH",
"80 129 OFFCURVE",
"247 -23 OFFCURVE",
"438 -23 CURVE SMOOTH",
"639 -23 OFFCURVE",
"796 139 OFFCURVE",
"796 338 CURVE SMOOTH",
"796 531 OFFCURVE",
"643 697 OFFCURVE",
"443 697 CURVE SMOOTH"
);
},
{
closed = 1;
nodes = (
"607 244 OFFCURVE",
"535 168 OFFCURVE",
"437 168 CURVE SMOOTH",
"347 168 OFFCURVE",
"269 247 OFFCURVE",
"269 335 CURVE SMOOTH",
"269 424 OFFCURVE",
"346 506 OFFCURVE",
"440 506 CURVE SMOOTH",
"532 506 OFFCURVE",
"607 426 OFFCURVE",
"607 339 CURVE SMOOTH"
);
}
);
width = 875;
}
);
note = anuswara;
unicode = 0D02;
},
{
glyphname = anuswaraabove;
layers = (
{
layerId = "6CB67BB4-1561-4377-8865-B188364DD954";
paths = (
{
closed = 1;
nodes = (
"-3 1676 OFFCURVE",
"-103 1561 OFFCURVE",
"-103 1414 CURVE SMOOTH",
"-103 1281 OFFCURVE",
"13 1175 OFFCURVE",
"146 1175 CURVE SMOOTH",
"285 1175 OFFCURVE",
"394 1288 OFFCURVE",
"394 1426 CURVE SMOOTH",
"394 1561 OFFCURVE",
"288 1676 OFFCURVE",
"149 1676 CURVE SMOOTH"
);
},
{
closed = 1;
nodes = (
"263 1361 OFFCURVE",
"213 1308 OFFCURVE",
"145 1308 CURVE SMOOTH",
"83 1308 OFFCURVE",
"28 1363 OFFCURVE",
"28 1424 CURVE SMOOTH",
"28 1486 OFFCURVE",
"82 1543 OFFCURVE",
"147 1543 CURVE SMOOTH",
"211 1543 OFFCURVE",
"263 1488 OFFCURVE",
"263 1427 CURVE SMOOTH"
);
}
);
width = 327;
}
);
note = anuswaraabove;
unicode = 0D00;
},
{
glyphname = verticalbarvirama;
layers = (
{
layerId = "6CB67BB4-1561-4377-8865-B188364DD954";
paths = (
{
closed = 1;
nodes = (
"150 1865 LINE SMOOTH",
"102 1865 OFFCURVE",
"45 1828 OFFCURVE",
"45 1772 CURVE",
"75 1205 LINE",
"75 1157 OFFCURVE",
"97 1112 OFFCURVE",
"151 1112 CURVE SMOOTH",
"205 1112 OFFCURVE",
"228 1157 OFFCURVE",
"228 1205 CURVE",
"256 1772 LINE",
"256 1828 OFFCURVE",
"200 1865 OFFCURVE",
"151 1865 CURVE SMOOTH"
);
}
);
width = 301;
}
);
note = verticalbarvirama;
unicode = 0D3B;
},
{
glyphname = circularvirama;
layers = (
{
layerId = "6CB67BB4-1561-4377-8865-B188364DD954";
paths = (
{
closed = 1;
nodes = (
"7 1149 OFFCURVE",
"84 1072 OFFCURVE",
"177 1072 CURVE SMOOTH",
"270 1072 OFFCURVE",
"347 1149 OFFCURVE",
"347 1242 CURVE SMOOTH",
"347 1335 OFFCURVE",
"270 1411 OFFCURVE",
"177 1411 CURVE SMOOTH",
"84 1411 OFFCURVE",
"7 1335 OFFCURVE",
"7 1242 CURVE SMOOTH"
);
},
{
closed = 1;
nodes = (
"222 1321 OFFCURVE",
"257 1286 OFFCURVE",
"257 1242 CURVE SMOOTH",
"257 1197 OFFCURVE",
"222 1162 OFFCURVE",
"177 1162 CURVE SMOOTH",
"132 1162 OFFCURVE",
"97 1197 OFFCURVE",
"97 1242 CURVE SMOOTH",
"97 1286 OFFCURVE",
"132 1321 OFFCURVE",
"177 1321 CURVE SMOOTH"
);
}
);
width = 363;
}
);
note = circularvirama;
unicode = 0D3C;
},
{
glyphname = visarga;
layers = (
{
layerId = "6CB67BB4-1561-4377-8865-B188364DD954";
paths = (
{
closed = 1;
nodes = (
"179 966 OFFCURVE",
"103 881 OFFCURVE",
"103 773 CURVE SMOOTH",
"103 675 OFFCURVE",
"191 597 OFFCURVE",
"291 597 CURVE SMOOTH",
"397 597 OFFCURVE",
"479 680 OFFCURVE",
"479 782 CURVE SMOOTH",
"479 881 OFFCURVE",
"399 966 OFFCURVE",
"294 966 CURVE SMOOTH"
);
},
{
closed = 1;
nodes = (
"380 734 OFFCURVE",
"342 695 OFFCURVE",
"291 695 CURVE SMOOTH",
"243 695 OFFCURVE",
"202 735 OFFCURVE",
"202 781 CURVE SMOOTH",
"202 826 OFFCURVE",
"243 868 OFFCURVE",
"292 868 CURVE SMOOTH",
"341 868 OFFCURVE",
"380 827 OFFCURVE",
"380 783 CURVE SMOOTH"
);
},
{
closed = 1;
nodes = (
"183 490 OFFCURVE",
"107 405 OFFCURVE",
"107 297 CURVE SMOOTH",
"107 199 OFFCURVE",
"195 121 OFFCURVE",
"295 121 CURVE SMOOTH",
"401 121 OFFCURVE",
"483 204 OFFCURVE",
"483 306 CURVE SMOOTH",
"483 405 OFFCURVE",
"403 490 OFFCURVE",
"298 490 CURVE SMOOTH"
);
},
{
closed = 1;
nodes = (
"384 258 OFFCURVE",
"346 219 OFFCURVE",
"295 219 CURVE SMOOTH",
"247 219 OFFCURVE",
"206 259 OFFCURVE",
"206 305 CURVE SMOOTH",
"206 350 OFFCURVE",
"247 392 OFFCURVE",
"296 392 CURVE SMOOTH",
"345 392 OFFCURVE",
"384 351 OFFCURVE",
"384 307 CURVE SMOOTH"
);
}
);
width = 580;
}
);
note = visarga;
unicode = 0D03;
},
{
color = 6;
glyphname = ml_a;
lastChange = "2020-07-22 07:02:30 +0000";
layers = (
{
background = {
paths = (
{
closed = 1;
nodes = (
"75 251 OFFCURVE",
"230 64 OFFCURVE",
"411 -16 CURVE SMOOTH",
"422 -21 OFFCURVE",
"441 -25 OFFCURVE",
"453 -25 CURVE SMOOTH",
"508 -25 OFFCURVE",
"553 20 OFFCURVE",
"553 75 CURVE SMOOTH",
"553 112 OFFCURVE",
"526 153 OFFCURVE",
"492 167 CURVE SMOOTH",
"376 218 OFFCURVE",
"275 339 OFFCURVE",
"275 498 CURVE SMOOTH",
"275 713 OFFCURVE",
"457 875 OFFCURVE",
"657 895 CURVE",
"553 783 OFFCURVE",
"488 645 OFFCURVE",
"488 468 CURVE SMOOTH",
"488 213 OFFCURVE",
"658 -23 OFFCURVE",
"924 -23 CURVE SMOOTH",
"1111 -23 OFFCURVE",
"1274 115 OFFCURVE",
"1274 306 CURVE SMOOTH",
"1274 396 OFFCURVE",
"1232 484 OFFCURVE",
"1167 540 CURVE",
"1195 584 OFFCURVE",
"1210 630 OFFCURVE",
"1210 688 CURVE SMOOTH",
"1210 769 OFFCURVE",
"1175 838 OFFCURVE",
"1136 891 CURVE",
"1342 878 OFFCURVE",
"1450 744 OFFCURVE",
"1450 531 CURVE SMOOTH",
"1451 74 LINE SMOOTH",
"1452 20 OFFCURVE",
"1497 -24 OFFCURVE",
"1551 -24 CURVE SMOOTH",
"1606 -24 OFFCURVE",
"1650 20 OFFCURVE",
"1651 75 CURVE SMOOTH",
"1650 531 LINE SMOOTH",
"1650 749 OFFCURVE",
"1757 893 OFFCURVE",
"1978 893 CURVE SMOOTH",
"2081 893 OFFCURVE",
"2167 862 OFFCURVE",
"2243 810 CURVE",
"2231 811 OFFCURVE",
"2219 812 OFFCURVE",
"2207 812 CURVE SMOOTH",
"1971 812 OFFCURVE",
"1790 629 OFFCURVE",
"1790 388 CURVE SMOOTH",
"1790 162 OFFCURVE",
"1960 -23 OFFCURVE",
"2191 -23 CURVE SMOOTH",
"2447 -23 OFFCURVE",
"2629 214 OFFCURVE",
"2629 467 CURVE SMOOTH",
"2629 817 OFFCURVE",
"2328 1093 OFFCURVE",
"1977 1093 CURVE SMOOTH",
"1779 1093 OFFCURVE",
"1635 1005 OFFCURVE",
"1548 880 CURVE",
"1459 1002 OFFCURVE",
"1310 1092 OFFCURVE",
"1109 1092 CURVE SMOOTH",
"1042 1092 OFFCURVE",
"975 1080 OFFCURVE",
"911 1059 CURVE",
"843 1085 OFFCURVE",
"771 1097 OFFCURVE",
"700 1097 CURVE SMOOTH",
"365 1097 OFFCURVE",
"75 836 OFFCURVE",
"75 499 CURVE SMOOTH"
);
},
{
closed = 1;
nodes = (
"1025 415 OFFCURVE",
"1074 365 OFFCURVE",
"1074 303 CURVE SMOOTH",
"1074 229 OFFCURVE",
"1001 177 OFFCURVE",
"924 177 CURVE SMOOTH",
"775 177 OFFCURVE",
"688 321 OFFCURVE",
"688 469 CURVE SMOOTH",
"688 632 OFFCURVE",
"781 771 OFFCURVE",
"905 839 CURVE",
"949 809 OFFCURVE",
"1010 749 OFFCURVE",
"1010 687 CURVE SMOOTH",
"1010 648 OFFCURVE",
"977 616 OFFCURVE",
"939 614 CURVE SMOOTH",
"886 610 OFFCURVE",
"844 567 OFFCURVE",
"844 514 CURVE SMOOTH",
"844 459 OFFCURVE",
"889 414 OFFCURVE",
"944 414 CURVE SMOOTH",
"951 414 OFFCURVE",
"957 415 OFFCURVE",
"963 415 CURVE SMOOTH"
);
},
{
closed = 1;
nodes = (
"2412 275 OFFCURVE",
"2301 177 OFFCURVE",
"2191 177 CURVE SMOOTH",
"2073 177 OFFCURVE",
"1991 272 OFFCURVE",
"1991 390 CURVE SMOOTH",
"1991 514 OFFCURVE",
"2085 612 OFFCURVE",
"2206 612 CURVE SMOOTH",
"2316 612 OFFCURVE",
"2412 523 OFFCURVE",
"2412 403 CURVE SMOOTH"
);
}
);
};
components = (
{
name = _part.big_ra_circle;
transform = "{1, 0, 0, 1, 1387, 1}";
}
);
layerId = "6CB67BB4-1561-4377-8865-B188364DD954";
paths = (
{
closed = 1;
nodes = (
"708 1096 OFFCURVE",
"487 856 OFFCURVE",
"487 467 CURVE SMOOTH",
"487 233 OFFCURVE",
"659 -24 OFFCURVE",
"886 -24 CURVE SMOOTH",
"1101 -24 OFFCURVE",
"1219 110 OFFCURVE",
"1219 323 CURVE SMOOTH",
"1219 395 OFFCURVE",
"1192 466 OFFCURVE",
"1132 521 CURVE",
"1164 581 OFFCURVE",
"1178 639 OFFCURVE",
"1178 714 CURVE SMOOTH",
"1178 993 OFFCURVE",
"892 1096 OFFCURVE",
"649 1096 CURVE SMOOTH",
"302 1096 OFFCURVE",
"75 842 OFFCURVE",
"75 514 CURVE SMOOTH",
"75 294 OFFCURVE",
"199 72 OFFCURVE",
"383 0 CURVE",
"479 0 LINE",
"344 127 OFFCURVE",
"235 253 OFFCURVE",
"235 514 CURVE SMOOTH",
"235 800 OFFCURVE",
"449 936 OFFCURVE",
"649 936 CURVE SMOOTH",
"875 936 OFFCURVE",
"1018 850 OFFCURVE",
"1018 714 CURVE SMOOTH",
"1018 659 OFFCURVE",
"983 580 OFFCURVE",
"917 580 CURVE SMOOTH",
"858 580 OFFCURVE",
"800 570 OFFCURVE",
"758 540 CURVE",
"758 380 LINE",
"799 409 OFFCURVE",
"855 420 OFFCURVE",
"913 420 CURVE SMOOTH",
"1041 420 OFFCURVE",
"1062 377 OFFCURVE",
"1062 283 CURVE SMOOTH",
"1062 179 OFFCURVE",
"1000 126 OFFCURVE",
"886 126 CURVE SMOOTH",
"775 126 OFFCURVE",
"637 290 OFFCURVE",
"637 467 CURVE SMOOTH",
"637 796 OFFCURVE",
"845 947 OFFCURVE",
"1066 947 CURVE SMOOTH",
"1248 947 OFFCURVE",
"1425 835 OFFCURVE",
"1425 545 CURVE SMOOTH",
"1425 545 OFFCURVE",
"1585 545 OFFCURVE",
"1585 545 CURVE SMOOTH",
"1585 903 OFFCURVE",
"1362 1096 OFFCURVE",
"1066 1096 CURVE SMOOTH"
);
},
{
closed = 1;
nodes = (
"2303 -14 OFFCURVE",
"2561 100 OFFCURVE",
"2561 515 CURVE SMOOTH",
"2561 823 OFFCURVE",
"2328 1096 OFFCURVE",
"1980 1096 CURVE SMOOTH",
"1656 1096 OFFCURVE",
"1425 873 OFFCURVE",
"1425 545 CURVE",
"1425 324 OFFCURVE",
"1585 284 OFFCURVE",
"1585 545 CURVE",
"1585 772 OFFCURVE",
"1733 937 OFFCURVE",
"1980 937 CURVE SMOOTH",
"2232 937 OFFCURVE",
"2431 752 OFFCURVE",
"2431 515 CURVE SMOOTH",
"2431 325 OFFCURVE",
"2436 133 OFFCURVE",
"2125 3 CURVE",
"2124 2 OFFCURVE",
"2123 1 OFFCURVE",
"2121 0 CURVE",
"2121 -21 LINE",
"2132 -21 OFFCURVE",
"2144 -15 OFFCURVE",
"2158 -24 CURVE"
);
},
{
closed = 1;
nodes = (
"1625 0 LINE",
"1595 50 OFFCURVE",
"1585 120 OFFCURVE",
"1585 190 CURVE",
"1585 621 LINE",
"1425 546 LINE",
"1425 190 LINE",
"1425 120 OFFCURVE",
"1435 50 OFFCURVE",
"1465 0 CURVE"
);
}
);
width = 2636;
}
);
note = ml_a;
unicode = 0D05;
},
{
color = 6;
glyphname = ml_aa;
lastChange = "2020-07-22 07:02:28 +0000";
layers = (
{
background = {
paths = (
{
closed = 1;
nodes = (
"75 250 OFFCURVE",
"217 70 OFFCURVE",
"383 -16 CURVE SMOOTH",
"395 -22 OFFCURVE",
"417 -28 OFFCURVE",
"431 -28 CURVE SMOOTH",
"486 -28 OFFCURVE",
"531 17 OFFCURVE",
"531 72 CURVE SMOOTH",
"531 106 OFFCURVE",
"506 147 OFFCURVE",
"475 162 CURVE SMOOTH",
"368 217 OFFCURVE",
"275 335 OFFCURVE",
"275 489 CURVE SMOOTH",
"275 703 OFFCURVE",
"452 865 OFFCURVE",
"650 888 CURVE",
"549 777 OFFCURVE",
"489 641 OFFCURVE",
"489 470 CURVE SMOOTH",
"489 215 OFFCURVE",
"659 -21 OFFCURVE",
"927 -21 CURVE SMOOTH",
"1113 -21 OFFCURVE",
"1275 114 OFFCURVE",
"1275 304 CURVE SMOOTH",
"1275 393 OFFCURVE",
"1233 480 OFFCURVE",
"1168 535 CURVE",
"1195 578 OFFCURVE",
"1209 624 OFFCURVE",
"1209 681 CURVE SMOOTH",
"1209 764 OFFCURVE",
"1174 835 OFFCURVE",
"1133 889 CURVE",
"1341 876 OFFCURVE",
"1444 741 OFFCURVE",
"1450 525 CURVE",
"1451 76 LINE SMOOTH",
"1452 22 OFFCURVE",
"1497 -23 OFFCURVE",
"1551 -23 CURVE SMOOTH",
"1606 -23 OFFCURVE",
"1650 21 OFFCURVE",
"1651 76 CURVE SMOOTH",
"1650 524 LINE SMOOTH",
"1655 744 OFFCURVE",
"1757 895 OFFCURVE",
"1979 895 CURVE SMOOTH",
"2089 895 OFFCURVE",
"2183 853 OFFCURVE",
"2262 793 CURVE",
"2009 787 OFFCURVE",
"1789 629 OFFCURVE",
"1789 366 CURVE SMOOTH",
"1789 140 OFFCURVE",
"1978 -30 OFFCURVE",
"2185 -30 CURVE SMOOTH",
"2415 -30 OFFCURVE",
"2585 159 OFFCURVE",
"2621 368 CURVE",
"2642 322 OFFCURVE",
"2655 274 OFFCURVE",
"2655 212 CURVE SMOOTH",
"2655 -7 OFFCURVE",
"2487 -173 OFFCURVE",
"2275 -173 CURVE SMOOTH",
"2175 -173 OFFCURVE",
"2073 -135 OFFCURVE",
"2002 -67 CURVE SMOOTH",
"1986 -51 OFFCURVE",
"1955 -38 OFFCURVE",
"1932 -38 CURVE SMOOTH",
"1877 -38 OFFCURVE",
"1832 -83 OFFCURVE",
"1832 -138 CURVE SMOOTH",
"1832 -162 OFFCURVE",
"1846 -195 OFFCURVE",
"1864 -211 CURVE SMOOTH",
"1974 -316 OFFCURVE",
"2121 -374 OFFCURVE",
"2271 -374 CURVE SMOOTH",
"2598 -374 OFFCURVE",
"2855 -126 OFFCURVE",
"2855 212 CURVE SMOOTH",
"2855 443 OFFCURVE",
"2729 613 OFFCURVE",
"2577 708 CURVE",
"2481 924 OFFCURVE",
"2254 1095 OFFCURVE",
"1978 1095 CURVE SMOOTH",
"1780 1095 OFFCURVE",
"1635 1000 OFFCURVE",
"1548 875 CURVE",
"1459 999 OFFCURVE",
"1309 1090 OFFCURVE",
"1106 1090 CURVE SMOOTH",
"1037 1090 OFFCURVE",
"969 1078 OFFCURVE",
"904 1055 CURVE",
"838 1079 OFFCURVE",
"769 1091 OFFCURVE",
"701 1091 CURVE SMOOTH",
"364 1091 OFFCURVE",
"75 827 OFFCURVE",
"75 489 CURVE SMOOTH"
);
},
{
closed = 1;
nodes = (
"1027 408 OFFCURVE",
"1074 362 OFFCURVE",
"1074 301 CURVE SMOOTH",
"1074 229 OFFCURVE",
"1002 179 OFFCURVE",
"927 179 CURVE SMOOTH",
"776 179 OFFCURVE",
"689 324 OFFCURVE",
"689 472 CURVE SMOOTH",
"689 631 OFFCURVE",
"779 767 OFFCURVE",
"900 835 CURVE",
"945 805 OFFCURVE",
"1009 744 OFFCURVE",
"1009 680 CURVE SMOOTH",
"1009 642 OFFCURVE",
"981 614 OFFCURVE",
"947 608 CURVE",
"889 604 OFFCURVE",
"844 563 OFFCURVE",
"844 507 CURVE SMOOTH",
"844 452 OFFCURVE",
"889 407 OFFCURVE",
"944 407 CURVE SMOOTH",
"952 407 OFFCURVE",
"959 408 OFFCURVE",
"967 408 CURVE SMOOTH"
);
},
{
closed = 1;
nodes = (
"2081 170 OFFCURVE",
"1990 254 OFFCURVE",
"1990 368 CURVE SMOOTH",
"1990 513 OFFCURVE",
"2126 593 OFFCURVE",
"2274 593 CURVE SMOOTH",
"2322 593 OFFCURVE",
"2372 583 OFFCURVE",
"2415 566 CURVE",
"2424 532 OFFCURVE",
"2429 498 OFFCURVE",
"2429 464 CURVE SMOOTH",
"2429 315 OFFCURVE",
"2329 170 OFFCURVE",
"2185 170 CURVE SMOOTH"
);
}
);
};
components = (
{
name = ml_a;
},
{
name = _part.aa_neettam;
}
);
layerId = "6CB67BB4-1561-4377-8865-B188364DD954";
width = 2768;
}
);
note = ml_aa;
unicode = 0D06;
},
{
color = 6;
glyphname = ml_i;
lastChange = "2020-07-17 19:02:32 +0000";
layers = (
{
background = {
paths = (
{
closed = 1;
nodes = (
"962 1021 OFFCURVE",
"830 1092 OFFCURVE",
"656 1092 CURVE SMOOTH",
"342 1092 OFFCURVE",
"109 854 OFFCURVE",
"109 544 CURVE SMOOTH",
"109 345 OFFCURVE",
"263 175 OFFCURVE",
"463 175 CURVE SMOOTH",
"641 175 OFFCURVE",
"785 321 OFFCURVE",
"785 499 CURVE SMOOTH",
"785 684 OFFCURVE",
"638 828 OFFCURVE",
"454 830 CURVE",
"511 870 OFFCURVE",
"585 892 OFFCURVE",
"658 892 CURVE SMOOTH",
"841 892 OFFCURVE",
"949 786 OFFCURVE",
"950 610 CURVE SMOOTH",
"951 287 LINE SMOOTH",
"952 233 OFFCURVE",
"997 189 OFFCURVE",
"1051 189 CURVE SMOOTH",
"1106 189 OFFCURVE",
"1150 233 OFFCURVE",
"1151 288 CURVE SMOOTH",
"1150 608 LINE SMOOTH",
"1150 771 OFFCURVE",
"1232 895 OFFCURVE",
"1399 895 CURVE SMOOTH",
"1589 895 OFFCURVE",
"1725 716 OFFCURVE",
"1725 522 CURVE SMOOTH",
"1725 254 OFFCURVE",
"1529 169 OFFCURVE",
"1257 168 CURVE SMOOTH",
"593 165 LINE",
"588 165 LINE SMOOTH",
"557 165 OFFCURVE",
"524 166 OFFCURVE",
"490 166 CURVE SMOOTH",
"295 166 OFFCURVE",
"93 113 OFFCURVE",
"93 -89 CURVE SMOOTH",
"93 -269 OFFCURVE",
"273 -348 OFFCURVE",
"443 -348 CURVE SMOOTH",
"462 -348 LINE",
"1826 -349 LINE",
"1827 -349 LINE SMOOTH",
"1882 -349 OFFCURVE",
"1927 -304 OFFCURVE",
"1927 -249 CURVE SMOOTH",
"1927 -194 OFFCURVE",
"1882 -149 OFFCURVE",
"1827 -149 CURVE SMOOTH",
"1826 -149 LINE",
"488 -148 LINE SMOOTH",
"412 -148 OFFCURVE",
"293 -148 OFFCURVE",
"293 -88 CURVE SMOOTH",
"293 -35 OFFCURVE",
"433 -35 OFFCURVE",
"495 -35 CURVE SMOOTH",
"1258 -32 LINE SMOOTH",
"1642 -30 OFFCURVE",
"1925 137 OFFCURVE",
"1925 521 CURVE SMOOTH",
"1925 825 OFFCURVE",
"1704 1095 OFFCURVE",
"1398 1095 CURVE SMOOTH",
"1238 1095 OFFCURVE",
"1117 1017 OFFCURVE",
"1045 919 CURVE"
);
},
{
closed = 1;
nodes = (
"585 431 OFFCURVE",
"529 375 OFFCURVE",
"462 375 CURVE SMOOTH",
"380 375 OFFCURVE",
"318 421 OFFCURVE",
"316 500 CURVE SMOOTH",
"314 570 OFFCURVE",
"380 630 OFFCURVE",
"454 630 CURVE SMOOTH",
"527 630 OFFCURVE",
"585 571 OFFCURVE",
"585 498 CURVE SMOOTH"
);
},
{
closed = 1;
nodes = (
"174 334 OFFCURVE",
"301 197 OFFCURVE",
"470 197 CURVE SMOOTH",
"639 197 OFFCURVE",
"785 334 OFFCURVE",
"784 504 CURVE SMOOTH",
"783 691 OFFCURVE",
"658 828 OFFCURVE",
"470 828 CURVE SMOOTH",
"256 828 OFFCURVE",
"174 681 OFFCURVE",
"174 504 CURVE SMOOTH"
);
},
{
closed = 1;
nodes = (
"253 627 OFFCURVE",
"346 692 OFFCURVE",
"470 692 CURVE SMOOTH",
"576 692 OFFCURVE",
"649 609 OFFCURVE",
"649 504 CURVE SMOOTH",
"649 370 OFFCURVE",
"584 288 OFFCURVE",
"470 288 CURVE SMOOTH",
"346 288 OFFCURVE",
"255 380 OFFCURVE",
"254 504 CURVE SMOOTH"
);
}
);
};
components = (
{
name = _part.ee1;
transform = "{1, 0, 0, 1, 33, 0}";
}
);
layerId = "6CB67BB4-1561-4377-8865-B188364DD954";
paths = (
{
closed = 1;
nodes = (
"989 340 OFFCURVE",
"999 270 OFFCURVE",
"1029 220 CURVE",
"1189 220 LINE",
"1159 270 OFFCURVE",
"1149 340 OFFCURVE",
"1149 410 CURVE SMOOTH",
"1149 824 LINE",
"989 749 LINE",
"989 410 LINE SMOOTH"
);
},
{
closed = 1;
nodes = (
"1149 624 LINE",
"1149 750 OFFCURVE",
"1237 935 OFFCURVE",
"1462 935 CURVE SMOOTH",
"1641 935 OFFCURVE",
"1760 780 OFFCURVE",
"1760 548 CURVE SMOOTH",
"1760 188 OFFCURVE",
"1565 122 OFFCURVE",
"1403 122 CURVE",
"1445 -28 LINE",
"1734 -28 OFFCURVE",
"1940 138 OFFCURVE",
"1940 548 CURVE SMOOTH",
"1940 876 OFFCURVE",
"1749 1095 OFFCURVE",
"1462 1095 CURVE SMOOTH",
"1135 1095 OFFCURVE",
"994 867 OFFCURVE",
"999 624 CURVE"
);
},
{
closed = 1;
nodes = (
"1860 -449 OFFCURVE",
"1918 -439 OFFCURVE",
"1960 -409 CURVE",
"1960 -229 LINE",
"1918 -259 OFFCURVE",
"1860 -269 OFFCURVE",
"1801 -269 CURVE",
"1801 -449 LINE"
);
},
{
closed = 1;
nodes = (
"75 -338 OFFCURVE",
"188 -449 OFFCURVE",
"380 -449 CURVE SMOOTH",
"537 -449 OFFCURVE",
"1643 -449 OFFCURVE",
"1801 -449 CURVE",
"1801 -269 LINE",
"378 -269 LINE SMOOTH",
"301 -269 OFFCURVE",
"255 -224 OFFCURVE",
"255 -149 CURVE SMOOTH",
"255 -73 OFFCURVE",
"301 -28 OFFCURVE",
"380 -28 CURVE SMOOTH",
"1445 -28 LINE",
"1582 122 LINE",
"1242 122 OFFCURVE",
"384 122 OFFCURVE",
"380 122 CURVE SMOOTH",
"188 122 OFFCURVE",
"75 21 OFFCURVE",
"75 -149 CURVE SMOOTH"
);
},
{
closed = 1;
nodes = (
"425 221 LINE",
"246 321 OFFCURVE",
"178 359 OFFCURVE",
"178 588 CURVE SMOOTH",
"178 785 OFFCURVE",
"396 936 OFFCURVE",
"628 936 CURVE SMOOTH",
"860 936 OFFCURVE",
"989 772 OFFCURVE",
"989 535 CURVE",
"989 535 OFFCURVE",
"1101 522 OFFCURVE",
"1147 522 CURVE",
"1131 791 LINE",
"1051 969 OFFCURVE",
"865 1096 OFFCURVE",
"628 1096 CURVE SMOOTH",
"300 1096 OFFCURVE",
"93 873 OFFCURVE",
"93 575 CURVE SMOOTH",
"93 357 OFFCURVE",
"202 222 OFFCURVE",
"416 200 CURVE"
);
}
);
width = 2035;
}
);
note = ml_i;
unicode = 0D07;
},
{
color = 6;
glyphname = ml_ii;
lastChange = "2020-06-16 09:50:20 +0000";
layers = (
{
background = {
paths = (
{
closed = 1;
nodes = (
"2726 639 LINE SMOOTH",
"2729 806 OFFCURVE",
"2798 916 OFFCURVE",
"2941 916 CURVE SMOOTH",
"3078 916 OFFCURVE",
"3178 782 OFFCURVE",
"3178 632 CURVE SMOOTH",
"3178 361 OFFCURVE",
"2916 143 OFFCURVE",
"2633 143 CURVE SMOOTH",
"2541 143 OFFCURVE",
"2448 162 OFFCURVE",
"2369 197 CURVE",
"2356 204 OFFCURVE",
"2343 207 OFFCURVE",
"2329 207 CURVE SMOOTH",
"2276 207 OFFCURVE",
"2234 162 OFFCURVE",
"2234 107 CURVE SMOOTH",
"2234 65 OFFCURVE",
"2261 30 OFFCURVE",
"2292 16 CURVE SMOOTH",
"2396 -32 OFFCURVE",
"2515 -58 OFFCURVE",
"2631 -58 CURVE SMOOTH",
"3008 -58 OFFCURVE",
"3368 232 OFFCURVE",
"3368 630 CURVE SMOOTH",
"3368 876 OFFCURVE",
"3189 1119 OFFCURVE",
"2947 1119 CURVE SMOOTH",
"2816 1119 OFFCURVE",
"2702 1056 OFFCURVE",
"2639 963 CURVE",
"2582 1056 OFFCURVE",
"2470 1121 OFFCURVE",
"2343 1121 CURVE SMOOTH",
"2123 1121 OFFCURVE",
"1962 932 OFFCURVE",
"1962 713 CURVE SMOOTH",
"1962 650 OFFCURVE",
"1976 589 OFFCURVE",
"2009 528 CURVE SMOOTH",
"2023 498 OFFCURVE",
"2054 474 OFFCURVE",
"2095 474 CURVE SMOOTH",
"2149 474 OFFCURVE",
"2188 522 OFFCURVE",
"2188 572 CURVE SMOOTH",
"2188 588 OFFCURVE",
"2184 604 OFFCURVE",
"2176 619 CURVE SMOOTH",
"2160 650 OFFCURVE",
"2152 679 OFFCURVE",
"2152 710 CURVE SMOOTH",
"2152 823 OFFCURVE",
"2234 920 OFFCURVE",
"2343 920 CURVE SMOOTH",
"2459 920 OFFCURVE",
"2535 821 OFFCURVE",
"2537 703 CURVE SMOOTH",
"2537 657 LINE SMOOTH",
"2537 607 OFFCURVE",
"2576 557 OFFCURVE",
"2631 557 CURVE SMOOTH",
"2673 557 OFFCURVE",
"2717 586 OFFCURVE",
"2726 634 CURVE"
);
},
{
closed = 1;
nodes = (
"944 1021 OFFCURVE",
"812 1092 OFFCURVE",
"638 1092 CURVE SMOOTH",
"324 1092 OFFCURVE",
"91 854 OFFCURVE",
"91 544 CURVE SMOOTH",
"91 345 OFFCURVE",
"245 175 OFFCURVE",
"445 175 CURVE SMOOTH",
"623 175 OFFCURVE",
"767 321 OFFCURVE",
"767 499 CURVE SMOOTH",
"767 684 OFFCURVE",
"620 828 OFFCURVE",
"436 830 CURVE",
"493 870 OFFCURVE",
"567 892 OFFCURVE",
"640 892 CURVE SMOOTH",
"823 892 OFFCURVE",
"931 786 OFFCURVE",
"932 610 CURVE SMOOTH",
"933 287 LINE SMOOTH",
"934 233 OFFCURVE",
"979 189 OFFCURVE",
"1033 189 CURVE SMOOTH",
"1088 189 OFFCURVE",
"1132 233 OFFCURVE",
"1133 288 CURVE SMOOTH",
"1132 608 LINE SMOOTH",
"1132 771 OFFCURVE",
"1214 895 OFFCURVE",
"1381 895 CURVE SMOOTH",
"1571 895 OFFCURVE",
"1707 716 OFFCURVE",
"1707 522 CURVE SMOOTH",
"1707 254 OFFCURVE",
"1511 169 OFFCURVE",
"1239 168 CURVE SMOOTH",
"575 165 LINE",
"570 165 LINE SMOOTH",
"539 165 OFFCURVE",
"506 166 OFFCURVE",
"472 166 CURVE SMOOTH",
"277 166 OFFCURVE",
"75 113 OFFCURVE",
"75 -89 CURVE SMOOTH",
"75 -269 OFFCURVE",
"255 -348 OFFCURVE",
"425 -348 CURVE SMOOTH",
"444 -348 LINE",
"1808 -349 LINE",
"1809 -349 LINE SMOOTH",
"1864 -349 OFFCURVE",
"1909 -304 OFFCURVE",
"1909 -249 CURVE SMOOTH",
"1909 -194 OFFCURVE",
"1864 -149 OFFCURVE",
"1809 -149 CURVE SMOOTH",
"1808 -149 LINE",
"470 -148 LINE SMOOTH",
"394 -148 OFFCURVE",
"275 -148 OFFCURVE",
"275 -88 CURVE SMOOTH",
"275 -35 OFFCURVE",
"415 -35 OFFCURVE",
"477 -35 CURVE SMOOTH",
"1240 -32 LINE SMOOTH",
"1624 -30 OFFCURVE",
"1907 137 OFFCURVE",
"1907 521 CURVE SMOOTH",
"1907 825 OFFCURVE",
"1686 1095 OFFCURVE",
"1380 1095 CURVE SMOOTH",
"1220 1095 OFFCURVE",
"1099 1017 OFFCURVE",
"1027 919 CURVE"
);
},
{
closed = 1;
nodes = (
"567 431 OFFCURVE",
"511 375 OFFCURVE",
"444 375 CURVE SMOOTH",
"362 375 OFFCURVE",
"300 421 OFFCURVE",
"298 500 CURVE SMOOTH",
"296 570 OFFCURVE",
"362 630 OFFCURVE",
"436 630 CURVE SMOOTH",
"509 630 OFFCURVE",
"567 571 OFFCURVE",
"567 498 CURVE SMOOTH"
);
}
);
};
components = (
{
name = ml_i;
},
{
name = _part.au2;
transform = "{1, 0, 0, 1, 1884, 0}";
}
);
layerId = "6CB67BB4-1561-4377-8865-B188364DD954";
width = 3380;
}
);
note = ml_ii;
unicode = 0D08;
},
{
color = 6;
glyphname = ml_u;
lastChange = "2020-07-17 13:55:29 +0000";
layers = (
{
background = {
paths = (
{
closed = 1;
nodes = (
"615 216 OFFCURVE",
"757 368 OFFCURVE",
"757 542 CURVE SMOOTH",
"757 702 OFFCURVE",
"646 834 OFFCURVE",
"499 868 CURVE",
"548 888 OFFCURVE",
"602 898 OFFCURVE",
"657 898 CURVE SMOOTH",
"894 898 OFFCURVE",
"1098 718 OFFCURVE",
"1098 484 CURVE SMOOTH",
"1098 257 OFFCURVE",
"929 171 OFFCURVE",
"699 171 CURVE SMOOTH",
"687 171 OFFCURVE",
"675 172 OFFCURVE",
"663 172 CURVE SMOOTH",
"558 174 LINE SMOOTH",
"537 174 OFFCURVE",
"515 175 OFFCURVE",
"491 175 CURVE SMOOTH",
"299 175 OFFCURVE",
"93 90 OFFCURVE",
"93 -110 CURVE SMOOTH",
"93 -320 OFFCURVE",
"299 -385 OFFCURVE",
"501 -385 CURVE SMOOTH",
"534 -385 LINE",
"1225 -387 LINE",
"1227 -387 LINE SMOOTH",
"1282 -387 OFFCURVE",
"1327 -342 OFFCURVE",
"1327 -287 CURVE SMOOTH",
"1327 -232 OFFCURVE",
"1282 -187 OFFCURVE",
"1227 -187 CURVE SMOOTH",
"1226 -187 LINE",
"535 -185 LINE SMOOTH",
"445 -185 OFFCURVE",
"293 -188 OFFCURVE",
"293 -112 CURVE SMOOTH",
"293 -35 OFFCURVE",
"418 -26 OFFCURVE",
"505 -26 CURVE SMOOTH",
"554 -26 LINE",
"659 -28 LINE SMOOTH",
"678 -28 OFFCURVE",
"698 -29 OFFCURVE",
"718 -29 CURVE SMOOTH",
"1053 -29 OFFCURVE",
"1300 156 OFFCURVE",
"1300 487 CURVE SMOOTH",
"1300 834 OFFCURVE",
"1001 1098 OFFCURVE",
"654 1098 CURVE SMOOTH",
"365 1098 OFFCURVE",
"100 902 OFFCURVE",
"100 598 CURVE SMOOTH",
"100 402 OFFCURVE",
"229 216 OFFCURVE",
"439 216 CURVE SMOOTH"
);
},
{
closed = 1;
nodes = (
"364 416 OFFCURVE",
"306 478 OFFCURVE",
"303 553 CURVE SMOOTH",
"301 622 OFFCURVE",
"357 677 OFFCURVE",
"428 677 CURVE SMOOTH",
"502 677 OFFCURVE",
"557 608 OFFCURVE",
"557 539 CURVE SMOOTH",
"557 475 OFFCURVE",
"504 416 OFFCURVE",
"437 416 CURVE SMOOTH"
);
}
);
};
components = (
{
name = _part.ee1;
transform = "{1, 0, 0, 1, 32, 10}";
}
);
layerId = "6CB67BB4-1561-4377-8865-B188364DD954";
paths = (
{
closed = 1;
nodes = (
"1225 -449 OFFCURVE",
"1283 -439 OFFCURVE",
"1325 -409 CURVE",
"1325 -229 LINE",
"1283 -259 OFFCURVE",
"1225 -269 OFFCURVE",
"1166 -269 CURVE",
"1166 -449 LINE"
);
},
{
closed = 1;
nodes = (
"75 -296 OFFCURVE",
"182 -449 OFFCURVE",
"380 -449 CURVE SMOOTH",
"537 -449 OFFCURVE",
"1008 -449 OFFCURVE",
"1166 -449 CURVE",
"1166 -269 LINE",
"378 -269 LINE SMOOTH",
"310 -269 OFFCURVE",
"255 -213 OFFCURVE",
"255 -145 CURVE SMOOTH",
"255 -66 OFFCURVE",
"311 -18 OFFCURVE",
"380 -18 CURVE SMOOTH",
"820 -18 LINE",
"957 132 LINE",
"616 132 OFFCURVE",
"384 132 OFFCURVE",
"380 132 CURVE SMOOTH",
"182 132 OFFCURVE",
"75 -13 OFFCURVE",
"75 -145 CURVE SMOOTH"
);
},
{
closed = 1;
nodes = (
"448 289 LINE",
"173 289 OFFCURVE",
"146 676 OFFCURVE",
"263 783 CURVE SMOOTH",
"371 881 OFFCURVE",
"473 935 OFFCURVE",
"710 935 CURVE SMOOTH",
"947 935 OFFCURVE",
"1125 741 OFFCURVE",
"1125 538 CURVE SMOOTH",
"1125 218 OFFCURVE",
"940 132 OFFCURVE",
"778 132 CURVE",
"820 -18 LINE",
"1159 -18 OFFCURVE",
"1305 238 OFFCURVE",
"1305 538 CURVE SMOOTH",
"1305 852 OFFCURVE",
"1042 1095 OFFCURVE",
"710 1095 CURVE SMOOTH",
"340 1095 OFFCURVE",
"93 908 OFFCURVE",
"93 575 CURVE SMOOTH",
"93 347 OFFCURVE",
"212 195 OFFCURVE",
"447 210 CURVE"
);
}
);
width = 1400;
}
);
note = ml_u;
unicode = 0D09;
},
{
color = 6;
glyphname = ml_uu;
lastChange = "2020-07-17 13:41:59 +0000";
layers = (
{
background = {
paths = (
{
closed = 1;
nodes = (
"2025 650 LINE SMOOTH",
"2028 812 OFFCURVE",
"2093 918 OFFCURVE",
"2228 918 CURVE SMOOTH",
"2357 918 OFFCURVE",
"2451 788 OFFCURVE",
"2451 643 CURVE SMOOTH",
"2451 381 OFFCURVE",
"2204 169 OFFCURVE",
"1938 169 CURVE SMOOTH",
"1851 169 OFFCURVE",
"1764 187 OFFCURVE",
"1690 222 CURVE SMOOTH",
"1677 228 OFFCURVE",
"1665 231 OFFCURVE",
"1652 231 CURVE SMOOTH",
"1602 231 OFFCURVE",
"1563 187 OFFCURVE",
"1563 134 CURVE SMOOTH",
"1563 94 OFFCURVE",
"1588 60 OFFCURVE",
"1617 47 CURVE SMOOTH",
"1715 0 OFFCURVE",
"1827 -25 OFFCURVE",
"1936 -25 CURVE SMOOTH",
"2291 -25 OFFCURVE",
"2630 256 OFFCURVE",
"2630 641 CURVE SMOOTH",
"2630 879 OFFCURVE",
"2461 1114 OFFCURVE",
"2233 1114 CURVE SMOOTH",
"2110 1114 OFFCURVE",
"2003 1053 OFFCURVE",
"1944 964 CURVE",
"1890 1053 OFFCURVE",
"1785 1116 OFFCURVE",
"1665 1116 CURVE SMOOTH",
"1458 1116 OFFCURVE",
"1307 933 OFFCURVE",
"1307 721 CURVE SMOOTH",
"1307 660 OFFCURVE",
"1320 601 OFFCURVE",
"1351 542 CURVE SMOOTH",
"1364 513 OFFCURVE",
"1393 490 OFFCURVE",
"1432 490 CURVE SMOOTH",
"1483 490 OFFCURVE",
"1519 537 OFFCURVE",
"1519 585 CURVE SMOOTH",
"1519 600 OFFCURVE",
"1515 616 OFFCURVE",
"1508 630 CURVE SMOOTH",
"1493 660 OFFCURVE",
"1485 689 OFFCURVE",
"1485 718 CURVE SMOOTH",
"1485 828 OFFCURVE",
"1563 922 OFFCURVE",
"1665 922 CURVE SMOOTH",
"1774 922 OFFCURVE",
"1846 826 OFFCURVE",
"1848 712 CURVE SMOOTH",
"1848 667 LINE SMOOTH",
"1848 618 OFFCURVE",
"1884 570 OFFCURVE",
"1936 570 CURVE SMOOTH",
"1976 570 OFFCURVE",
"2017 598 OFFCURVE",
"2025 645 CURVE"
);
},
{
closed = 1;
nodes = (
"597 216 OFFCURVE",
"739 368 OFFCURVE",
"739 542 CURVE SMOOTH",
"739 702 OFFCURVE",
"628 834 OFFCURVE",
"481 868 CURVE",
"530 888 OFFCURVE",
"584 898 OFFCURVE",
"639 898 CURVE SMOOTH",
"876 898 OFFCURVE",
"1080 718 OFFCURVE",
"1080 484 CURVE SMOOTH",
"1080 257 OFFCURVE",
"911 171 OFFCURVE",
"681 171 CURVE SMOOTH",
"669 171 OFFCURVE",
"657 172 OFFCURVE",
"645 172 CURVE SMOOTH",
"540 174 LINE SMOOTH",
"519 174 OFFCURVE",
"497 175 OFFCURVE",
"473 175 CURVE SMOOTH",
"281 175 OFFCURVE",
"75 90 OFFCURVE",
"75 -110 CURVE SMOOTH",
"75 -320 OFFCURVE",
"281 -385 OFFCURVE",
"483 -385 CURVE SMOOTH",
"516 -385 LINE",
"1207 -387 LINE",
"1209 -387 LINE SMOOTH",
"1264 -387 OFFCURVE",
"1309 -342 OFFCURVE",
"1309 -287 CURVE SMOOTH",
"1309 -232 OFFCURVE",
"1264 -187 OFFCURVE",
"1209 -187 CURVE SMOOTH",
"1208 -187 LINE",
"517 -185 LINE SMOOTH",
"427 -185 OFFCURVE",
"275 -188 OFFCURVE",
"275 -112 CURVE SMOOTH",
"275 -35 OFFCURVE",
"400 -26 OFFCURVE",
"487 -26 CURVE SMOOTH",
"536 -26 LINE",
"641 -28 LINE SMOOTH",
"660 -28 OFFCURVE",
"680 -29 OFFCURVE",
"700 -29 CURVE SMOOTH",
"1035 -29 OFFCURVE",
"1282 156 OFFCURVE",
"1282 487 CURVE SMOOTH",
"1282 834 OFFCURVE",
"983 1098 OFFCURVE",
"636 1098 CURVE SMOOTH",
"347 1098 OFFCURVE",
"82 902 OFFCURVE",
"82 598 CURVE SMOOTH",
"82 402 OFFCURVE",
"211 216 OFFCURVE",
"421 216 CURVE SMOOTH"
);
},
{
closed = 1;
nodes = (
"346 416 OFFCURVE",
"288 478 OFFCURVE",
"285 553 CURVE SMOOTH",
"283 622 OFFCURVE",
"339 677 OFFCURVE",
"410 677 CURVE SMOOTH",
"484 677 OFFCURVE",
"539 608 OFFCURVE",
"539 539 CURVE SMOOTH",
"539 475 OFFCURVE",
"486 416 OFFCURVE",
"419 416 CURVE SMOOTH"
);
}
);
};
components = (
{
name = ml_u;
},
{
name = _part.au2;
transform = "{1, 0, 0, 1, 1269, 0}";
}
);
layerId = "6CB67BB4-1561-4377-8865-B188364DD954";
width = 2765;
}
);
note = ml_uu;
unicode = 0D0A;
},
{
color = 6;
glyphname = ml_r;
lastChange = "2020-07-17 13:56:34 +0000";
layers = (
{
background = {
paths = (
{
closed = 1;
nodes = (
"271 206 OFFCURVE",
"167 90 OFFCURVE",
"167 -72 CURVE SMOOTH",
"167 -432 OFFCURVE",
"549 -497 OFFCURVE",
"902 -497 CURVE SMOOTH",
"1254 -497 OFFCURVE",
"1631 -435 OFFCURVE",
"1631 -77 CURVE SMOOTH",
"1631 89 OFFCURVE",
"1517 211 OFFCURVE",
"1398 270 CURVE",
"1533 355 OFFCURVE",
"1665 505 OFFCURVE",
"1665 716 CURVE SMOOTH",
"1665 906 OFFCURVE",
"1545 1093 OFFCURVE",
"1335 1093 CURVE SMOOTH",
"1160 1093 OFFCURVE",
"1031 952 OFFCURVE",
"1031 783 CURVE SMOOTH",
"1031 608 OFFCURVE",
"1163 476 OFFCURVE",
"1335 470 CURVE",
"1220 376 OFFCURVE",
"1085 340 OFFCURVE",
"901 340 CURVE SMOOTH",
"728 340 OFFCURVE",
"536 387 OFFCURVE",
"436 480 CURVE",
"445 479 OFFCURVE",
"453 479 OFFCURVE",
"461 479 CURVE SMOOTH",
"635 479 OFFCURVE",
"772 617 OFFCURVE",
"772 790 CURVE SMOOTH",
"772 955 OFFCURVE",
"636 1094 OFFCURVE",
"463 1094 CURVE SMOOTH",
"254 1094 OFFCURVE",
"126 902 OFFCURVE",
"126 712 CURVE SMOOTH",
"126 508 OFFCURVE",
"253 353 OFFCURVE",
"385 267 CURVE"
);
},
{
closed = 1;
nodes = (
"398 678 OFFCURVE",
"348 729 OFFCURVE",
"348 790 CURVE SMOOTH",
"348 850 OFFCURVE",
"410 894 OFFCURVE",
"467 894 CURVE SMOOTH",
"525 894 OFFCURVE",
"572 847 OFFCURVE",
"572 790 CURVE SMOOTH",
"572 728 OFFCURVE",
"520 678 OFFCURVE",
"458 678 CURVE SMOOTH"
);
},
{
closed = 1;
nodes = (
"1231 842 OFFCURVE",
"1276 893 OFFCURVE",
"1340 893 CURVE SMOOTH",
"1406 893 OFFCURVE",
"1447 839 OFFCURVE",
"1460 782 CURVE",
"1453 726 OFFCURVE",
"1407 670 OFFCURVE",
"1345 670 CURVE SMOOTH",
"1281 670 OFFCURVE",
"1231 721 OFFCURVE",
"1231 783 CURVE SMOOTH"
);
},
{
closed = 1;
nodes = (
"670 -324 OFFCURVE",
"367 -290 OFFCURVE",
"367 -71 CURVE SMOOTH",
"367 103 OFFCURVE",
"719 178 OFFCURVE",
"901 178 CURVE SMOOTH",
"1162 178 OFFCURVE",
"1431 175 OFFCURVE",
"1431 -77 CURVE SMOOTH",
"1431 -298 OFFCURVE",
"1124 -324 OFFCURVE",
"897 -324 CURVE SMOOTH"
);
}
);
};
components = (
{
name = _part.ee1;
transform = "{1, 0, 0, 1, 966, 269}";
},
{
name = _part.ee1;
transform = "{-1, 0, 0, 1, 839, 269}";
}
);
layerId = "6CB67BB4-1561-4377-8865-B188364DD954";
paths = (
{
closed = 1;
nodes = (
"1180 322 LINE",
"1405 264 OFFCURVE",
"1531 141 OFFCURVE",
"1531 -2 CURVE SMOOTH",
"1531 -169 OFFCURVE",
"1262 -309 OFFCURVE",
"904 -309 CURVE SMOOTH",
"544 -309 OFFCURVE",
"265 -169 OFFCURVE",
"265 -2 CURVE SMOOTH",
"265 136 OFFCURVE",
"388 255 OFFCURVE",
"614 316 CURVE",
"485 404 LINE",
"257 310 OFFCURVE",
"85 186 OFFCURVE",
"85 -2 CURVE SMOOTH",
"85 -271 OFFCURVE",
"461 -469 OFFCURVE",
"904 -469 CURVE SMOOTH",
"1346 -469 OFFCURVE",
"1711 -271 OFFCURVE",
"1711 -2 CURVE SMOOTH",
"1711 181 OFFCURVE",
"1557 302 OFFCURVE",
"1338 397 CURVE"
);
},
{
closed = 1;
nodes = (
"1506 820 OFFCURVE",
"1506 751 CURVE SMOOTH",
"1506 551 OFFCURVE",
"1240 351 OFFCURVE",
"904 351 CURVE SMOOTH",
"567 351 OFFCURVE",
"299 550 OFFCURVE",
"299 750 CURVE SMOOTH",
"299 885 OFFCURVE",
"155 928 OFFCURVE",
"155 792 CURVE SMOOTH",
"155 489 OFFCURVE",
"489 201 OFFCURVE",
"904 201 CURVE SMOOTH",
"1318 201 OFFCURVE",
"1650 473 OFFCURVE",
"1650 776 CURVE SMOOTH",
"1650 815 OFFCURVE"
);
}
);
width = 1776;
}
);
note = ml_r;
unicode = 0D0B;
},
{
color = 6;
glyphname = ml_l;
lastChange = "2020-07-13 18:41:06 +0000";
layers = (
{
background = {
paths = (
{
closed = 1;
nodes = (
"961 997 OFFCURVE",
"821 1088 OFFCURVE",
"642 1088 CURVE SMOOTH",
"320 1088 OFFCURVE",
"75 800 OFFCURVE",
"75 480 CURVE SMOOTH",
"75 219 OFFCURVE",
"234 -19 OFFCURVE",
"503 -19 CURVE SMOOTH",
"711 -19 OFFCURVE",
"866 137 OFFCURVE",
"866 346 CURVE SMOOTH",
"866 561 OFFCURVE",
"700 720 OFFCURVE",
"491 720 CURVE SMOOTH",
"432 720 OFFCURVE",
"375 706 OFFCURVE",
"322 680 CURVE",
"378 792 OFFCURVE",
"504 888 OFFCURVE",
"643 888 CURVE SMOOTH",
"870 888 OFFCURVE",
"937 742 OFFCURVE",
"937 509 CURVE SMOOTH",
"936 81 LINE SMOOTH",
"937 26 OFFCURVE",
"981 -18 OFFCURVE",
"1036 -18 CURVE SMOOTH",
"1090 -18 OFFCURVE",
"1135 26 OFFCURVE",
"1136 80 CURVE SMOOTH",
"1139 508 LINE SMOOTH",
"1141 744 OFFCURVE",
"1213 890 OFFCURVE",
"1443 890 CURVE SMOOTH",
"1584 890 OFFCURVE",
"1711 795 OFFCURVE",
"1770 683 CURVE",
"1719 708 OFFCURVE",
"1663 721 OFFCURVE",
"1606 721 CURVE SMOOTH",
"1398 721 OFFCURVE",
"1231 563 OFFCURVE",
"1231 348 CURVE SMOOTH",
"1231 140 OFFCURVE",
"1386 -17 OFFCURVE",
"1594 -17 CURVE SMOOTH",
"1862 -17 OFFCURVE",
"2021 218 OFFCURVE",
"2021 479 CURVE SMOOTH",
"2021 802 OFFCURVE",
"1770 1090 OFFCURVE",
"1444 1090 CURVE SMOOTH",
"1262 1090 OFFCURVE",
"1120 998 OFFCURVE",
"1040 884 CURVE"
);
},
{
closed = 1;
nodes = (
"1431 446 OFFCURVE",
"1510 521 OFFCURVE",
"1605 521 CURVE SMOOTH",
"1706 521 OFFCURVE",
"1781 447 OFFCURVE",
"1781 347 CURVE SMOOTH",
"1781 249 OFFCURVE",
"1686 183 OFFCURVE",
"1593 183 CURVE SMOOTH",
"1500 183 OFFCURVE",
"1431 254 OFFCURVE",
"1431 348 CURVE SMOOTH"
);
},
{
closed = 1;
nodes = (
"666 253 OFFCURVE",
"597 181 OFFCURVE",
"504 181 CURVE SMOOTH",
"411 181 OFFCURVE",
"315 247 OFFCURVE",
"315 345 CURVE SMOOTH",
"315 446 OFFCURVE",
"391 520 OFFCURVE",
"492 520 CURVE SMOOTH",
"588 520 OFFCURVE",
"666 445 OFFCURVE",
"666 347 CURVE SMOOTH"
);
}
);
};
components = (
{
name = _part.big_ra_circle;
transform = "{0.90909, 0, 0, 0.90909, 889, -1}";
},
{
name = _part.big_ra_circle;
transform = "{-0.90909, 0, 0, 0.90909, 1170, -1}";
}
);
layerId = "6CB67BB4-1561-4377-8865-B188364DD954";
paths = (
{
closed = 1;
nodes = (
"1114 722 LINE",
"1114 901 OFFCURVE",
"877 1096 OFFCURVE",
"610 1096 CURVE SMOOTH",
"282 1096 OFFCURVE",
"75 843 OFFCURVE",
"75 515 CURVE SMOOTH",
"75 310 OFFCURVE",
"121 132 OFFCURVE",
"307 19 CURVE",
"479 1 LINE",
"293 128 OFFCURVE",
"205 254 OFFCURVE",
"205 515 CURVE SMOOTH",
"205 742 OFFCURVE",
"388 936 OFFCURVE",
"610 936 CURVE SMOOTH",
"777 936 OFFCURVE",
"952 831 OFFCURVE",
"952 684 CURVE"
);
},
{
closed = 1;
nodes = (
"1111 634 LINE",
"1111 807 OFFCURVE",
"1265 929 OFFCURVE",
"1454 929 CURVE SMOOTH",
"1676 929 OFFCURVE",
"1849 734 OFFCURVE",
"1849 507 CURVE SMOOTH",
"1849 169 OFFCURVE",
"1751 120 OFFCURVE",
"1565 -7 CURVE",
"1717 0 LINE",
"1910 87 OFFCURVE",
"1969 287 OFFCURVE",
"1969 507 CURVE SMOOTH",
"1969 835 OFFCURVE",
"1782 1089 OFFCURVE",
"1454 1089 CURVE SMOOTH",
"1156 1089 OFFCURVE",
"952 912 OFFCURVE",
"952 642 CURVE"
);
},
{
closed = 1;
nodes = (
"1152 0 LINE",
"1122 50 OFFCURVE",
"1112 120 OFFCURVE",
"1112 190 CURVE",
"1112 759 LINE",
"952 684 LINE",
"952 190 LINE",
"952 120 OFFCURVE",
"962 50 OFFCURVE",
"992 0 CURVE"
);
}
);
width = 2044;
}
);
note = ml_l;
unicode = 0D0C;
},
{
color = 6;
glyphname = ml_e;
lastChange = "2020-07-17 13:41:38 +0000";
layers = (
{
background = {
paths = (
{
closed = 1;
nodes = (
"609 546 OFFCURVE",
"696 463 OFFCURVE",
"696 356 CURVE SMOOTH",
"696 275 OFFCURVE",
"637 211 OFFCURVE",
"573 185 CURVE SMOOTH",
"537 169 OFFCURVE",
"519 135 OFFCURVE",
"519 94 CURVE SMOOTH",
"519 45 OFFCURVE",
"566 4 OFFCURVE",
"614 4 CURVE SMOOTH",
"1021 4 LINE",
"1034 -235 OFFCURVE",
"1142 -457 OFFCURVE",
"1388 -457 CURVE SMOOTH",
"1630 -457 OFFCURVE",
"1725 -245 OFFCURVE",
"1727 8 CURVE SMOOTH",
"1732 680 LINE SMOOTH",
"1732 738 OFFCURVE",
"1689 776 OFFCURVE",
"1637 776 CURVE SMOOTH",
"1585 776 OFFCURVE",
"1542 732 OFFCURVE",
"1542 681 CURVE SMOOTH",
"1539 188 LINE",
"1209 191 LINE",
"1209 307 LINE SMOOTH",
"1209 626 OFFCURVE",
"1298 904 OFFCURVE",
"1590 904 CURVE SMOOTH",
"1868 904 OFFCURVE",
"2029 608 OFFCURVE",
"2029 308 CURVE SMOOTH",
"2029 63 OFFCURVE",
"1912 -158 OFFCURVE",
"1779 -291 CURVE SMOOTH",
"1760 -310 OFFCURVE",
"1751 -333 OFFCURVE",
"1751 -359 CURVE SMOOTH",
"1751 -411 OFFCURVE",
"1794 -454 OFFCURVE",
"1846 -454 CURVE SMOOTH",
"1872 -454 OFFCURVE",
"1895 -445 OFFCURVE",
"1914 -426 CURVE SMOOTH",
"2081 -260 OFFCURVE",
"2217 1 OFFCURVE",
"2217 310 CURVE SMOOTH",
"2217 710 OFFCURVE",
"1967 1094 OFFCURVE",
"1581 1094 CURVE SMOOTH",
"1167 1094 OFFCURVE",
"1020 704 OFFCURVE",
"1020 308 CURVE SMOOTH",
"1019 194 LINE",
"843 191 LINE",
"871 245 OFFCURVE",
"886 304 OFFCURVE",
"886 360 CURVE SMOOTH",
"886 560 OFFCURVE",
"717 737 OFFCURVE",
"500 737 CURVE SMOOTH",
"283 737 OFFCURVE",
"111 569 OFFCURVE",
"111 357 CURVE SMOOTH",
"111 185 OFFCURVE",
"229 51 OFFCURVE",
"367 3 CURVE SMOOTH",
"379 -2 OFFCURVE",
"395 -3 OFFCURVE",
"409 -3 CURVE SMOOTH",
"455 -3 OFFCURVE",
"496 43 OFFCURVE",
"496 87 CURVE SMOOTH",
"496 131 OFFCURVE",
"467 169 OFFCURVE",
"432 181 CURVE SMOOTH",
"362 205 OFFCURVE",
"300 272 OFFCURVE",
"300 357 CURVE SMOOTH",
"300 456 OFFCURVE",
"389 546 OFFCURVE",
"500 546 CURVE SMOOTH"
);
},
{
closed = 1;
nodes = (
"1537 -2 LINE",
"1531 -159 OFFCURVE",
"1495 -267 OFFCURVE",
"1382 -267 CURVE SMOOTH",
"1271 -267 OFFCURVE",
"1223 -155 OFFCURVE",
"1211 2 CURVE"
);
}
);
};
components = (
{
name = _part_ra;
transform = "{1, 0, 0, 1, 30, 0}";
}
);
hints = (
{
horizontal = 1;
origin = "{3, 12}";
target = down;
type = TopGhost;
}
);
layerId = "6CB67BB4-1561-4377-8865-B188364DD954";
paths = (
{
closed = 1;
nodes = (
"1640 0 LINE",
"1620 150 LINE",
"646 150 LINE",
"646 0 LINE"
);
},
{
closed = 1;
nodes = (
"1455 730 OFFCURVE",
"1465 672 OFFCURVE",
"1465 613 CURVE SMOOTH",
"1465 190 LINE SMOOTH",
"1465 120 OFFCURVE",
"1475 50 OFFCURVE",
"1505 0 CURVE",
"1665 0 LINE",
"1635 50 OFFCURVE",
"1625 120 OFFCURVE",
"1625 190 CURVE SMOOTH",
"1625 613 LINE SMOOTH",
"1625 672 OFFCURVE",
"1615 730 OFFCURVE",
"1585 772 CURVE",
"1425 772 LINE"
);
},
{
closed = 1;
nodes = (
"995 -299 OFFCURVE",
"1095 -450 OFFCURVE",
"1320 -450 CURVE SMOOTH",
"1526 -450 OFFCURVE",
"1623 -300 OFFCURVE",
"1630 31 CURVE",
"1480 31 LINE",
"1480 -196 OFFCURVE",
"1430 -300 OFFCURVE",
"1320 -300 CURVE",
"1212 -300 OFFCURVE",
"1162 -196 OFFCURVE",
"1162 31 CURVE",
"1002 31 LINE"
);
},
{
closed = 1;
nodes = (
"1002 31 LINE",
"1162 31 LINE",
"1152 519 LINE",
"1155 821 OFFCURVE",
"1343 976 OFFCURVE",
"1607 976 CURVE SMOOTH",
"1893 976 OFFCURVE",
"2058 674 OFFCURVE",
"2058 384 CURVE SMOOTH",
"2058 -33 OFFCURVE",
"1860 -286 OFFCURVE",
"1722 -449 CURVE",
"1834 -449 LINE",
"1979 -410 OFFCURVE",
"2238 -108 OFFCURVE",
"2238 384 CURVE SMOOTH",
"2238 768 OFFCURVE",
"2007 1136 OFFCURVE",
"1607 1136 CURVE SMOOTH",
"1242 1136 OFFCURVE",
"992 922 OFFCURVE",
"992 521 CURVE SMOOTH",
"992 520 LINE"
);
}
);
width = 2313;
}
);
note = ml_e;
unicode = 0D0E;
},
{
color = 6;
glyphname = ml_ee;
lastChange = "2020-07-17 11:10:40 +0000";
layers = (
{
background = {
paths = (
{
closed = 1;
nodes = (
"1640 0 LINE",
"1640 150 LINE",
"626 150 LINE",
"626 0 LINE"
);
},
{
closed = 1;
nodes = (
"1455 730 OFFCURVE",
"1465 672 OFFCURVE",
"1465 613 CURVE SMOOTH",
"1465 190 LINE SMOOTH",
"1465 120 OFFCURVE",
"1475 50 OFFCURVE",
"1505 0 CURVE",
"1705 0 LINE",
"1675 50 OFFCURVE",
"1665 120 OFFCURVE",
"1665 190 CURVE SMOOTH",
"1665 613 LINE SMOOTH",
"1665 672 OFFCURVE",
"1655 730 OFFCURVE",
"1625 772 CURVE",
"1425 772 LINE"
);
},
{
closed = 1;
nodes = (
"1012 31 LINE",
"1172 31 LINE",
"1152 521 LINE",
"992 521 LINE"
);
},
{
closed = 1;
nodes = (
"2158 60 LINE",
"2158 61 OFFCURVE",
"2158 513 OFFCURVE",
"2158 514 CURVE SMOOTH",
"2158 842 OFFCURVE",
"1914 1096 OFFCURVE",
"1567 1096 CURVE SMOOTH",
"1239 1096 OFFCURVE",
"992 842 OFFCURVE",
"992 514 CURVE SMOOTH",
"992 294 OFFCURVE",
"1152 253 OFFCURVE",
"1152 514 CURVE SMOOTH",
"1152 741 OFFCURVE",
"1345 936 OFFCURVE",
"1567 936 CURVE SMOOTH",
"1799 936 OFFCURVE",
"1958 751 OFFCURVE",
"1958 514 CURVE SMOOTH",
"1958 513 OFFCURVE",
"1958 61 OFFCURVE",
"1958 60 CURVE"
);
},
{
closed = 1;
nodes = (
"2158 67 OFFCURVE",
"1958 64 OFFCURVE",
"1958 64 CURVE SMOOTH",
"1958 -126 OFFCURVE",
"1841 -328 OFFCURVE",
"1722 -447 CURVE SMOOTH",
"1721 -448 OFFCURVE",
"1700 -449 OFFCURVE",
"1698 -450 CURVE",
"1834 -450 LINE",
"1963 -420 OFFCURVE",
"2158 -182 OFFCURVE",
"2158 64 CURVE SMOOTH"
);
},
{
closed = 1;
nodes = (
"997 -212 OFFCURVE",
"1050 -450 OFFCURVE",
"1325 -450 CURVE SMOOTH",
"1600 -450 OFFCURVE",
"1635 -212 OFFCURVE",
"1640 31 CURVE",
"1490 31 LINE",
"1490 -95 OFFCURVE",
"1480 -300 OFFCURVE",
"1325 -300 CURVE",
"1170 -300 OFFCURVE",
"1152 -95 OFFCURVE",
"1152 31 CURVE",
"1002 31 LINE"
);
}
);
};
components = (
{
name = _part_ra;
transform = "{1, 0, 0, 1, 30, 0}";
}
);
layerId = "6CB67BB4-1561-4377-8865-B188364DD954";
paths = (
{
closed = 1;
nodes = (
"1640 0 LINE",
"1620 150 LINE",
"646 150 LINE",
"646 0 LINE"
);
},
{
closed = 1;
nodes = (
"1455 730 OFFCURVE",
"1465 672 OFFCURVE",
"1465 613 CURVE SMOOTH",
"1465 190 LINE SMOOTH",
"1465 120 OFFCURVE",
"1475 50 OFFCURVE",
"1505 0 CURVE",
"1665 0 LINE",
"1635 50 OFFCURVE",
"1625 120 OFFCURVE",
"1625 190 CURVE SMOOTH",
"1625 613 LINE SMOOTH",
"1625 672 OFFCURVE",
"1615 730 OFFCURVE",
"1585 772 CURVE",
"1425 772 LINE"
);
},
{
closed = 1;
nodes = (
"1840 976 OFFCURVE",
"2037 822 OFFCURVE",
"2037 593 CURVE SMOOTH",
"2037 449 OFFCURVE",
"1984 329 OFFCURVE",
"1897 329 CURVE SMOOTH",
"1838 329 OFFCURVE",
"1780 319 OFFCURVE",
"1738 289 CURVE",
"1738 129 LINE",
"1779 158 OFFCURVE",
"1835 168 OFFCURVE",
"1892 169 CURVE SMOOTH",
"1986 171 OFFCURVE",
"2041 126 OFFCURVE",
"2041 -65 CURVE SMOOTH",
"2041 -243 OFFCURVE",
"1919 -329 OFFCURVE",
"1776 -371 CURVE",
"1775 -451 LINE",
"1940 -451 OFFCURVE",
"2221 -389 OFFCURVE",
"2221 -62 CURVE SMOOTH",
"2221 84 OFFCURVE",
"2171 161 OFFCURVE",
"2101 254 CURVE",
"2178 338 OFFCURVE",
"2217 413 OFFCURVE",
"2217 593 CURVE SMOOTH",
"2217 899 OFFCURVE",
"1970 1136 OFFCURVE",
"1607 1136 CURVE SMOOTH",
"1242 1136 OFFCURVE",
"992 922 OFFCURVE",
"992 521 CURVE SMOOTH",
"992 520 LINE",
"1002 31 LINE",
"1162 31 LINE",
"1152 519 LINE",
"1155 821 OFFCURVE",
"1343 976 OFFCURVE",
"1607 976 CURVE SMOOTH"
);
},
{
closed = 1;
nodes = (
"995 -299 OFFCURVE",
"1095 -450 OFFCURVE",
"1320 -450 CURVE SMOOTH",
"1526 -450 OFFCURVE",
"1623 -300 OFFCURVE",
"1630 31 CURVE",
"1480 31 LINE",
"1480 -196 OFFCURVE",
"1430 -300 OFFCURVE",
"1320 -300 CURVE",
"1212 -300 OFFCURVE",
"1162 -196 OFFCURVE",
"1162 31 CURVE",
"1002 31 LINE"
);
}
);
width = 2296;
}
);
note = ml_ee;
unicode = 0D0F;
},
{
color = 6;
glyphname = ml_ai;
lastChange = "2020-06-16 09:50:20 +0000";
layers = (
{
background = {
paths = (
{
closed = 1;
nodes = (
"653 586 OFFCURVE",
"476 765 OFFCURVE",
"264 765 CURVE SMOOTH",
"228 765 OFFCURVE",
"187 760 OFFCURVE",
"125 722 CURVE",
"199 854 OFFCURVE",
"340 905 OFFCURVE",
"473 905 CURVE SMOOTH",
"710 905 OFFCURVE",
"901 702 OFFCURVE",
"901 460 CURVE SMOOTH",
"901 338 OFFCURVE",
"850 225 OFFCURVE",
"775 149 CURVE SMOOTH",
"758 133 OFFCURVE",
"745 99 OFFCURVE",
"745 76 CURVE SMOOTH",
"745 20 OFFCURVE",
"790 -26 OFFCURVE",
"845 -26 CURVE SMOOTH",
"868 -26 OFFCURVE",
"901 -13 OFFCURVE",
"917 4 CURVE SMOOTH",
"1030 119 OFFCURVE",
"1102 263 OFFCURVE",
"1102 461 CURVE SMOOTH",
"1102 814 OFFCURVE",
"816 1107 OFFCURVE",
"476 1107 CURVE SMOOTH",
"136 1107 OFFCURVE",
"-156 821 OFFCURVE",
"-156 464 CURVE SMOOTH",
"-156 211 OFFCURVE",
"12 -22 OFFCURVE",
"270 -22 CURVE SMOOTH",
"478 -22 OFFCURVE",
"653 151 OFFCURVE",
"653 367 CURVE SMOOTH"
);
},
{
closed = 1;
nodes = (
"1673 546 OFFCURVE",
"1760 463 OFFCURVE",
"1760 356 CURVE SMOOTH",
"1760 275 OFFCURVE",
"1701 211 OFFCURVE",
"1637 185 CURVE SMOOTH",
"1601 169 OFFCURVE",
"1583 135 OFFCURVE",
"1583 94 CURVE SMOOTH",
"1583 45 OFFCURVE",
"1630 4 OFFCURVE",
"1678 4 CURVE SMOOTH",
"2085 4 LINE",
"2098 -235 OFFCURVE",
"2206 -457 OFFCURVE",
"2452 -457 CURVE SMOOTH",
"2694 -457 OFFCURVE",
"2789 -245 OFFCURVE",
"2791 8 CURVE SMOOTH",
"2796 680 LINE SMOOTH",
"2796 738 OFFCURVE",
"2753 776 OFFCURVE",
"2701 776 CURVE SMOOTH",
"2649 776 OFFCURVE",
"2606 732 OFFCURVE",
"2606 681 CURVE SMOOTH",
"2603 188 LINE",
"2273 191 LINE",
"2273 307 LINE SMOOTH",
"2273 626 OFFCURVE",
"2362 904 OFFCURVE",
"2654 904 CURVE SMOOTH",
"2932 904 OFFCURVE",
"3093 608 OFFCURVE",
"3093 308 CURVE SMOOTH",
"3093 63 OFFCURVE",
"2976 -158 OFFCURVE",
"2843 -291 CURVE SMOOTH",
"2824 -310 OFFCURVE",
"2815 -333 OFFCURVE",
"2815 -359 CURVE SMOOTH",
"2815 -411 OFFCURVE",
"2858 -454 OFFCURVE",
"2910 -454 CURVE SMOOTH",
"2936 -454 OFFCURVE",
"2959 -445 OFFCURVE",
"2978 -426 CURVE SMOOTH",
"3145 -260 OFFCURVE",
"3281 1 OFFCURVE",
"3281 310 CURVE SMOOTH",
"3281 710 OFFCURVE",
"3031 1094 OFFCURVE",
"2645 1094 CURVE SMOOTH",
"2231 1094 OFFCURVE",
"2084 704 OFFCURVE",
"2084 308 CURVE SMOOTH",
"2083 194 LINE",
"1907 191 LINE",
"1935 245 OFFCURVE",
"1950 304 OFFCURVE",
"1950 360 CURVE SMOOTH",
"1950 560 OFFCURVE",
"1781 737 OFFCURVE",
"1564 737 CURVE SMOOTH",
"1347 737 OFFCURVE",
"1175 569 OFFCURVE",
"1175 357 CURVE SMOOTH",
"1175 185 OFFCURVE",
"1293 51 OFFCURVE",
"1431 3 CURVE SMOOTH",
"1443 -2 OFFCURVE",
"1459 -3 OFFCURVE",
"1473 -3 CURVE SMOOTH",
"1519 -3 OFFCURVE",
"1560 43 OFFCURVE",
"1560 87 CURVE SMOOTH",
"1560 131 OFFCURVE",
"1531 169 OFFCURVE",
"1496 181 CURVE SMOOTH",
"1426 205 OFFCURVE",
"1364 272 OFFCURVE",
"1364 357 CURVE SMOOTH",
"1364 456 OFFCURVE",
"1453 546 OFFCURVE",
"1564 546 CURVE SMOOTH"
);
},
{
closed = 1;
nodes = (
"453 264 OFFCURVE",
"370 181 OFFCURVE",
"270 181 CURVE SMOOTH",
"177 181 OFFCURVE",
"68 261 OFFCURVE",
"68 359 CURVE SMOOTH",
"68 474 OFFCURVE",
"158 559 OFFCURVE",
"263 559 CURVE SMOOTH",
"365 559 OFFCURVE",
"453 473 OFFCURVE",
"453 367 CURVE SMOOTH"
);
},
{
closed = 1;
nodes = (
"2601 -2 LINE",
"2595 -159 OFFCURVE",
"2559 -267 OFFCURVE",
"2446 -267 CURVE SMOOTH",
"2335 -267 OFFCURVE",
"2287 -155 OFFCURVE",
"2275 2 CURVE"
);
}
);
};
components = (
{
name = _part.e1;
},
{
name = ml_e;
transform = "{1, 0, 0, 1, 1190, 0}";
}
);
layerId = "6CB67BB4-1561-4377-8865-B188364DD954";
width = 3403;
}
);
note = ml_ai;
unicode = 0D10;
},
{
color = 6;
glyphname = ml_o;
lastChange = "2020-07-22 07:01:48 +0000";
layers = (
{
background = {
paths = (
{
closed = 1;
nodes = (
"327 767 OFFCURVE",
"492 891 OFFCURVE",
"706 891 CURVE SMOOTH",
"833 891 OFFCURVE",
"967 832 OFFCURVE",
"967 706 CURVE SMOOTH",
"967 641 OFFCURVE",
"923 592 OFFCURVE",
"872 577 CURVE SMOOTH",
"832 565 OFFCURVE",
"800 522 OFFCURVE",
"800 481 CURVE SMOOTH",
"800 426 OFFCURVE",
"845 381 OFFCURVE",
"900 381 CURVE SMOOTH",
"911 381 OFFCURVE",
"922 384 OFFCURVE",
"933 384 CURVE SMOOTH",
"1000 384 OFFCURVE",
"1053 331 OFFCURVE",
"1053 266 CURVE SMOOTH",
"1053 204 OFFCURVE",
"1003 149 OFFCURVE",
"934 149 CURVE SMOOTH",
"902 149 OFFCURVE",
"876 167 OFFCURVE",
"845 167 CURVE SMOOTH",
"790 167 OFFCURVE",
"745 122 OFFCURVE",
"745 67 CURVE SMOOTH",
"745 -20 OFFCURVE",
"851 -52 OFFCURVE",
"935 -52 CURVE SMOOTH",
"1118 -52 OFFCURVE",
"1253 99 OFFCURVE",
"1253 266 CURVE SMOOTH",
"1253 371 OFFCURVE",
"1198 471 OFFCURVE",
"1116 528 CURVE",
"1150 581 OFFCURVE",
"1168 642 OFFCURVE",
"1168 705 CURVE SMOOTH",
"1168 950 OFFCURVE",
"943 1091 OFFCURVE",
"708 1091 CURVE SMOOTH",
"334 1091 OFFCURVE",
"27 830 OFFCURVE",
"27 449 CURVE SMOOTH",
"27 195 OFFCURVE",
"165 -48 OFFCURVE",
"424 -48 CURVE SMOOTH",
"620 -48 OFFCURVE",
"770 102 OFFCURVE",
"770 299 CURVE SMOOTH",
"770 496 OFFCURVE",
"616 650 OFFCURVE",
"418 650 CURVE SMOOTH",
"361 650 OFFCURVE",
"309 636 OFFCURVE",
"260 612 CURVE"
);
},
{
closed = 1;
nodes = (
"502 450 OFFCURVE",
"570 384 OFFCURVE",
"570 300 CURVE SMOOTH",
"570 216 OFFCURVE",
"509 152 OFFCURVE",
"425 152 CURVE SMOOTH",
"347 152 OFFCURVE",
"266 216 OFFCURVE",
"266 297 CURVE SMOOTH",
"266 384 OFFCURVE",
"333 450 OFFCURVE",
"418 450 CURVE SMOOTH"
);
}
);
};
components = (
{
name = _part.osmall;
transform = "{1, 0, 0, 1, -48, 1}";
},
{
name = _part.o_dha_nga;
transform = "{1, 0, 0, 1, 366, 0}";
}
);
layerId = "6CB67BB4-1561-4377-8865-B188364DD954";
paths = (
{
closed = 1;
nodes = (
"744 936 OFFCURVE",
"822 936 OFFCURVE",
"855 936 CURVE SMOOTH",
"921 936 OFFCURVE",
"839 1096 OFFCURVE",
"758 1096 CURVE SMOOTH",
"727 1096 OFFCURVE",
"748 1096 OFFCURVE",
"692 1096 CURVE SMOOTH",
"322 1096 OFFCURVE",
"75 863 OFFCURVE",
"75 514 CURVE SMOOTH",
"75 294 OFFCURVE",
"93 209 OFFCURVE",
"223 61 CURVE",
"431 0 LINE",
"226 127 OFFCURVE",
"215 253 OFFCURVE",
"215 514 CURVE SMOOTH",
"215 767 OFFCURVE",
"408 936 OFFCURVE",
"698 936 CURVE SMOOTH"
);
}
);
width = 1323;
}
);
note = ml_o;
unicode = 0D12;
},
{
color = 6;
glyphname = ml_oo;
lastChange = "2020-06-16 09:50:20 +0000";
layers = (
{
background = {
paths = (
{
closed = 1;
nodes = (
"375 767 OFFCURVE",
"540 891 OFFCURVE",
"754 891 CURVE SMOOTH",
"881 891 OFFCURVE",
"1015 832 OFFCURVE",
"1015 706 CURVE SMOOTH",
"1015 641 OFFCURVE",
"971 592 OFFCURVE",
"920 577 CURVE SMOOTH",
"880 565 OFFCURVE",
"848 522 OFFCURVE",
"848 481 CURVE SMOOTH",
"848 426 OFFCURVE",
"893 381 OFFCURVE",
"948 381 CURVE SMOOTH",
"959 381 OFFCURVE",
"970 384 OFFCURVE",
"981 384 CURVE SMOOTH",
"1048 384 OFFCURVE",
"1101 331 OFFCURVE",
"1101 266 CURVE SMOOTH",
"1101 204 OFFCURVE",
"1051 149 OFFCURVE",
"982 149 CURVE SMOOTH",
"950 149 OFFCURVE",
"924 167 OFFCURVE",
"893 167 CURVE SMOOTH",
"838 167 OFFCURVE",
"793 122 OFFCURVE",
"793 67 CURVE SMOOTH",
"793 -20 OFFCURVE",
"899 -52 OFFCURVE",
"983 -52 CURVE SMOOTH",
"1166 -52 OFFCURVE",
"1301 99 OFFCURVE",
"1301 266 CURVE SMOOTH",
"1301 371 OFFCURVE",
"1246 471 OFFCURVE",
"1164 528 CURVE",
"1198 581 OFFCURVE",
"1216 642 OFFCURVE",
"1216 705 CURVE SMOOTH",
"1216 950 OFFCURVE",
"991 1091 OFFCURVE",
"756 1091 CURVE SMOOTH",
"382 1091 OFFCURVE",
"75 830 OFFCURVE",
"75 449 CURVE SMOOTH",
"75 195 OFFCURVE",
"213 -48 OFFCURVE",
"472 -48 CURVE SMOOTH",
"668 -48 OFFCURVE",
"818 102 OFFCURVE",
"818 299 CURVE SMOOTH",
"818 496 OFFCURVE",
"664 650 OFFCURVE",
"466 650 CURVE SMOOTH",
"409 650 OFFCURVE",
"357 636 OFFCURVE",
"308 612 CURVE"
);
},
{
closed = 1;
nodes = (
"1982 361 OFFCURVE",
"1893 170 OFFCURVE",
"1709 170 CURVE SMOOTH",
"1607 170 OFFCURVE",
"1526 252 OFFCURVE",
"1520 348 CURVE SMOOTH",
"1518 401 OFFCURVE",
"1473 443 OFFCURVE",
"1420 443 CURVE SMOOTH",
"1365 443 OFFCURVE",
"1320 398 OFFCURVE",
"1320 343 CURVE SMOOTH",
"1320 336 LINE SMOOTH",
"1332 136 OFFCURVE",
"1497 -30 OFFCURVE",
"1709 -30 CURVE SMOOTH",
"2015 -30 OFFCURVE",
"2182 258 OFFCURVE",
"2182 541 CURVE SMOOTH",
"2182 816 OFFCURVE",
"2013 1087 OFFCURVE",
"1721 1087 CURVE SMOOTH",
"1513 1087 OFFCURVE",
"1347 923 OFFCURVE",
"1330 729 CURVE SMOOTH",
"1330 726 OFFCURVE",
"1329 722 OFFCURVE",
"1329 719 CURVE SMOOTH",
"1329 664 OFFCURVE",
"1374 619 OFFCURVE",
"1429 619 CURVE SMOOTH",
"1480 619 OFFCURVE",
"1525 660 OFFCURVE",
"1529 711 CURVE SMOOTH",
"1537 805 OFFCURVE",
"1619 887 OFFCURVE",
"1720 887 CURVE SMOOTH",
"1893 887 OFFCURVE",
"1982 709 OFFCURVE",
"1982 540 CURVE SMOOTH"
);
},
{
closed = 1;
nodes = (
"550 450 OFFCURVE",
"618 384 OFFCURVE",
"618 300 CURVE SMOOTH",
"618 216 OFFCURVE",
"557 152 OFFCURVE",
"473 152 CURVE SMOOTH",
"395 152 OFFCURVE",
"314 216 OFFCURVE",
"314 297 CURVE SMOOTH",
"314 384 OFFCURVE",
"381 450 OFFCURVE",
"466 450 CURVE SMOOTH"
);
}
);
};
components = (
{
name = ml_o;
},
{
name = _part.neettam;
transform = "{1, 0, 0, 1, 1288, 0}";
}
);
layerId = "6CB67BB4-1561-4377-8865-B188364DD954";
width = 2101;
}
);
note = ml_oo;
unicode = 0D13;
},
{
color = 6;
glyphname = ml_au;
lastChange = "2020-06-16 09:50:20 +0000";
layers = (
{
background = {
paths = (
{
closed = 1;
nodes = (
"1974 638 LINE SMOOTH",
"1977 804 OFFCURVE",
"2039 912 OFFCURVE",
"2168 912 CURVE SMOOTH",
"2291 912 OFFCURVE",
"2381 780 OFFCURVE",
"2381 631 CURVE SMOOTH",
"2381 362 OFFCURVE",
"2145 145 OFFCURVE",
"1890 145 CURVE SMOOTH",
"1807 145 OFFCURVE",
"1723 164 OFFCURVE",
"1652 199 CURVE",
"1641 206 OFFCURVE",
"1629 209 OFFCURVE",
"1616 209 CURVE SMOOTH",
"1568 209 OFFCURVE",
"1531 164 OFFCURVE",
"1531 110 CURVE SMOOTH",
"1531 68 OFFCURVE",
"1555 34 OFFCURVE",
"1583 20 CURVE SMOOTH",
"1677 -28 OFFCURVE",
"1784 -54 OFFCURVE",
"1888 -54 CURVE SMOOTH",
"2228 -54 OFFCURVE",
"2552 234 OFFCURVE",
"2552 628 CURVE SMOOTH",
"2552 873 OFFCURVE",
"2391 1114 OFFCURVE",
"2173 1114 CURVE SMOOTH",
"2055 1114 OFFCURVE",
"1952 1051 OFFCURVE",
"1895 959 CURVE",
"1844 1051 OFFCURVE",
"1743 1116 OFFCURVE",
"1629 1116 CURVE SMOOTH",
"1431 1116 OFFCURVE",
"1286 928 OFFCURVE",
"1286 711 CURVE SMOOTH",
"1286 648 OFFCURVE",
"1298 588 OFFCURVE",
"1328 527 CURVE SMOOTH",
"1341 498 OFFCURVE",
"1368 474 OFFCURVE",
"1405 474 CURVE SMOOTH",
"1454 474 OFFCURVE",
"1489 522 OFFCURVE",
"1489 571 CURVE SMOOTH",
"1489 587 OFFCURVE",
"1486 603 OFFCURVE",
"1478 618 CURVE SMOOTH",
"1464 648 OFFCURVE",
"1457 678 OFFCURVE",
"1457 708 CURVE SMOOTH",
"1457 821 OFFCURVE",
"1531 917 OFFCURVE",
"1629 917 CURVE SMOOTH",
"1733 917 OFFCURVE",
"1802 818 OFFCURVE",
"1804 702 CURVE SMOOTH",
"1804 656 LINE SMOOTH",
"1804 605 OFFCURVE",
"1839 556 OFFCURVE",
"1888 556 CURVE SMOOTH",
"1926 556 OFFCURVE",
"1966 585 OFFCURVE",
"1974 633 CURVE"
);
},
{
closed = 1;
nodes = (
"375 767 OFFCURVE",
"540 891 OFFCURVE",
"754 891 CURVE SMOOTH",
"881 891 OFFCURVE",
"1015 832 OFFCURVE",
"1015 706 CURVE SMOOTH",
"1015 641 OFFCURVE",
"971 592 OFFCURVE",
"920 577 CURVE SMOOTH",
"880 565 OFFCURVE",
"848 522 OFFCURVE",
"848 481 CURVE SMOOTH",
"848 426 OFFCURVE",
"893 381 OFFCURVE",
"948 381 CURVE SMOOTH",
"959 381 OFFCURVE",
"970 384 OFFCURVE",
"981 384 CURVE SMOOTH",
"1048 384 OFFCURVE",
"1101 331 OFFCURVE",
"1101 266 CURVE SMOOTH",
"1101 204 OFFCURVE",
"1051 149 OFFCURVE",
"982 149 CURVE SMOOTH",
"950 149 OFFCURVE",
"924 167 OFFCURVE",
"893 167 CURVE SMOOTH",
"838 167 OFFCURVE",
"793 122 OFFCURVE",
"793 67 CURVE SMOOTH",
"793 -20 OFFCURVE",
"899 -52 OFFCURVE",
"983 -52 CURVE SMOOTH",
"1166 -52 OFFCURVE",
"1301 99 OFFCURVE",
"1301 266 CURVE SMOOTH",
"1301 371 OFFCURVE",
"1246 471 OFFCURVE",
"1164 528 CURVE",
"1198 581 OFFCURVE",
"1216 642 OFFCURVE",
"1216 705 CURVE SMOOTH",
"1216 950 OFFCURVE",
"991 1091 OFFCURVE",
"756 1091 CURVE SMOOTH",
"382 1091 OFFCURVE",
"75 830 OFFCURVE",
"75 449 CURVE SMOOTH",
"75 195 OFFCURVE",
"213 -48 OFFCURVE",
"472 -48 CURVE SMOOTH",
"668 -48 OFFCURVE",
"818 102 OFFCURVE",
"818 299 CURVE SMOOTH",
"818 496 OFFCURVE",
"664 650 OFFCURVE",
"466 650 CURVE SMOOTH",
"409 650 OFFCURVE",
"357 636 OFFCURVE",
"308 612 CURVE"
);
},
{
closed = 1;
nodes = (
"550 450 OFFCURVE",
"618 384 OFFCURVE",
"618 300 CURVE SMOOTH",
"618 216 OFFCURVE",
"557 152 OFFCURVE",
"473 152 CURVE SMOOTH",
"395 152 OFFCURVE",
"314 216 OFFCURVE",
"314 297 CURVE SMOOTH",
"314 384 OFFCURVE",
"381 450 OFFCURVE",
"466 450 CURVE SMOOTH"
);
}
);
};
components = (
{
name = ml_o;
},
{
name = _part.au2;
transform = "{1, 0, 0, 1, 1253, 0}";
}
);
layerId = "6CB67BB4-1561-4377-8865-B188364DD954";
width = 2759;
}
);
note = ml_au;
unicode = 0D14;
},
{
color = 5;
glyphname = k1;
lastChange = "2020-07-10 20:04:22 +0000";
layers = (
{
background = {
paths = (
{
closed = 1;
nodes = (
"522 -16 OFFCURVE",
"624 36 OFFCURVE",
"687 117 CURVE",
"756 46 OFFCURVE",
"865 -16 OFFCURVE",
"991 -16 CURVE SMOOTH",
"1279 -16 OFFCURVE",
"1444 248 OFFCURVE",
"1449 517 CURVE",
"1544 505 OFFCURVE",
"1627 450 OFFCURVE",
"1627 345 CURVE SMOOTH",
"1627 257 OFFCURVE",
"1554 183 OFFCURVE",
"1464 183 CURVE SMOOTH",
"1397 183 OFFCURVE",
"1344 152 OFFCURVE",
"1344 84 CURVE SMOOTH",
"1344 19 OFFCURVE",
"1396 -17 OFFCURVE",
"1465 -17 CURVE SMOOTH",
"1665 -17 OFFCURVE",
"1827 148 OFFCURVE",
"1827 345 CURVE SMOOTH",
"1827 577 OFFCURVE",
"1645 708 OFFCURVE",
"1426 720 CURVE",
"1376 909 OFFCURVE",
"1230 1096 OFFCURVE",
"991 1096 CURVE SMOOTH",
"752 1096 OFFCURVE",
"605 907 OFFCURVE",
"556 717 CURVE",
"312 708 OFFCURVE",
"72 585 OFFCURVE",
"72 324 CURVE SMOOTH",
"72 136 OFFCURVE",
"227 -16 OFFCURVE",
"415 -16 CURVE SMOOTH"
);
},
{
closed = 1;
nodes = (
"767 719 LINE",
"802 805 OFFCURVE",
"875 896 OFFCURVE",
"990 896 CURVE SMOOTH",
"1105 896 OFFCURVE",
"1180 807 OFFCURVE",
"1215 721 CURVE"
);
},
{
closed = 1;
nodes = (
"1249 521 LINE",
"1246 356 OFFCURVE",
"1160 184 OFFCURVE",
"990 184 CURVE SMOOTH",
"822 184 OFFCURVE",
"737 351 OFFCURVE",
"733 519 CURVE"
);
},
{
closed = 1;
nodes = (
"335 184 OFFCURVE",
"272 248 OFFCURVE",
"272 325 CURVE SMOOTH",
"272 456 OFFCURVE",
"406 505 OFFCURVE",
"533 515 CURVE",
"534 454 OFFCURVE",
"559 394 OFFCURVE",
"559 332 CURVE SMOOTH",
"559 249 OFFCURVE",
"493 184 OFFCURVE",
"412 184 CURVE SMOOTH"
);
}
);
};
layerId = "6CB67BB4-1561-4377-8865-B188364DD954";
paths = (
{
closed = 1;
nodes = (
"1341 506 LINE",
"1383 506 OFFCURVE",
"1412 506 OFFCURVE",
"1443 506 CURVE SMOOTH",
"1573 506 OFFCURVE",
"1679 508 OFFCURVE",
"1679 318 CURVE SMOOTH",
"1679 150 OFFCURVE",
"1517 43 OFFCURVE",
"1460 0 CURVE",
"1594 0 LINE",
"1652 42 OFFCURVE",
"1829 150 OFFCURVE",
"1829 318 CURVE SMOOTH",
"1829 586 OFFCURVE",
"1651 646 OFFCURVE",
"1443 646 CURVE SMOOTH",
"1404 646 OFFCURVE",
"1361 646 OFFCURVE",
"1315 646 CURVE"
);
},
{
closed = 1;
nodes = (
"649 646 LINE",
"586 646 OFFCURVE",
"511 646 OFFCURVE",
"431 646 CURVE SMOOTH",
"223 646 OFFCURVE",
"75 491 OFFCURVE",
"75 306 CURVE SMOOTH",
"75 92 OFFCURVE",
"233 -24 OFFCURVE",
"441 -24 CURVE SMOOTH",
"565 -24 OFFCURVE",
"673 49 OFFCURVE",
"736 150 CURVE",
"673 229 LINE",
"631 136 OFFCURVE",
"572 91 OFFCURVE",
"453 91 CURVE SMOOTH",
"329 91 OFFCURVE",
"235 189 OFFCURVE",
"235 306 CURVE SMOOTH",
"235 438 OFFCURVE",
"313 506 OFFCURVE",
"443 506 CURVE SMOOTH",
"507 506 OFFCURVE",
"559 506 OFFCURVE",
"610 506 CURVE"
);
},
{
closed = 1;
nodes = (
"489 506 LINE",
"1298 506 LINE",
"1298 646 LINE",
"489 646 LINE"
);
},
{
closed = 1;
nodes = (
"545 246 OFFCURVE",
"751 -23 OFFCURVE",
"979 -23 CURVE SMOOTH",
"1238 -23 OFFCURVE",
"1443 225 OFFCURVE",
"1443 534 CURVE SMOOTH",
"1443 862 OFFCURVE",
"1268 1096 OFFCURVE",
"983 1096 CURVE SMOOTH",
"715 1096 OFFCURVE",
"545 862 OFFCURVE",
"545 534 CURVE SMOOTH"
);
},
{
closed = 1;
nodes = (
"715 771 OFFCURVE",
"822 936 OFFCURVE",
"983 936 CURVE SMOOTH",
"1153 936 OFFCURVE",
"1262 781 OFFCURVE",
"1262 544 CURVE SMOOTH",
"1262 320 OFFCURVE",
"1152 97 OFFCURVE",
"979 97 CURVE SMOOTH",
"798 97 OFFCURVE",
"715 306 OFFCURVE",
"715 544 CURVE SMOOTH"
);
}
);
width = 1904;
}
);
note = k1;
unicode = 0D15;
},
{
color = 5;
glyphname = k2;
lastChange = "2020-06-17 08:59:14 +0000";
layers = (
{
components = (
{
name = _part.main_stem;
transform = "{1, 0, 0, 1, 40, 0}";
},
{
name = e1;
}
);
layerId = "6CB67BB4-1561-4377-8865-B188364DD954";
paths = (
{
closed = 1;
nodes = (
"852 0 LINE",
"1620 0 LINE",
"1620 150 LINE",
"950 150 LINE"
);
}
);
width = 1785;
}
);
note = k2;
unicode = 0D16;
},
{
color = 5;
glyphname = k3;
lastChange = "2020-07-15 07:08:05 +0000";
layers = (
{
background = {
paths = (
{
closed = 0;
nodes = (
"1690 515 LINE",
"1690 843 OFFCURVE",
"1567 1097 OFFCURVE",
"1249 1097 CURVE SMOOTH",
"939 1097 OFFCURVE",
"797 931 OFFCURVE",
"777 531 CURVE SMOOTH",
"766 301 OFFCURVE",
"771 139 OFFCURVE",
"551 139 CURVE SMOOTH",
"329 139 OFFCURVE",
"236 334 OFFCURVE",
"236 561 CURVE SMOOTH",
"236 821 OFFCURVE",
"344 945 OFFCURVE",
"479 1072 CURVE",
"381 1072 LINE",
"198 999 OFFCURVE",
"76 780 OFFCURVE",
"76 561 CURVE SMOOTH",
"76 233 OFFCURVE",
"223 -21 OFFCURVE",
"551 -21 CURVE SMOOTH",
"885 -21 OFFCURVE",
"934 177 OFFCURVE",
"958 508 CURVE SMOOTH",
"978 785 OFFCURVE",
"1022 937 OFFCURVE",
"1249 937 CURVE SMOOTH",
"1451 937 OFFCURVE",
"1510 752 OFFCURVE",
"1510 515 CURVE SMOOTH"
);
},
{
closed = 0;
nodes = (
"1508 514 LINE",
"1508 253 OFFCURVE",
"1387 127 OFFCURVE",
"1251 0 CURVE",
"1348 0 LINE",
"1532 72 OFFCURVE",
"1689 295 OFFCURVE",
"1689 515 CURVE SMOOTH"
);
}
);
};
components = (
{
name = _part.curveEnd;
transform = "{1, 0, 0, 1, 548, 0}";
}
);
layerId = "6CB67BB4-1561-4377-8865-B188364DD954";
paths = (
{
closed = 1;
nodes = (
"1719 510 LINE",
"1719 516 OFFCURVE",
"1719 521 OFFCURVE",
"1719 527 CURVE SMOOTH",
"1719 868 OFFCURVE",
"1527 1096 OFFCURVE",
"1238 1096 CURVE SMOOTH",
"934 1096 OFFCURVE",
"776 899 OFFCURVE",
"776 520 CURVE SMOOTH",
"776 270 OFFCURVE",
"699 139 OFFCURVE",
"550 139 CURVE SMOOTH",
"352 139 OFFCURVE",
"235 296 OFFCURVE",
"235 561 CURVE SMOOTH",
"235 821 OFFCURVE",
"343 945 OFFCURVE",
"478 1072 CURVE",
"380 1072 LINE",
"197 999 OFFCURVE",
"75 780 OFFCURVE",
"75 561 CURVE SMOOTH",
"75 195 OFFCURVE",
"251 -21 OFFCURVE",
"550 -21 CURVE SMOOTH",
"817 -21 OFFCURVE",
"956 164 OFFCURVE",
"956 520 CURVE SMOOTH",
"956 793 OFFCURVE",
"1053 936 OFFCURVE",
"1238 936 CURVE SMOOTH",
"1419 936 OFFCURVE",
"1539 772 OFFCURVE",
"1539 527 CURVE SMOOTH",
"1539 521 OFFCURVE",
"1539 516 OFFCURVE",
"1539 510 CURVE"
);
}
);
width = 1774;
}
);
note = k3;
unicode = 0D17;
},
{
color = 5;
glyphname = k4;
lastChange = "2020-06-27 14:34:36 +0000";
layers = (
{
background = {
paths = (
{
closed = 1;
nodes = (
"2386 0 LINE",
"2386 150 LINE",
"960 150 LINE",
"960 0 LINE"
);
},
{
closed = 1;
nodes = (
"2176 1030 OFFCURVE",
"2186 972 OFFCURVE",
"2186 913 CURVE SMOOTH",
"2186 190 LINE SMOOTH",
"2186 120 OFFCURVE",
"2196 50 OFFCURVE",
"2226 0 CURVE",
"2426 0 LINE",
"2396 50 OFFCURVE",
"2386 120 OFFCURVE",
"2386 190 CURVE SMOOTH",
"2386 913 LINE SMOOTH",
"2386 972 OFFCURVE",
"2376 1030 OFFCURVE",
"2346 1072 CURVE",
"2146 1072 LINE"
);
},
{
closed = 1;
nodes = (
"1160 61 OFFCURVE",
"1160 513 OFFCURVE",
"1160 514 CURVE SMOOTH",
"1160 751 OFFCURVE",
"1199 936 OFFCURVE",
"1431 936 CURVE SMOOTH",
"1711 936 OFFCURVE",
"1816 794 OFFCURVE",
"1816 514 CURVE SMOOTH",
"1816 514 OFFCURVE",
"1956 514 OFFCURVE",
"1956 514 CURVE SMOOTH",
"1956 844 OFFCURVE",
"1761 1096 OFFCURVE",
"1431 1096 CURVE SMOOTH",
"1084 1096 OFFCURVE",
"960 842 OFFCURVE",
"960 514 CURVE SMOOTH",
"960 513 OFFCURVE",
"960 61 OFFCURVE",
"960 60 CURVE",
"1160 60 LINE"
);
}
);
};
components = (
{
name = _part_ra;
transform = "{1, 0, 0, 1, 30, 364}";
},
{
name = l3;
transform = "{1, 0, 0, 1, 877, 0}";
}
);
layerId = "6CB67BB4-1561-4377-8865-B188364DD954";
paths = (
{
closed = 1;
nodes = (
"1570 364 LINE",
"1570 514 LINE",
"636 514 LINE",
"626 364 LINE"
);
}
);
width = 2533;
}
);
note = k4;
unicode = 0D18;
},
{
color = 6;
glyphname = ng;
lastChange = "2020-07-22 07:30:01 +0000";
layers = (
{
background = {
paths = (
{
closed = 1;
nodes = (
"330 1091 OFFCURVE",
"75 805 OFFCURVE",
"75 479 CURVE SMOOTH",
"75 221 OFFCURVE",
"237 -13 OFFCURVE",
"502 -13 CURVE SMOOTH",
"709 -13 OFFCURVE",
"872 142 OFFCURVE",
"872 353 CURVE SMOOTH",
"872 568 OFFCURVE",
"696 734 OFFCURVE",
"495 734 CURVE SMOOTH",
"443 734 OFFCURVE",
"389 722 OFFCURVE",
"334 697 CURVE",
"396 803 OFFCURVE",
"520 890 OFFCURVE",
"659 890 CURVE SMOOTH",
"901 890 OFFCURVE",
"975 732 OFFCURVE",
"977 486 CURVE SMOOTH",
"980 75 LINE SMOOTH",
"981 21 OFFCURVE",
"1026 -23 OFFCURVE",
"1080 -23 CURVE SMOOTH",
"1135 -23 OFFCURVE",
"1180 21 OFFCURVE",
"1180 76 CURVE SMOOTH",
"1180 77 LINE",
"1178 469 LINE SMOOTH",
"1178 722 OFFCURVE",
"1254 896 OFFCURVE",
"1504 896 CURVE SMOOTH",
"1631 896 OFFCURVE",
"1781 837 OFFCURVE",
"1781 709 CURVE SMOOTH",
"1781 617 OFFCURVE",
"1698 588 OFFCURVE",
"1605 584 CURVE SMOOTH",
"1536 581 LINE SMOOTH",
"1484 578 OFFCURVE",
"1441 534 OFFCURVE",
"1441 481 CURVE SMOOTH",
"1441 426 OFFCURVE",
"1485 382 OFFCURVE",
"1540 381 CURVE SMOOTH",
"1599 380 LINE SMOOTH",
"1690 379 OFFCURVE",
"1779 365 OFFCURVE",
"1779 283 CURVE SMOOTH",
"1779 222 OFFCURVE",
"1719 181 OFFCURVE",
"1652 181 CURVE SMOOTH",
"1618 181 OFFCURVE",
"1582 190 OFFCURVE",
"1555 205 CURVE SMOOTH",
"1542 212 OFFCURVE",
"1521 218 OFFCURVE",
"1506 218 CURVE SMOOTH",
"1451 218 OFFCURVE",
"1406 173 OFFCURVE",
"1406 118 CURVE SMOOTH",
"1406 16 OFFCURVE",
"1553 -20 OFFCURVE",
"1650 -20 CURVE SMOOTH",
"1825 -20 OFFCURVE",
"1980 104 OFFCURVE",
"1980 281 CURVE SMOOTH",
"1980 367 OFFCURVE",
"1925 442 OFFCURVE",
"1877 488 CURVE",
"1940 555 OFFCURVE",
"1981 626 OFFCURVE",
"1981 694 CURVE SMOOTH",
"1981 903 OFFCURVE",
"1731 1091 OFFCURVE",
"1507 1091 CURVE SMOOTH",
"1309 1091 OFFCURVE",
"1162 998 OFFCURVE",
"1076 873 CURVE",
"994 993 OFFCURVE",
"845 1091 OFFCURVE",
"658 1091 CURVE SMOOTH"
);
},
{
closed = 1;
nodes = (
"672 255 OFFCURVE",
"595 186 OFFCURVE",
"501 186 CURVE SMOOTH",
"404 186 OFFCURVE",
"314 258 OFFCURVE",
"314 358 CURVE SMOOTH",
"314 458 OFFCURVE",
"399 532 OFFCURVE",
"495 532 CURVE SMOOTH",
"595 532 OFFCURVE",
"672 454 OFFCURVE",
"672 352 CURVE SMOOTH"
);
}
);
};
components = (
{
name = _part.osmall;
transform = "{1, 0, 0, 1, 0, 1}";
},
{
name = _part.o_dha_nga;
transform = "{1, 0, 0, 1, 1079, 0}";
}
);
layerId = "6CB67BB4-1561-4377-8865-B188364DD954";
paths = (
{
closed = 1;
nodes = (
"1161 516 LINE",
"1160 903 OFFCURVE",
"937 1096 OFFCURVE",
"610 1096 CURVE SMOOTH",
"282 1096 OFFCURVE",
"75 842 OFFCURVE",
"75 514 CURVE SMOOTH",
"75 294 OFFCURVE",
"138 148 OFFCURVE",
"288 43 CURVE",
"472 0 LINE",
"317 113 OFFCURVE",
"235 253 OFFCURVE",
"235 514 CURVE SMOOTH",
"235 741 OFFCURVE",
"388 936 OFFCURVE",
"610 936 CURVE SMOOTH",
"842 936 OFFCURVE",
"981 771 OFFCURVE",
"981 514 CURVE SMOOTH",
"981 512 OFFCURVE",
"981 510 OFFCURVE",
"981 509 CURVE"
);
},
{
closed = 1;
nodes = (
"1153 1096 OFFCURVE",
"981 910 OFFCURVE",
"981 628 CURVE",
"981 190 LINE SMOOTH",
"981 120 OFFCURVE",
"991 50 OFFCURVE",
"1021 0 CURVE",
"1201 0 LINE",
"1171 50 OFFCURVE",
"1161 120 OFFCURVE",
"1161 190 CURVE SMOOTH",
"1161 331 OFFCURVE",
"1161 460 OFFCURVE",
"1161 601 CURVE",
"1159 808 OFFCURVE",
"1247 936 OFFCURVE",
"1493 936 CURVE SMOOTH",
"1664 936 OFFCURVE",
"1775 1096 OFFCURVE",
"1490 1096 CURVE SMOOTH"
);
}
);
width = 2040;
}
);
note = ng;
unicode = 0D19;
},
{
color = 5;
glyphname = ch1;
lastChange = "2020-07-10 20:14:16 +0000";
layers = (
{
background = {
paths = (
{
closed = 1;
nodes = (
"1218 202 LINE",
"973 203 LINE",
"1011 266 OFFCURVE",
"1032 333 OFFCURVE",
"1032 415 CURVE SMOOTH",
"1032 623 OFFCURVE",
"865 808 OFFCURVE",
"654 808 CURVE SMOOTH",
"459 808 OFFCURVE",
"294 656 OFFCURVE",
"294 449 CURVE SMOOTH",
"294 362 OFFCURVE",
"326 241 OFFCURVE",
"418 241 CURVE SMOOTH",
"473 241 OFFCURVE",
"518 286 OFFCURVE",
"518 341 CURVE SMOOTH",
"518 378 OFFCURVE",
"495 408 OFFCURVE",
"495 448 CURVE SMOOTH",
"495 539 OFFCURVE",
"566 608 OFFCURVE",
"651 608 CURVE SMOOTH",
"754 608 OFFCURVE",
"832 517 OFFCURVE",
"832 414 CURVE SMOOTH",
"832 302 OFFCURVE",
"746 202 OFFCURVE",
"644 202 CURVE SMOOTH",
"85 200 LINE SMOOTH",
"29 200 OFFCURVE",
"-16 154 OFFCURVE",
"-16 100 CURVE SMOOTH",
"-16 45 OFFCURVE",
"29 0 OFFCURVE",
"84 0 CURVE SMOOTH",
"495 1 OFFCURVE",
"907 1 OFFCURVE",
"1318 2 CURVE SMOOTH",
"1373 2 OFFCURVE",
"1418 47 OFFCURVE",
"1418 102 CURVE SMOOTH",
"1418 995 LINE SMOOTH",
"1418 1050 OFFCURVE",
"1373 1095 OFFCURVE",
"1318 1095 CURVE SMOOTH",
"1263 1095 OFFCURVE",
"1218 1050 OFFCURVE",
"1218 995 CURVE SMOOTH"
);
}
);
};
components = (
{
name = _part.cha;
transform = "{1, 0, 0, 1, -31, 0}";
},
{
name = _part.main_stem;
transform = "{1, 0, 0, 1, -187, 0}";
}
);
layerId = "6CB67BB4-1561-4377-8865-B188364DD954";
paths = (
{
closed = 1;
nodes = (
"79 94 OFFCURVE",
"90 40 OFFCURVE",
"114 0 CURVE",
"1424 0 LINE",
"1424 150 LINE",
"301 150 LINE",
"114 150 LINE",
"114 0 LINE",
"314 0 LINE",
"290 40 OFFCURVE",
"279 94 OFFCURVE",
"275 150 CURVE",
"114 150 LINE",
"75 150 LINE"
);
}
);
width = 1558;
}
);
note = ch1;
unicode = 0D1A;
},
{
color = 5;
glyphname = ch2;
lastChange = "2020-05-16 21:10:47 +0000";
layers = (
{
background = {
paths = (
{
closed = 1;
nodes = (
"1182 390 OFFCURVE",
"1205 292 OFFCURVE",
"1253 200 CURVE",
"1004 201 LINE",
"1046 268 OFFCURVE",
"1066 344 OFFCURVE",
"1066 420 CURVE SMOOTH",
"1066 629 OFFCURVE",
"900 813 OFFCURVE",
"688 813 CURVE SMOOTH",
"492 813 OFFCURVE",
"329 662 OFFCURVE",
"329 454 CURVE SMOOTH",
"329 367 OFFCURVE",
"361 246 OFFCURVE",
"453 246 CURVE SMOOTH",
"508 246 OFFCURVE",
"553 291 OFFCURVE",
"553 346 CURVE SMOOTH",
"553 382 OFFCURVE",
"529 418 OFFCURVE",
"529 454 CURVE SMOOTH",
"529 543 OFFCURVE",
"607 613 OFFCURVE",
"689 613 CURVE SMOOTH",
"788 613 OFFCURVE",
"867 521 OFFCURVE",
"867 420 CURVE SMOOTH",
"867 288 OFFCURVE",
"770 203 OFFCURVE",
"655 203 CURVE SMOOTH",
"119 203 LINE SMOOTH",
"64 203 OFFCURVE",
"19 158 OFFCURVE",
"19 103 CURVE SMOOTH",
"19 48 OFFCURVE",
"64 0 OFFCURVE",
"119 0 CURVE SMOOTH",
"1455 -1 LINE",
"1456 -1 LINE SMOOTH",
"1511 -1 OFFCURVE",
"1556 44 OFFCURVE",
"1556 99 CURVE SMOOTH",
"1556 124 OFFCURVE",
"1541 158 OFFCURVE",
"1522 174 CURVE SMOOTH",
"1435 251 OFFCURVE",
"1382 371 OFFCURVE",
"1382 487 CURVE SMOOTH",
"1382 706 OFFCURVE",
"1559 895 OFFCURVE",
"1785 895 CURVE SMOOTH",
"1795 895 OFFCURVE",
"1805 895 OFFCURVE",
"1816 894 CURVE",
"1675 807 OFFCURVE",
"1566 635 OFFCURVE",
"1566 447 CURVE SMOOTH",
"1566 205 OFFCURVE",
"1735 -8 OFFCURVE",
"1982 -8 CURVE SMOOTH",
"2239 -8 OFFCURVE",
"2410 218 OFFCURVE",
"2410 468 CURVE SMOOTH",
"2410 817 OFFCURVE",
"2133 1095 OFFCURVE",
"1787 1095 CURVE SMOOTH",
"1451 1095 OFFCURVE",
"1182 818 OFFCURVE",
"1182 485 CURVE SMOOTH"
);
},
{
closed = 1;
nodes = (
"1853 192 OFFCURVE",
"1767 317 OFFCURVE",
"1767 444 CURVE SMOOTH",
"1767 622 OFFCURVE",
"1908 765 OFFCURVE",
"2081 772 CURVE",
"2147 705 OFFCURVE",
"2210 586 OFFCURVE",
"2210 465 CURVE SMOOTH",
"2210 328 OFFCURVE",
"2121 192 OFFCURVE",
"1981 192 CURVE SMOOTH"
);
}
);
};
components = (
{
name = _part.cha;
transform = "{1, 0, 0, 1, -71, 0}";
},
{
name = _part.raa;
transform = "{1, 0, 0, 1, 1099, 0}";
}
);
layerId = "6CB67BB4-1561-4377-8865-B188364DD954";
paths = (
{
closed = 1;
nodes = (
"79 94 OFFCURVE",
"90 40 OFFCURVE",
"114 0 CURVE",
"1496 0 LINE",
"1428 150 LINE",
"301 150 LINE",
"114 150 LINE",
"114 0 LINE",
"314 0 LINE",
"290 40 OFFCURVE",
"279 94 OFFCURVE",
"275 150 CURVE",
"114 150 LINE",
"75 150 LINE"
);
}
);
width = 2385;
}
);
note = ch2;
unicode = 0D1B;
},
{
color = 6;
glyphname = ch3;
lastChange = "2020-07-17 13:44:10 +0000";
layers = (
{
background = {
paths = (
{
closed = 1;
nodes = (
"711 1032 OFFCURVE",
"599 1095 OFFCURVE",
"475 1095 CURVE SMOOTH",
"252 1095 OFFCURVE",
"67 942 OFFCURVE",
"67 715 CURVE SMOOTH",
"67 557 OFFCURVE",
"187 437 OFFCURVE",
"351 437 CURVE SMOOTH",
"503 437 OFFCURVE",
"611 538 OFFCURVE",
"611 691 CURVE SMOOTH",
"611 776 OFFCURVE",
"590 868 OFFCURVE",
"509 895 CURVE",
"615 896 OFFCURVE",
"686 845 OFFCURVE",
"685 708 CURVE SMOOTH",
"684 540 LINE SMOOTH",
"684 485 OFFCURVE",
"724 440 OFFCURVE",
"779 440 CURVE SMOOTH",
"833 440 OFFCURVE",
"872 483 OFFCURVE",
"874 537 CURVE SMOOTH",
"876 693 LINE SMOOTH",
"878 822 OFFCURVE",
"914 899 OFFCURVE",
"1040 899 CURVE SMOOTH",
"1158 899 OFFCURVE",
"1247 795 OFFCURVE",
"1247 679 CURVE SMOOTH",
"1247 473 OFFCURVE",
"1018 383 OFFCURVE",
"801 383 CURVE SMOOTH",
"665 383 OFFCURVE",
"513 418 OFFCURVE",
"362 418 CURVE SMOOTH",
"211 418 OFFCURVE",
"76 338 OFFCURVE",
"76 183 CURVE SMOOTH",
"76 27 OFFCURVE",
"218 -64 OFFCURVE",
"366 -64 CURVE SMOOTH",
"609 -64 OFFCURVE",
"791 82 OFFCURVE",
"954 172 CURVE",
"965 45 OFFCURVE",
"1070 -67 OFFCURVE",
"1205 -67 CURVE SMOOTH",
"1346 -67 OFFCURVE",
"1457 45 OFFCURVE",
"1457 185 CURVE SMOOTH",
"1457 277 OFFCURVE",
"1403 356 OFFCURVE",
"1341 397 CURVE",
"1405 474 OFFCURVE",
"1447 573 OFFCURVE",
"1447 679 CURVE SMOOTH",
"1447 907 OFFCURVE",
"1272 1095 OFFCURVE",
"1041 1095 CURVE SMOOTH",
"930 1095 OFFCURVE",
"839 1032 OFFCURVE",
"778 964 CURVE"
);
},
{
closed = 1;
nodes = (
"431 660 OFFCURVE",
"383 619 OFFCURVE",
"345 619 CURVE SMOOTH",
"295 619 OFFCURVE",
"241 655 OFFCURVE",
"241 706 CURVE SMOOTH",
"241 741 OFFCURVE",
"297 790 OFFCURVE",
"329 790 CURVE SMOOTH",
"374 790 OFFCURVE",
"431 745 OFFCURVE",
"431 700 CURVE SMOOTH"
);
},
{
closed = 1;
nodes = (
"1271 158 OFFCURVE",
"1231 121 OFFCURVE",
"1202 121 CURVE SMOOTH",
"1172 121 OFFCURVE",
"1136 155 OFFCURVE",
"1136 186 CURVE SMOOTH",
"1136 216 OFFCURVE",
"1175 254 OFFCURVE",
"1202 254 CURVE SMOOTH",
"1236 254 OFFCURVE",
"1271 222 OFFCURVE",
"1271 186 CURVE SMOOTH"
);
},
{
closed = 1;
nodes = (
"709 228 LINE",
"638 192 OFFCURVE",
"454 112 OFFCURVE",
"370 112 CURVE SMOOTH",
"328 112 OFFCURVE",
"273 130 OFFCURVE",
"273 186 CURVE SMOOTH",
"273 226 OFFCURVE",
"338 243 OFFCURVE",
"370 243 CURVE SMOOTH"
);
}
);
};
components = (
{
name = _part.ee1;
transform = "{0.88948, 0, 0, 0.88948, 4, 261}";
},
{
name = _part.ee1;
transform = "{0.78861, 0, 0, 0.78861, 867, -226}";
}
);
layerId = "6CB67BB4-1561-4377-8865-B188364DD954";
paths = (
{
closed = 1;
nodes = (
"701 541 OFFCURVE",
"708 491 OFFCURVE",
"729 455 CURVE",
"889 455 LINE",
"868 491 OFFCURVE",
"861 541 OFFCURVE",
"861 591 CURVE SMOOTH",
"861 871 LINE",
"701 817 LINE",
"701 591 LINE SMOOTH"
);
},
{
closed = 1;
nodes = (
"861 728 LINE",
"861 818 OFFCURVE",
"898 936 OFFCURVE",
"1057 935 CURVE SMOOTH",
"1189 934 OFFCURVE",
"1265 820 OFFCURVE",
"1265 688 CURVE SMOOTH",
"1265 475 OFFCURVE",
"1067 421 OFFCURVE",
"1002 409 CURVE",
"1034 267 LINE",
"1166 327 OFFCURVE",
"1445 441 OFFCURVE",
"1445 688 CURVE SMOOTH",
"1445 957 OFFCURVE",
"1268 1095 OFFCURVE",
"1057 1095 CURVE SMOOTH",
"854 1095 OFFCURVE",
"708 974 OFFCURVE",
"708 728 CURVE"
);
},
{
closed = 1;
nodes = (
"318 456 LINE",
"190 528 OFFCURVE",
"164 526 OFFCURVE",
"163 688 CURVE SMOOTH",
"162 829 OFFCURVE",
"167 975 OFFCURVE",
"417 975 CURVE SMOOTH",
"637 975 OFFCURVE",
"701 833 OFFCURVE",
"701 665 CURVE",
"701 665 OFFCURVE",
"827 656 OFFCURVE",
"860 656 CURVE",
"848 847 LINE",
"848 974 OFFCURVE",
"680 1095 OFFCURVE",
"462 1095 CURVE SMOOTH",
"230 1095 OFFCURVE",
"82 919 OFFCURVE",
"81 708 CURVE SMOOTH",
"80 553 OFFCURVE",
"159 457 OFFCURVE",
"311 442 CURVE"
);
},
{
closed = 1;
nodes = (
"1002 409 LINE",
"919 392 OFFCURVE",
"834 399 OFFCURVE",
"597 399 CURVE SMOOTH",
"273 399 OFFCURVE",
"75 392 OFFCURVE",
"75 157 CURVE SMOOTH",
"75 -73 OFFCURVE",
"352 -93 OFFCURVE",
"521 -37 CURVE",
"726 42 OFFCURVE",
"836 102 OFFCURVE",
"993 199 CURVE",
"1035 336 LINE"
);
},
{
closed = 1;
nodes = (
"676 112 OFFCURVE",
"235 -15 OFFCURVE",
"235 167 CURVE SMOOTH",
"235 312 OFFCURVE",
"698 276 OFFCURVE",
"874 276 CURVE"
);
}
);
width = 1526;
}
);
note = ch3;
unicode = 0D1C;
},
{
color = 6;
glyphname = ch4;
lastChange = "2020-07-13 18:54:24 +0000";
layers = (
{
anchors = (
{
name = _lock;
position = "{799, 868}";
}
);
background = {
paths = (
{
closed = 1;
nodes = (
"1345 893 OFFCURVE",
"1426 753 OFFCURVE",
"1439 527 CURVE SMOOTH",
"1443 449 LINE SMOOTH",
"1457 212 OFFCURVE",
"1550 -18 OFFCURVE",
"1802 -18 CURVE SMOOTH",
"1944 -18 OFFCURVE",
"2041 69 OFFCURVE",
"2095 164 CURVE",
"2196 49 OFFCURVE",
"2344 -18 OFFCURVE",
"2499 -18 CURVE SMOOTH",
"2797 -18 OFFCURVE",
"3046 234 OFFCURVE",
"3046 535 CURVE SMOOTH",
"3046 841 OFFCURVE",
"2794 1097 OFFCURVE",
"2483 1097 CURVE SMOOTH",
"2404 1097 OFFCURVE",
"2341 1070 OFFCURVE",
"2341 995 CURVE SMOOTH",
"2341 940 OFFCURVE",
"2386 895 OFFCURVE",
"2441 895 CURVE SMOOTH",
"2454 895 OFFCURVE",
"2467 897 OFFCURVE",
"2481 897 CURVE SMOOTH",
"2686 897 OFFCURVE",
"2844 728 OFFCURVE",
"2844 532 CURVE SMOOTH",
"2844 344 OFFCURVE",
"2688 182 OFFCURVE",
"2499 182 CURVE SMOOTH",
"2330 182 OFFCURVE",
"2168 308 OFFCURVE",
"2165 470 CURVE SMOOTH",
"2154 1001 LINE SMOOTH",
"2152 1053 OFFCURVE",
"2108 1097 OFFCURVE",
"2054 1097 CURVE SMOOTH",
"1999 1097 OFFCURVE",
"1960 1052 OFFCURVE",
"1960 997 CURVE SMOOTH",
"1960 461 LINE SMOOTH",
"1963 337 OFFCURVE",
"1924 181 OFFCURVE",
"1805 181 CURVE SMOOTH",
"1674 181 OFFCURVE",
"1651 331 OFFCURVE",
"1643 461 CURVE SMOOTH",
"1638 539 LINE SMOOTH",
"1618 866 OFFCURVE",
"1454 1092 OFFCURVE",
"1113 1092 CURVE SMOOTH",
"1036 1092 OFFCURVE",
"957 1078 OFFCURVE",
"883 1049 CURVE",
"809 1079 OFFCURVE",
"730 1094 OFFCURVE",
"652 1094 CURVE SMOOTH",
"320 1094 OFFCURVE",
"65 842 OFFCURVE",
"65 511 CURVE SMOOTH",
"65 269 OFFCURVE",
"209 83 OFFCURVE",
"377 -5 CURVE SMOOTH",
"389 -12 OFFCURVE",
"411 -17 OFFCURVE",
"425 -17 CURVE SMOOTH",
"480 -17 OFFCURVE",
"525 28 OFFCURVE",
"525 83 CURVE SMOOTH",
"525 117 OFFCURVE",
"500 157 OFFCURVE",
"470 172 CURVE SMOOTH",
"360 230 OFFCURVE",
"266 353 OFFCURVE",
"266 511 CURVE SMOOTH",
"266 729 OFFCURVE",
"432 894 OFFCURVE",
"652 894 CURVE SMOOTH",
"655 894 LINE",
"544 776 OFFCURVE",
"474 631 OFFCURVE",
"474 442 CURVE SMOOTH",
"474 203 OFFCURVE",
"626 -19 OFFCURVE",
"874 -19 CURVE SMOOTH",
"1126 -19 OFFCURVE",
"1278 212 OFFCURVE",
"1278 451 CURVE SMOOTH",
"1278 628 OFFCURVE",
"1214 776 OFFCURVE",
"1106 893 CURVE"
);
},
{
closed = 1;
nodes = (
"997 746 OFFCURVE",
"1078 607 OFFCURVE",
"1078 453 CURVE SMOOTH",
"1078 321 OFFCURVE",
"1009 181 OFFCURVE",
"874 181 CURVE SMOOTH",
"742 181 OFFCURVE",
"675 316 OFFCURVE",
"675 446 CURVE SMOOTH",
"675 610 OFFCURVE",
"763 749 OFFCURVE",
"881 824 CURVE"
);
}
);
};
components = (
{
name = _part.thaa.vattam;
transform = "{1, 0, 0, 1, 0, -4}";
}
);
layerId = "6CB67BB4-1561-4377-8865-B188364DD954";
paths = (
{
closed = 1;
nodes = (
"2677 -24 OFFCURVE",
"2890 169 OFFCURVE",
"2890 557 CURVE SMOOTH",
"2890 803 OFFCURVE",
"2685 1043 OFFCURVE",
"2556 1073 CURVE",
"2440 1073 LINE",
"2544 1021 OFFCURVE",
"2710 788 OFFCURVE",
"2710 557 CURVE SMOOTH",
"2710 320 OFFCURVE",
"2591 136 OFFCURVE",
"2419 136 CURVE",
"2419 -24 LINE"
);
},
{
closed = 1;
nodes = (
"928 943 LINE",
"891 960 OFFCURVE",
"788 1096 OFFCURVE",
"600 1096 CURVE SMOOTH",
"292 1096 OFFCURVE",
"75 842 OFFCURVE",
"75 514 CURVE SMOOTH",
"75 294 OFFCURVE",
"199 72 OFFCURVE",
"383 0 CURVE",
"480 0 LINE",
"344 127 OFFCURVE",
"235 253 OFFCURVE",
"235 514 CURVE SMOOTH",
"235 741 OFFCURVE",
"366 944 OFFCURVE",
"589 944 CURVE SMOOTH",
"707 944 OFFCURVE",
"775 888 OFFCURVE",
"799 851 CURVE"
);
},
{
closed = 1;
nodes = (
"1549 500 LINE",
"1549 504 OFFCURVE",
"1549 509 OFFCURVE",
"1549 513 CURVE SMOOTH",
"1549 861 OFFCURVE",
"1355 1095 OFFCURVE",
"1028 1095 CURVE SMOOTH",
"836 1095 OFFCURVE",
"728 975 OFFCURVE",
"658 937 CURVE",
"799 851 LINE",
"851 900 OFFCURVE",
"944 935 OFFCURVE",
"1028 935 CURVE SMOOTH",
"1270 935 OFFCURVE",
"1369 750 OFFCURVE",
"1369 513 CURVE SMOOTH",
"1369 509 OFFCURVE",
"1369 504 OFFCURVE",
"1369 500 CURVE"
);
},
{
closed = 1;
nodes = (
"1366 620 LINE",
"1368 588 OFFCURVE",
"1369 553 OFFCURVE",
"1369 518 CURVE SMOOTH",
"1369 248 OFFCURVE",
"1432 -24 OFFCURVE",
"1757 -24 CURVE SMOOTH",
"1928 -24 OFFCURVE",
"2033 65 OFFCURVE",
"2089 188 CURVE",
"2162 73 OFFCURVE",
"2262 -14 OFFCURVE",
"2419 -24 CURVE",
"2419 136 LINE",
"2221 154 OFFCURVE",
"2150 331 OFFCURVE",
"2150 513 CURVE SMOOTH",
"2150 882 LINE SMOOTH",
"2150 952 OFFCURVE",
"2140 1022 OFFCURVE",
"2110 1072 CURVE",
"1950 1072 LINE",
"1980 1022 OFFCURVE",
"1990 952 OFFCURVE",
"1990 882 CURVE SMOOTH",
"1990 513 LINE SMOOTH",
"1990 342 OFFCURVE",
"1982 136 OFFCURVE",
"1757 136 CURVE SMOOTH",
"1542 136 OFFCURVE",
"1550 390 OFFCURVE",
"1550 518 CURVE SMOOTH",
"1550 568 OFFCURVE",
"1532 603 OFFCURVE",
"1529 649 CURVE"
);
}
);
width = 2965;
}
);
note = ch4;
unicode = 0D1D;
},
{
color = 6;
glyphname = nj;
lastChange = "2020-07-13 18:53:47 +0000";
layers = (
{
anchors = (
{
name = _lock;
position = "{1695, 870}";
}
);
background = {
paths = (
{
closed = 1;
nodes = (
"1569 126 OFFCURVE",
"1520 268 OFFCURVE",
"1520 445 CURVE SMOOTH",
"1520 683 OFFCURVE",
"1621 847 OFFCURVE",
"1677 847 CURVE SMOOTH",
"1733 847 OFFCURVE",
"1833 683 OFFCURVE",
"1833 445 CURVE",
"1833 268 OFFCURVE",
"1785 126 OFFCURVE",
"1677 126 CURVE"
);
},
{
closed = 1;
nodes = (
"1131 515 LINE",
"1131 742 OFFCURVE",
"1224 937 OFFCURVE",
"1446 937 CURVE SMOOTH",
"1473 937 OFFCURVE",
"1499 934 OFFCURVE",
"1523 928 CURVE",
"1411 818 OFFCURVE",
"1356 636 OFFCURVE",
"1356 445 CURVE SMOOTH",
"1356 211 OFFCURVE",
"1465 -24 OFFCURVE",
"1673 -24 CURVE SMOOTH",
"1881 -24 OFFCURVE",
"1999 196 OFFCURVE",
"1999 445 CURVE SMOOTH",
"1999 614 OFFCURVE",
"1940 800 OFFCURVE",
"1811 928 CURVE",
"1840 933 OFFCURVE",
"1872 937 OFFCURVE",
"1907 937 CURVE SMOOTH",
"2139 937 OFFCURVE",
"2238 752 OFFCURVE",
"2238 515 CURVE SMOOTH",
"2238 325 OFFCURVE",
"2121 122 OFFCURVE",
"2002 3 CURVE SMOOTH",
"2001 2 OFFCURVE",
"2000 1 OFFCURVE",
"1998 0 CURVE",
"2114 0 LINE",
"2243 30 OFFCURVE",
"2438 269 OFFCURVE",
"2438 515 CURVE SMOOTH",
"2438 843 OFFCURVE",
"2255 1097 OFFCURVE",
"1907 1097 CURVE SMOOTH",
"1808 1097 OFFCURVE",
"1739 1079 OFFCURVE",
"1673 1046 CURVE",
"1610 1078 OFFCURVE",
"1527 1097 OFFCURVE",
"1446 1097 CURVE SMOOTH",
"1118 1097 OFFCURVE",
"971 843 OFFCURVE",
"971 515 CURVE"
);
}
);
};
components = (
{
name = _part.na;
},
{
name = _part.thaa.vattam;
transform = "{1, 0, 0, 1, 896, -2}";
}
);
layerId = "6CB67BB4-1561-4377-8865-B188364DD954";
paths = (
{
closed = 1;
nodes = (
"1695 853 LINE",
"1747 902 OFFCURVE",
"1840 937 OFFCURVE",
"1924 937 CURVE SMOOTH",
"2166 937 OFFCURVE",
"2265 752 OFFCURVE",
"2265 515 CURVE SMOOTH",
"2265 325 OFFCURVE",
"2128 121 OFFCURVE",
"2009 0 CURVE",
"2019 0 OFFCURVE",
"2039 0 OFFCURVE",
"2121 0 CURVE",
"2250 29 OFFCURVE",
"2445 269 OFFCURVE",
"2445 515 CURVE SMOOTH",
"2445 863 OFFCURVE",
"2251 1097 OFFCURVE",
"1924 1097 CURVE SMOOTH",
"1732 1097 OFFCURVE",
"1624 977 OFFCURVE",
"1554 939 CURVE"
);
},
{
closed = 1;
nodes = (
"1131 507 LINE",
"1131 510 OFFCURVE",
"1131 513 OFFCURVE",
"1131 516 CURVE SMOOTH",
"1131 743 OFFCURVE",
"1262 946 OFFCURVE",
"1485 946 CURVE SMOOTH",
"1603 946 OFFCURVE",
"1671 890 OFFCURVE",
"1695 853 CURVE",
"1824 945 LINE",
"1787 962 OFFCURVE",
"1684 1098 OFFCURVE",
"1496 1098 CURVE SMOOTH",
"1188 1098 OFFCURVE",
"971 844 OFFCURVE",
"971 516 CURVE SMOOTH",
"971 513 OFFCURVE",
"971 510 OFFCURVE",
"971 507 CURVE"
);
},
{
closed = 1;
nodes = (
"1141 50 OFFCURVE",
"1131 120 OFFCURVE",
"1131 190 CURVE",
"1131 804 LINE",
"971 729 LINE",
"971 190 LINE",
"971 120 OFFCURVE",
"981 50 OFFCURVE",
"1011 0 CURVE",
"1171 0 LINE"
);
}
);
width = 2520;
}
);
note = nj;
unicode = 0D1E;
},
{
color = 6;
glyphname = t1;
lastChange = "2020-07-13 12:04:42 +0000";
layers = (
{
background = {
paths = (
{
closed = 1;
nodes = (
"80 339 OFFCURVE",
"903 574 OFFCURVE",
"903 283 CURVE SMOOTH",
"903 172 OFFCURVE",
"787 136 OFFCURVE",
"575 136 CURVE SMOOTH",
"402 136 OFFCURVE",
"154 200 OFFCURVE",
"80 296 CURVE",
"80 170 LINE",
"172 55 OFFCURVE",
"371 -24 OFFCURVE",
"565 -24 CURVE SMOOTH",
"915 -24 OFFCURVE",
"1083 78 OFFCURVE",
"1083 286 CURVE SMOOTH",
"1083 746 OFFCURVE",
"250 516 OFFCURVE",
"250 789 CURVE SMOOTH",
"250 893 OFFCURVE",
"356 936 OFFCURVE",
"565 936 CURVE SMOOTH",
"828 936 OFFCURVE",
"925 865 OFFCURVE",
"1011 806 CURVE",
"1011 912 LINE",
"964 1007 OFFCURVE",
"810 1096 OFFCURVE",
"575 1096 CURVE SMOOTH",
"282 1096 OFFCURVE",
"80 1001 OFFCURVE",
"80 784 CURVE SMOOTH"
);
}
);
};
layerId = "6CB67BB4-1561-4377-8865-B188364DD954";
paths = (
{
closed = 1;
nodes = (
"74 538 OFFCURVE",
"318 506 OFFCURVE",
"483 464 CURVE SMOOTH",
"590 437 OFFCURVE",
"718 415 OFFCURVE",
"718 283 CURVE SMOOTH",
"718 183 OFFCURVE",
"619 116 OFFCURVE",
"470 116 CURVE SMOOTH",
"327 116 OFFCURVE",
"159 201 OFFCURVE",
"85 297 CURVE",
"85 161 LINE",
"177 46 OFFCURVE",
"326 -24 OFFCURVE",
"460 -24 CURVE SMOOTH",
"711 -24 OFFCURVE",
"878 100 OFFCURVE",
"878 286 CURVE SMOOTH",
"878 526 OFFCURVE",
"656 579 OFFCURVE",
"526 608 CURVE SMOOTH",
"394 638 OFFCURVE",
"235 663 OFFCURVE",
"235 789 CURVE SMOOTH",
"235 889 OFFCURVE",
"333 956 OFFCURVE",
"480 956 CURVE SMOOTH",
"644 956 OFFCURVE",
"750 865 OFFCURVE",
"836 806 CURVE",
"836 922 LINE",
"789 1017 OFFCURVE",
"648 1096 OFFCURVE",
"490 1096 CURVE SMOOTH",
"242 1096 OFFCURVE",
"76 971 OFFCURVE",
"75 784 CURVE SMOOTH"
);
}
);
width = 953;
}
);
note = t1;
unicode = 0D1F;
},
{
color = 5;
glyphname = t2;
lastChange = "2020-07-17 13:44:30 +0000";
layers = (
{
background = {
paths = (
{
closed = 1;
nodes = (
"328 1095 OFFCURVE",
"105 844 OFFCURVE",
"105 538 CURVE SMOOTH",
"105 233 OFFCURVE",
"329 -19 OFFCURVE",
"633 -19 CURVE SMOOTH",
"937 -19 OFFCURVE",
"1161 234 OFFCURVE",
"1161 538 CURVE SMOOTH",
"1161 842 OFFCURVE",
"938 1095 OFFCURVE",
"633 1095 CURVE SMOOTH"
);
},
{
closed = 1;
nodes = (
"827 995 OFFCURVE",
"961 783 OFFCURVE",
"961 539 CURVE SMOOTH",
"961 294 OFFCURVE",
"827 51 OFFCURVE",
"632 51 CURVE SMOOTH",
"438 51 OFFCURVE",
"265 294 OFFCURVE",
"265 539 CURVE SMOOTH",
"265 783 OFFCURVE",
"438 995 OFFCURVE",
"632 995 CURVE SMOOTH"
);
}
);
};
components = (
{
name = _part.t2;
}
);
layerId = "6CB67BB4-1561-4377-8865-B188364DD954";
width = 1086;
}
);
note = t2;
unicode = 0D20;
},
{
color = 6;
glyphname = t3;
lastChange = "2020-07-04 20:17:36 +0000";
layers = (
{
background = {
paths = (
{
closed = 1;
nodes = (
"2429 778 OFFCURVE",
"2305 1000 OFFCURVE",
"2121 1072 CURVE",
"2025 1072 LINE",
"2160 945 OFFCURVE",
"2269 819 OFFCURVE",
"2269 558 CURVE SMOOTH",
"2269 331 OFFCURVE",
"2116 136 OFFCURVE",
"1894 136 CURVE SMOOTH",
"1731 136 OFFCURVE",
"1638 241 OFFCURVE",
"1638 387 CURVE SMOOTH",
"1638 882 LINE SMOOTH",
"1638 952 OFFCURVE",
"1628 1022 OFFCURVE",
"1598 1072 CURVE",
"1438 1072 LINE",
"1468 1022 OFFCURVE",
"1478 952 OFFCURVE",
"1478 882 CURVE SMOOTH",
"1478 502 LINE SMOOTH",
"1478 276 OFFCURVE",
"1368 136 OFFCURVE",
"1175 136 CURVE SMOOTH",
"1032 136 OFFCURVE",
"893 195 OFFCURVE",
"893 390 CURVE SMOOTH",
"893 672 LINE SMOOTH",
"893 920 OFFCURVE",
"734 1096 OFFCURVE",
"501 1096 CURVE SMOOTH",
"252 1096 OFFCURVE",
"75 886 OFFCURVE",
"75 586 CURVE SMOOTH",
"75 278 OFFCURVE",
"254 68 OFFCURVE",
"439 0 CURVE",
"555 0 LINE",
"403 101 OFFCURVE",
"235 318 OFFCURVE",
"235 586 CURVE SMOOTH",
"235 802 OFFCURVE",
"347 936 OFFCURVE",
"501 936 CURVE SMOOTH",
"643 936 OFFCURVE",
"733 835 OFFCURVE",
"733 672 CURVE SMOOTH",
"733 391 LINE SMOOTH",
"733 118 OFFCURVE",
"925 -24 OFFCURVE",
"1175 -24 CURVE SMOOTH",
"1336 -24 OFFCURVE",
"1463 44 OFFCURVE",
"1543 160 CURVE",
"1623 18 OFFCURVE",
"1762 -24 OFFCURVE",
"1894 -24 CURVE SMOOTH",
"2222 -24 OFFCURVE",
"2429 230 OFFCURVE",
"2429 558 CURVE SMOOTH"
);
}
);
};
layerId = "6CB67BB4-1561-4377-8865-B188364DD954";
paths = (
{
closed = 1;
nodes = (
"2429 778 OFFCURVE",
"2305 1000 OFFCURVE",
"2121 1072 CURVE",
"2025 1072 LINE",
"2160 945 OFFCURVE",
"2269 819 OFFCURVE",
"2269 558 CURVE SMOOTH",
"2269 331 OFFCURVE",
"2116 136 OFFCURVE",
"1894 136 CURVE SMOOTH",
"1731 136 OFFCURVE",
"1638 241 OFFCURVE",
"1638 387 CURVE SMOOTH",
"1638 882 LINE SMOOTH",
"1638 952 OFFCURVE",
"1628 1022 OFFCURVE",
"1598 1072 CURVE",
"1438 1072 LINE",
"1468 1022 OFFCURVE",
"1478 952 OFFCURVE",
"1478 882 CURVE SMOOTH",
"1478 502 LINE SMOOTH",
"1478 276 OFFCURVE",
"1368 136 OFFCURVE",
"1175 136 CURVE SMOOTH",
"1032 136 OFFCURVE",
"893 195 OFFCURVE",
"893 390 CURVE SMOOTH",
"893 672 LINE SMOOTH",
"893 920 OFFCURVE",
"734 1096 OFFCURVE",
"501 1096 CURVE SMOOTH",
"252 1096 OFFCURVE",
"75 886 OFFCURVE",
"75 586 CURVE SMOOTH",
"75 278 OFFCURVE",
"254 68 OFFCURVE",
"439 0 CURVE",
"555 0 LINE",
"403 101 OFFCURVE",
"235 318 OFFCURVE",
"235 586 CURVE SMOOTH",
"235 802 OFFCURVE",
"347 936 OFFCURVE",
"501 936 CURVE SMOOTH",
"643 936 OFFCURVE",
"733 835 OFFCURVE",
"733 672 CURVE SMOOTH",
"733 391 LINE SMOOTH",
"733 118 OFFCURVE",
"925 -24 OFFCURVE",
"1175 -24 CURVE SMOOTH",
"1336 -24 OFFCURVE",
"1463 44 OFFCURVE",
"1543 160 CURVE",
"1623 18 OFFCURVE",
"1762 -24 OFFCURVE",
"1894 -24 CURVE SMOOTH",
"2222 -24 OFFCURVE",
"2429 230 OFFCURVE",
"2429 558 CURVE SMOOTH"
);
}
);
width = 2504;
}
);
note = t3;
unicode = 0D21;
},
{
color = 6;
glyphname = t4;
lastChange = "2020-07-17 13:44:45 +0000";
layers = (
{
background = {
paths = (
{
closed = 1;
nodes = (
"1720 500 OFFCURVE",
"1894 325 OFFCURVE",
"2102 325 CURVE SMOOTH",
"2169 325 OFFCURVE",
"2222 340 OFFCURVE",
"2275 367 CURVE",
"2202 251 OFFCURVE",
"2053 174 OFFCURVE",
"1868 174 CURVE SMOOTH",
"1673 174 OFFCURVE",
"1598 310 OFFCURVE",
"1598 506 CURVE SMOOTH",
"1604 994 LINE SMOOTH",
"1604 1049 OFFCURVE",
"1559 1094 OFFCURVE",
"1504 1094 CURVE SMOOTH",
"1450 1094 OFFCURVE",
"1405 1050 OFFCURVE",
"1404 996 CURVE SMOOTH",
"1398 516 LINE SMOOTH",
"1396 358 OFFCURVE",
"1372 179 OFFCURVE",
"1220 179 CURVE SMOOTH",
"1118 179 OFFCURVE",
"1064 286 OFFCURVE",
"1064 387 CURVE SMOOTH",
"1064 443 OFFCURVE",
"1083 514 OFFCURVE",
"1083 602 CURVE SMOOTH",
"1083 871 OFFCURVE",
"865 1087 OFFCURVE",
"595 1087 CURVE SMOOTH",
"306 1087 OFFCURVE",
"75 840 OFFCURVE",
"75 547 CURVE SMOOTH",
"75 244 OFFCURVE",
"307 11 OFFCURVE",
"582 -21 CURVE",
"595 -21 LINE SMOOTH",
"650 -21 OFFCURVE",
"695 24 OFFCURVE",
"695 79 CURVE SMOOTH",
"695 129 OFFCURVE",
"655 173 OFFCURVE",
"605 178 CURVE SMOOTH",
"427 198 OFFCURVE",
"275 350 OFFCURVE",
"275 546 CURVE SMOOTH",
"275 729 OFFCURVE",
"416 887 OFFCURVE",
"594 887 CURVE SMOOTH",
"750 887 OFFCURVE",
"883 763 OFFCURVE",
"883 610 CURVE SMOOTH",
"883 553 OFFCURVE",
"864 480 OFFCURVE",
"864 389 CURVE SMOOTH",
"864 181 OFFCURVE",
"998 -21 OFFCURVE",
"1221 -21 CURVE SMOOTH",
"1347 -21 OFFCURVE",
"1447 52 OFFCURVE",
"1504 131 CURVE",
"1586 33 OFFCURVE",
"1706 -26 OFFCURVE",
"1868 -26 CURVE SMOOTH",
"2252 -26 OFFCURVE",
"2538 216 OFFCURVE",
"2538 599 CURVE SMOOTH",
"2538 861 OFFCURVE",
"2377 1094 OFFCURVE",
"2107 1094 CURVE SMOOTH",
"1889 1094 OFFCURVE",
"1720 918 OFFCURVE",
"1720 708 CURVE SMOOTH"
);
},
{
closed = 1;
nodes = (
"2002 525 OFFCURVE",
"1920 609 OFFCURVE",
"1920 710 CURVE SMOOTH",
"1920 805 OFFCURVE",
"1991 894 OFFCURVE",
"2087 893 CURVE SMOOTH",
"2193 892 OFFCURVE",
"2282 840 OFFCURVE",
"2282 706 CURVE SMOOTH",
"2282 608 OFFCURVE",
"2201 525 OFFCURVE",
"2103 525 CURVE SMOOTH"
);
}
);
};
components = (
{
name = _part.osmall;
transform = "{-1, 0, 0, -1, 2502, 1071}";
}
);
layerId = "6CB67BB4-1561-4377-8865-B188364DD954";
paths = (
{
closed = 1;
nodes = (
"2429 778 OFFCURVE",
"2327 1000 OFFCURVE",
"2143 1072 CURVE",
"2025 1072 LINE",
"2160 945 OFFCURVE",
"2269 819 OFFCURVE",
"2269 558 CURVE SMOOTH",
"2269 331 OFFCURVE",
"2116 136 OFFCURVE",
"1894 136 CURVE SMOOTH",
"1731 136 OFFCURVE",
"1638 241 OFFCURVE",
"1638 387 CURVE SMOOTH",
"1638 882 LINE SMOOTH",
"1638 952 OFFCURVE",
"1628 1022 OFFCURVE",
"1598 1072 CURVE",
"1438 1072 LINE",
"1468 1022 OFFCURVE",
"1478 952 OFFCURVE",
"1478 882 CURVE SMOOTH",
"1478 502 LINE SMOOTH",
"1478 276 OFFCURVE",
"1368 136 OFFCURVE",
"1175 136 CURVE SMOOTH",
"1032 136 OFFCURVE",
"893 195 OFFCURVE",
"893 390 CURVE SMOOTH",
"893 672 LINE SMOOTH",
"893 920 OFFCURVE",
"734 1096 OFFCURVE",
"501 1096 CURVE SMOOTH",
"252 1096 OFFCURVE",
"75 886 OFFCURVE",
"75 586 CURVE SMOOTH",
"75 278 OFFCURVE",
"254 68 OFFCURVE",
"439 0 CURVE",
"555 0 LINE",
"403 101 OFFCURVE",
"235 318 OFFCURVE",
"235 586 CURVE SMOOTH",
"235 802 OFFCURVE",
"347 936 OFFCURVE",
"501 936 CURVE SMOOTH",
"643 936 OFFCURVE",
"733 835 OFFCURVE",
"733 672 CURVE SMOOTH",
"733 391 LINE SMOOTH",
"733 118 OFFCURVE",
"925 -24 OFFCURVE",
"1175 -24 CURVE SMOOTH",
"1336 -24 OFFCURVE",
"1463 44 OFFCURVE",
"1543 160 CURVE",
"1623 18 OFFCURVE",
"1762 -24 OFFCURVE",
"1894 -24 CURVE SMOOTH",
"2222 -24 OFFCURVE",
"2429 230 OFFCURVE",
"2429 558 CURVE SMOOTH"
);
}
);
width = 2504;
}
);
note = t4;
unicode = 0D22;
},
{
color = 5;
glyphname = nh;
lastChange = "2020-07-17 11:46:43 +0000";
layers = (
{
components = (
{
name = _part.na;
}
);
layerId = "6CB67BB4-1561-4377-8865-B188364DD954";
paths = (
{
closed = 1;
nodes = (
"1733 50 OFFCURVE",
"1723 120 OFFCURVE",
"1723 190 CURVE",
"1723 638 LINE",
"1563 858 LINE",
"1563 190 LINE",
"1563 120 OFFCURVE",
"1573 50 OFFCURVE",
"1603 0 CURVE",
"1763 0 LINE"
);
},
{
closed = 1;
nodes = (
"1129 654 LINE",
"1127 827 OFFCURVE",
"1187 935 OFFCURVE",
"1344 935 CURVE SMOOTH",
"1509 935 OFFCURVE",
"1563 823 OFFCURVE",
"1563 644 CURVE",
"1723 644 LINE",
"1723 921 OFFCURVE",
"1597 1095 OFFCURVE",
"1344 1095 CURVE SMOOTH",
"1094 1095 OFFCURVE",
"969 915 OFFCURVE",
"969 654 CURVE"
);
},
{
closed = 1;
nodes = (
"1141 50 OFFCURVE",
"1131 120 OFFCURVE",
"1131 190 CURVE",
"1129 654 LINE",
"971 729 LINE",
"971 190 LINE",
"971 120 OFFCURVE",
"981 50 OFFCURVE",
"1011 0 CURVE",
"1171 0 LINE"
);
},
{
closed = 1;
nodes = (
"2349 325 OFFCURVE",
"2212 121 OFFCURVE",
"2093 0 CURVE",
"2103 0 OFFCURVE",
"2123 0 OFFCURVE",
"2205 0 CURVE",
"2334 29 OFFCURVE",
"2529 249 OFFCURVE",
"2529 515 CURVE SMOOTH",
"2529 873 OFFCURVE",
"2316 1096 OFFCURVE",
"2018 1096 CURVE SMOOTH",
"1710 1096 OFFCURVE",
"1563 903 OFFCURVE",
"1563 515 CURVE",
"1563 505 OFFCURVE",
"1722 510 OFFCURVE",
"1722 520 CURVE",
"1722 777 OFFCURVE",
"1796 936 OFFCURVE",
"2018 936 CURVE SMOOTH",
"2200 936 OFFCURVE",
"2349 792 OFFCURVE",
"2349 515 CURVE SMOOTH"
);
}
);
width = 2604;
}
);
note = nh;
unicode = 0D23;
},
{
color = 5;
glyphname = th1;
lastChange = "2020-07-15 09:40:26 +0000";
layers = (
{
anchors = (
{
name = _lock;
position = "{799, 868}";
}
);
components = (
{
name = _part.thaa.vattam;
transform = "{1, 0, 0, 1, 0, -4}";
}
);
layerId = "6CB67BB4-1561-4377-8865-B188364DD954";
paths = (
{
closed = 1;
nodes = (
"799 851 LINE",
"851 900 OFFCURVE",
"944 935 OFFCURVE",
"1028 935 CURVE SMOOTH",
"1270 935 OFFCURVE",
"1369 750 OFFCURVE",
"1369 513 CURVE SMOOTH",
"1369 323 OFFCURVE",
"1232 119 OFFCURVE",
"1113 -2 CURVE",
"1123 -2 OFFCURVE",
"1143 -2 OFFCURVE",
"1225 -2 CURVE",
"1354 27 OFFCURVE",
"1549 267 OFFCURVE",
"1549 513 CURVE SMOOTH",
"1549 861 OFFCURVE",
"1355 1095 OFFCURVE",
"1028 1095 CURVE SMOOTH",
"836 1095 OFFCURVE",
"713 987 OFFCURVE",
"658 937 CURVE"
);
},
{
closed = 1;
nodes = (
"928 943 LINE",
"905 966 OFFCURVE",
"788 1096 OFFCURVE",
"600 1096 CURVE SMOOTH",
"292 1096 OFFCURVE",
"75 842 OFFCURVE",
"75 514 CURVE SMOOTH",
"75 294 OFFCURVE",
"199 72 OFFCURVE",
"383 0 CURVE",
"480 0 LINE",
"344 127 OFFCURVE",
"235 253 OFFCURVE",
"235 514 CURVE SMOOTH",
"235 741 OFFCURVE",
"366 944 OFFCURVE",
"589 944 CURVE SMOOTH",
"707 944 OFFCURVE",
"775 888 OFFCURVE",
"799 851 CURVE"
);
}
);
width = 1624;
}
);
note = th1;
unicode = 0D24;
},
{
color = 5;
glyphname = th2;
lastChange = "2020-06-17 09:19:26 +0000";
layers = (
{
background = {
paths = (
{
closed = 1;
nodes = (
"158 1101 OFFCURVE",
"115 1054 OFFCURVE",
"115 999 CURVE SMOOTH",
"120 100 LINE SMOOTH",
"120 45 OFFCURVE",
"165 1 OFFCURVE",
"220 1 CURVE SMOOTH",
"1473 0 LINE SMOOTH",
"1528 0 OFFCURVE",
"1573 45 OFFCURVE",
"1573 100 CURVE SMOOTH",
"1574 507 LINE SMOOTH",
"1574 850 OFFCURVE",
"1419 1098 OFFCURVE",
"1080 1098 CURVE SMOOTH",
"730 1098 OFFCURVE",
"581 848 OFFCURVE",
"584 496 CURVE SMOOTH",
"586 201 LINE",
"320 201 LINE",
"315 1000 LINE SMOOTH",
"315 1056 OFFCURVE",
"271 1101 OFFCURVE",
"215 1101 CURVE SMOOTH"
);
},
{
closed = 1;
nodes = (
"1304 898 OFFCURVE",
"1374 736 OFFCURVE",
"1374 508 CURVE SMOOTH",
"1373 200 LINE",
"786 200 LINE",
"784 498 LINE SMOOTH",
"782 735 OFFCURVE",
"849 898 OFFCURVE",
"1081 898 CURVE SMOOTH"
);
}
);
};
components = (
{
name = _part.main_stem;
transform = "{1, 0, 0, 1, -1335, 0}";
}
);
layerId = "6CB67BB4-1561-4377-8865-B188364DD954";
paths = (
{
closed = 1;
nodes = (
"298 0 LINE",
"1484 0 LINE",
"1574 150 LINE",
"270 150 LINE",
"270 0 LINE"
);
},
{
closed = 1;
nodes = (
"1652 0 LINE",
"1652 515 LINE",
"1472 512 LINE",
"1472 0 LINE"
);
},
{
closed = 1;
nodes = (
"1472 596 LINE",
"1472 190 LINE SMOOTH",
"1472 120 OFFCURVE",
"1482 50 OFFCURVE",
"1512 0 CURVE",
"1692 0 LINE",
"1662 50 OFFCURVE",
"1652 120 OFFCURVE",
"1652 190 CURVE SMOOTH",
"1652 516 LINE"
);
},
{
closed = 1;
nodes = (
"857 95 LINE",
"782 178 OFFCURVE",
"745 287 OFFCURVE",
"745 515 CURVE SMOOTH",
"745 742 OFFCURVE",
"878 936 OFFCURVE",
"1100 936 CURVE SMOOTH",
"1332 936 OFFCURVE",
"1471 752 OFFCURVE",
"1471 515 CURVE SMOOTH",
"1471 -170 OFFCURVE",
"1652 389 OFFCURVE",
"1652 515 CURVE",
"1652 843 OFFCURVE",
"1428 1096 OFFCURVE",
"1100 1096 CURVE SMOOTH",
"772 1096 OFFCURVE",
"585 843 OFFCURVE",
"585 515 CURVE SMOOTH",
"585 353 OFFCURVE",
"648 190 OFFCURVE",
"754 86 CURVE"
);
}
);
width = 1767;
}
);
note = th2;
unicode = 0D25;
},
{
color = 6;
glyphname = th3;
lastChange = "2020-07-17 11:46:15 +0000";
layers = (
{
anchors = (
{
name = _joint;
position = "{628, 2234}";
}
);
background = {
paths = (
{
closed = 1;
nodes = (
"793 897 OFFCURVE",
"905 839 OFFCURVE",
"905 731 CURVE SMOOTH",
"905 629 OFFCURVE",
"843 602 OFFCURVE",
"727 593 CURVE SMOOTH",
"680 589 OFFCURVE",
"643 542 OFFCURVE",
"643 495 CURVE SMOOTH",
"643 421 OFFCURVE",
"698 395 OFFCURVE",
"773 395 CURVE SMOOTH",
"868 395 OFFCURVE",
"940 380 OFFCURVE",
"940 290 CURVE SMOOTH",
"940 225 OFFCURVE",
"881 176 OFFCURVE",
"817 176 CURVE SMOOTH",
"793 176 OFFCURVE",
"768 183 OFFCURVE",
"746 198 CURVE SMOOTH",
"732 208 OFFCURVE",
"706 215 OFFCURVE",
"689 215 CURVE SMOOTH",
"634 215 OFFCURVE",
"589 170 OFFCURVE",
"589 115 CURVE SMOOTH",
"589 15 OFFCURVE",
"739 -26 OFFCURVE",
"817 -26 CURVE SMOOTH",
"988 -26 OFFCURVE",
"1140 115 OFFCURVE",
"1140 291 CURVE SMOOTH",
"1140 391 OFFCURVE",
"1092 472 OFFCURVE",
"1032 520 CURVE",
"1081 579 OFFCURVE",
"1106 653 OFFCURVE",
"1106 729 CURVE SMOOTH",
"1106 955 OFFCURVE",
"905 1098 OFFCURVE",
"689 1098 CURVE SMOOTH",
"335 1098 OFFCURVE",
"75 801 OFFCURVE",
"75 444 CURVE SMOOTH",
"75 293 OFFCURVE",
"124 142 OFFCURVE",
"217 20 CURVE SMOOTH",
"234 -2 OFFCURVE",
"270 -20 OFFCURVE",
"298 -20 CURVE SMOOTH",
"353 -20 OFFCURVE",
"398 25 OFFCURVE",
"398 80 CURVE SMOOTH",
"398 99 OFFCURVE",
"388 127 OFFCURVE",
"376 142 CURVE SMOOTH",
"307 232 OFFCURVE",
"276 337 OFFCURVE",
"276 439 CURVE SMOOTH",
"276 668 OFFCURVE",
"436 897 OFFCURVE",
"685 897 CURVE SMOOTH"
);
}
);
};
components = (
{
name = _part.o_dha_nga;
transform = "{1, 0, 0, 1, 239, 0}";
}
);
layerId = "6CB67BB4-1561-4377-8865-B188364DD954";
paths = (
{
closed = 1;
nodes = (
"640 1096 LINE",
"312 1096 OFFCURVE",
"75 842 OFFCURVE",
"75 514 CURVE SMOOTH",
"75 294 OFFCURVE",
"199 72 OFFCURVE",
"383 0 CURVE",
"479 0 LINE",
"344 127 OFFCURVE",
"235 253 OFFCURVE",
"235 514 CURVE SMOOTH",
"235 741 OFFCURVE",
"418 936 OFFCURVE",
"640 936 CURVE"
);
}
);
width = 1196;
}
);
note = th3;
unicode = 0D26;
},
{
color = 6;
glyphname = th4;
lastChange = "2020-07-22 07:02:17 +0000";
layers = (
{
background = {
paths = (
{
closed = 1;
nodes = (
"75 254 OFFCURVE",
"262 0 OFFCURVE",
"570 0 CURVE SMOOTH",
"862 0 OFFCURVE",
"1009 220 OFFCURVE",
"1009 419 CURVE",
"940 609 LINE",
"895 606 OFFCURVE",
"861 602 OFFCURVE",
"851 602 CURVE",
"851 365 OFFCURVE",
"762 160 OFFCURVE",
"570 160 CURVE SMOOTH",
"368 160 OFFCURVE",
"235 355 OFFCURVE",
"235 582 CURVE SMOOTH",
"235 843 OFFCURVE",
"344 969 OFFCURVE",
"479 1096 CURVE",
"383 1096 LINE",
"199 1024 OFFCURVE",
"75 802 OFFCURVE",
"75 582 CURVE SMOOTH"
);
},
{
closed = 1;
nodes = (
"1010 976 OFFCURVE",
"1000 1046 OFFCURVE",
"970 1096 CURVE",
"810 1096 LINE",
"840 1046 OFFCURVE",
"850 976 OFFCURVE",
"850 906 CURVE SMOOTH",
"850 459 LINE",
"1010 239 LINE",
"1010 906 LINE SMOOTH"
);
},
{
closed = 1;
nodes = (
"1084 160 OFFCURVE",
"1010 368 OFFCURVE",
"1010 597 CURVE",
"1001 597 OFFCURVE",
"872 592 OFFCURVE",
"861 592 CURVE",
"861 189 OFFCURVE",
"1021 0 OFFCURVE",
"1320 0 CURVE",
"1612 0 OFFCURVE",
"1816 204 OFFCURVE",
"1816 562 CURVE SMOOTH",
"1816 838 OFFCURVE",
"1611 1067 OFFCURVE",
"1482 1096 CURVE",
"1370 1096 LINE",
"1489 975 OFFCURVE",
"1636 783 OFFCURVE",
"1636 562 CURVE SMOOTH",
"1636 303 OFFCURVE",
"1530 160 OFFCURVE",
"1316 160 CURVE"
);
}
);
};
guideLines = (
{
position = "{780, 1073}";
}
);
layerId = "6CB67BB4-1561-4377-8865-B188364DD954";
paths = (
{
closed = 1;
nodes = (
"75 254 OFFCURVE",
"262 0 OFFCURVE",
"570 0 CURVE SMOOTH",
"862 0 OFFCURVE",
"1009 220 OFFCURVE",
"1009 419 CURVE",
"940 609 LINE",
"895 606 OFFCURVE",
"861 602 OFFCURVE",
"851 602 CURVE",
"851 365 OFFCURVE",
"762 160 OFFCURVE",
"570 160 CURVE SMOOTH",
"368 160 OFFCURVE",
"235 355 OFFCURVE",
"235 582 CURVE SMOOTH",
"235 843 OFFCURVE",
"344 969 OFFCURVE",
"479 1096 CURVE",
"383 1096 LINE",
"199 1024 OFFCURVE",
"75 802 OFFCURVE",
"75 582 CURVE SMOOTH"
);
},
{
closed = 1;
nodes = (
"1010 976 OFFCURVE",
"1000 1046 OFFCURVE",
"970 1096 CURVE",
"810 1096 LINE",
"840 1046 OFFCURVE",
"850 976 OFFCURVE",
"850 906 CURVE SMOOTH",
"850 459 LINE",
"1010 239 LINE",
"1010 906 LINE SMOOTH"
);
},
{
closed = 1;
nodes = (
"1084 160 OFFCURVE",
"1010 368 OFFCURVE",
"1010 597 CURVE",
"1001 597 OFFCURVE",
"872 592 OFFCURVE",
"861 592 CURVE",
"861 189 OFFCURVE",
"1021 0 OFFCURVE",
"1320 0 CURVE",
"1612 0 OFFCURVE",
"1816 234 OFFCURVE",
"1816 562 CURVE SMOOTH",
"1816 838 OFFCURVE",
"1611 1067 OFFCURVE",
"1482 1096 CURVE",
"1370 1096 LINE",
"1489 975 OFFCURVE",
"1636 783 OFFCURVE",
"1636 562 CURVE SMOOTH",
"1636 343 OFFCURVE",
"1530 160 OFFCURVE",
"1316 160 CURVE"
);
}
);
width = 1891;
}
);
note = th4;
unicode = 0D27;
},
{
color = 5;
glyphname = n1;
lastChange = "2020-07-22 07:02:11 +0000";
layers = (
{
background = {
paths = (
{
closed = 1;
nodes = (
"75 294 OFFCURVE",
"199 72 OFFCURVE",
"383 0 CURVE",
"479 0 LINE",
"344 127 OFFCURVE",
"235 253 OFFCURVE",
"235 514 CURVE SMOOTH",
"235 741 OFFCURVE",
"368 936 OFFCURVE",
"570 936 CURVE SMOOTH",
"762 936 OFFCURVE",
"851 731 OFFCURVE",
"851 494 CURVE",
"861 494 OFFCURVE",
"895 490 OFFCURVE",
"940 487 CURVE",
"997 770 LINE",
"916 948 OFFCURVE",
"817 1096 OFFCURVE",
"570 1096 CURVE SMOOTH",
"262 1096 OFFCURVE",
"75 842 OFFCURVE",
"75 514 CURVE SMOOTH"
);
},
{
closed = 1;
nodes = (
"851 120 OFFCURVE",
"861 50 OFFCURVE",
"891 0 CURVE",
"1051 0 LINE",
"1021 50 OFFCURVE",
"1011 120 OFFCURVE",
"1011 190 CURVE SMOOTH",
"1011 637 LINE",
"851 857 LINE",
"851 190 LINE SMOOTH"
);
},
{
closed = 1;
nodes = (
"1559 936 OFFCURVE",
"1636 750 OFFCURVE",
"1636 513 CURVE SMOOTH",
"1636 323 OFFCURVE",
"1509 121 OFFCURVE",
"1390 0 CURVE",
"1400 0 OFFCURVE",
"1420 0 OFFCURVE",
"1502 0 CURVE",
"1631 29 OFFCURVE",
"1836 268 OFFCURVE",
"1836 514 CURVE SMOOTH",
"1836 814 OFFCURVE",
"1678 1096 OFFCURVE",
"1330 1096 CURVE SMOOTH",
"1330 1096 OFFCURVE",
"1326 1096 OFFCURVE",
"1326 1096 CURVE SMOOTH",
"978 1096 OFFCURVE",
"861 862 OFFCURVE",
"861 504 CURVE",
"872 504 OFFCURVE",
"1001 499 OFFCURVE",
"1010 499 CURVE",
"1010 728 OFFCURVE",
"1094 936 OFFCURVE",
"1326 936 CURVE"
);
}
);
};
layerId = "6CB67BB4-1561-4377-8865-B188364DD954";
paths = (
{
closed = 1;
nodes = (
"851 120 OFFCURVE",
"861 50 OFFCURVE",
"891 0 CURVE",
"1051 0 LINE",
"1021 50 OFFCURVE",
"1011 120 OFFCURVE",
"1011 190 CURVE SMOOTH",
"1011 637 LINE",
"851 857 LINE",
"851 190 LINE SMOOTH"
);
},
{
closed = 1;
nodes = (
"1523 936 OFFCURVE",
"1636 781 OFFCURVE",
"1636 534 CURVE SMOOTH",
"1636 313 OFFCURVE",
"1489 121 OFFCURVE",
"1370 0 CURVE",
"1482 0 LINE",
"1611 29 OFFCURVE",
"1816 258 OFFCURVE",
"1816 534 CURVE SMOOTH",
"1816 879 OFFCURVE",
"1635 1096 OFFCURVE",
"1330 1096 CURVE",
"1031 1096 OFFCURVE",
"861 907 OFFCURVE",
"861 504 CURVE",
"872 504 OFFCURVE",
"1001 499 OFFCURVE",
"1010 499 CURVE",
"1010 728 OFFCURVE",
"1084 936 OFFCURVE",
"1326 936 CURVE"
);
},
{
closed = 1;
nodes = (
"75 294 OFFCURVE",
"199 72 OFFCURVE",
"383 0 CURVE",
"479 0 LINE",
"344 127 OFFCURVE",
"235 253 OFFCURVE",
"235 514 CURVE SMOOTH",
"235 767 OFFCURVE",
"369 936 OFFCURVE",
"570 936 CURVE SMOOTH",
"762 936 OFFCURVE",
"851 782 OFFCURVE",
"851 544 CURVE",
"861 544 OFFCURVE",
"895 540 OFFCURVE",
"940 537 CURVE",
"993 820 LINE",
"912 998 OFFCURVE",
"767 1096 OFFCURVE",
"570 1096 CURVE SMOOTH",
"273 1096 OFFCURVE",
"75 863 OFFCURVE",
"75 514 CURVE SMOOTH"
);
}
);
width = 1891;
}
);
note = n1;
unicode = 0D28;
},
{
color = 5;
glyphname = p1;
lastChange = "2020-06-27 14:34:18 +0000";
layers = (
{
components = (
{
name = _part_ra;
transform = "{1, 0, 0, 1, 30, 0}";
},
{
name = _part.main_stem;
transform = "{1, 0, 0, 1, -70, 0}";
}
);
layerId = "6CB67BB4-1561-4377-8865-B188364DD954";
paths = (
{
closed = 1;
nodes = (
"1540 0 LINE",
"1540 150 LINE",
"655 150 LINE",
"655 0 LINE"
);
}
);
width = 1675;
}
);
note = p1;
unicode = 0D2A;
},
{
color = 5;
glyphname = p2;
lastChange = "2020-06-27 14:34:42 +0000";
layers = (
{
background = {
paths = (
{
closed = 1;
nodes = (
"2060 1 LINE SMOOTH",
"2115 1 OFFCURVE",
"2160 46 OFFCURVE",
"2160 101 CURVE SMOOTH",
"2163 477 LINE SMOOTH",
"2163 839 OFFCURVE",
"1975 1093 OFFCURVE",
"1616 1093 CURVE SMOOTH",
"1246 1093 OFFCURVE",
"1078 825 OFFCURVE",
"1078 451 CURVE SMOOTH",
"1077 202 LINE",
"858 203 LINE",
"882 255 OFFCURVE",
"894 311 OFFCURVE",
"894 367 CURVE SMOOTH",
"894 585 OFFCURVE",
"720 756 OFFCURVE",
"505 756 CURVE SMOOTH",
"289 756 OFFCURVE",
"115 583 OFFCURVE",
"115 365 CURVE SMOOTH",
"115 186 OFFCURVE",
"240 45 OFFCURVE",
"379 -2 CURVE SMOOTH",
"388 -5 OFFCURVE",
"403 -8 OFFCURVE",
"413 -8 CURVE SMOOTH",
"468 -8 OFFCURVE",
"513 37 OFFCURVE",
"513 92 CURVE SMOOTH",
"513 132 OFFCURVE",
"482 176 OFFCURVE",
"444 188 CURVE SMOOTH",
"376 211 OFFCURVE",
"315 280 OFFCURVE",
"315 366 CURVE SMOOTH",
"315 466 OFFCURVE",
"399 556 OFFCURVE",
"505 556 CURVE SMOOTH",
"610 556 OFFCURVE",
"694 472 OFFCURVE",
"694 366 CURVE SMOOTH",
"694 285 OFFCURVE",
"641 221 OFFCURVE",
"584 195 CURVE SMOOTH",
"552 180 OFFCURVE",
"526 139 OFFCURVE",
"526 104 CURVE SMOOTH",
"526 49 OFFCURVE",
"570 5 OFFCURVE",
"625 4 CURVE SMOOTH"
);
},
{
closed = 1;
nodes = (
"1870 893 OFFCURVE",
"1963 717 OFFCURVE",
"1963 460 CURVE SMOOTH",
"1961 201 LINE",
"1277 201 LINE",
"1278 451 LINE SMOOTH",
"1278 713 OFFCURVE",
"1361 893 OFFCURVE",
"1617 893 CURVE SMOOTH"
);
}
);
};
components = (
{
name = _part_ra;
transform = "{1, 0, 0, 1, 30, 0}";
}
);
layerId = "6CB67BB4-1561-4377-8865-B188364DD954";
paths = (
{
closed = 1;
nodes = (
"2058 0 LINE",
"2058 150 LINE",
"642 150 LINE",
"642 0 LINE"
);
},
{
closed = 1;
nodes = (
"1043 353 OFFCURVE",
"1106 190 OFFCURVE",
"1212 86 CURVE",
"1315 95 LINE",
"1240 178 OFFCURVE",
"1203 287 OFFCURVE",
"1203 515 CURVE SMOOTH",
"1203 742 OFFCURVE",
"1356 936 OFFCURVE",
"1578 936 CURVE SMOOTH",
"1810 936 OFFCURVE",
"1930 752 OFFCURVE",
"1930 515 CURVE SMOOTH",
"1930 -170 OFFCURVE",
"2053 539 OFFCURVE",
"2110 515 CURVE",
"2110 843 OFFCURVE",
"1906 1096 OFFCURVE",
"1578 1096 CURVE SMOOTH",
"1250 1096 OFFCURVE",
"1043 843 OFFCURVE",
"1043 515 CURVE SMOOTH"
);
},
{
closed = 1;
nodes = (
"1930 120 OFFCURVE",
"1940 50 OFFCURVE",
"1970 0 CURVE",
"2150 0 LINE",
"2120 50 OFFCURVE",
"2110 120 OFFCURVE",
"2110 190 CURVE SMOOTH",
"2110 516 LINE",
"1930 596 LINE",
"1930 190 LINE SMOOTH"
);
}
);
width = 2225;
}
);
note = p2;
unicode = 0D2B;
},
{
color = 5;
glyphname = p3;
lastChange = "2020-07-13 12:03:39 +0000";
layers = (
{
background = {
paths = (
{
closed = 1;
nodes = (
"342 1095 OFFCURVE",
"75 809 OFFCURVE",
"75 464 CURVE SMOOTH",
"75 213 OFFCURVE",
"235 -3 OFFCURVE",
"490 -3 CURVE SMOOTH",
"695 -3 OFFCURVE",
"842 150 OFFCURVE",
"842 350 CURVE SMOOTH",
"842 553 OFFCURVE",
"682 711 OFFCURVE",
"479 711 CURVE SMOOTH",
"429 711 OFFCURVE",
"379 700 OFFCURVE",
"333 680 CURVE",
"397 794 OFFCURVE",
"528 895 OFFCURVE",
"686 895 CURVE SMOOTH",
"934 895 OFFCURVE",
"1013 710 OFFCURVE",
"1014 457 CURVE SMOOTH",
"1015 86 LINE SMOOTH",
"1016 32 OFFCURVE",
"1061 -12 OFFCURVE",
"1115 -12 CURVE SMOOTH",
"1170 -12 OFFCURVE",
"1214 31 OFFCURVE",
"1215 86 CURVE SMOOTH",
"1215 457 LINE SMOOTH",
"1215 695 OFFCURVE",
"1283 889 OFFCURVE",
"1515 889 CURVE SMOOTH",
"1697 889 OFFCURVE",
"1839 732 OFFCURVE",
"1839 549 CURVE SMOOTH",
"1839 359 OFFCURVE",
"1693 213 OFFCURVE",
"1525 188 CURVE SMOOTH",
"1478 181 OFFCURVE",
"1440 137 OFFCURVE",
"1440 89 CURVE SMOOTH",
"1440 34 OFFCURVE",
"1484 -11 OFFCURVE",
"1539 -11 CURVE SMOOTH",
"2382 -14 LINE",
"2383 -14 LINE SMOOTH",
"2438 -14 OFFCURVE",
"2483 31 OFFCURVE",
"2483 86 CURVE SMOOTH",
"2483 995 LINE SMOOTH",
"2483 1050 OFFCURVE",
"2438 1095 OFFCURVE",
"2383 1095 CURVE SMOOTH",
"2328 1095 OFFCURVE",
"2283 1050 OFFCURVE",
"2283 995 CURVE SMOOTH",
"2283 187 LINE",
"1907 188 LINE",
"1990 288 OFFCURVE",
"2039 407 OFFCURVE",
"2039 551 CURVE SMOOTH",
"2039 839 OFFCURVE",
"1807 1090 OFFCURVE",
"1517 1090 CURVE SMOOTH",
"1331 1090 OFFCURVE",
"1192 992 OFFCURVE",
"1113 875 CURVE",
"1029 998 OFFCURVE",
"880 1095 OFFCURVE",
"685 1095 CURVE SMOOTH"
);
},
{
closed = 1;
nodes = (
"642 261 OFFCURVE",
"576 197 OFFCURVE",
"489 197 CURVE SMOOTH",
"402 197 OFFCURVE",
"317 254 OFFCURVE",
"317 348 CURVE SMOOTH",
"317 442 OFFCURVE",
"386 511 OFFCURVE",
"481 511 CURVE SMOOTH",
"572 511 OFFCURVE",
"642 439 OFFCURVE",
"642 347 CURVE SMOOTH"
);
}
);
};
components = (
{
name = _part.main_stem;
transform = "{1, 0, 0, 1, 736, 0}";
},
{
name = _part.osmall;
transform = "{1, 0, 0, 1, 0, 1}";
}
);
layerId = "6CB67BB4-1561-4377-8865-B188364DD954";
paths = (
{
closed = 1;
nodes = (
"1141 50 OFFCURVE",
"1131 120 OFFCURVE",
"1131 190 CURVE",
"1131 804 LINE",
"971 729 LINE",
"971 190 LINE",
"971 120 OFFCURVE",
"981 50 OFFCURVE",
"1011 0 CURVE",
"1171 0 LINE"
);
},
{
closed = 1;
nodes = (
"2303 0 LINE",
"2303 150 LINE",
"1579 150 LINE",
"1510 0 LINE"
);
},
{
closed = 1;
nodes = (
"1131 604 LINE",
"1131 730 OFFCURVE",
"1209 936 OFFCURVE",
"1434 936 CURVE SMOOTH",
"1619 936 OFFCURVE",
"1703 749 OFFCURVE",
"1684 565 CURVE SMOOTH",
"1664 375 OFFCURVE",
"1538 117 OFFCURVE",
"1424 3 CURVE SMOOTH",
"1423 2 OFFCURVE",
"1422 1 OFFCURVE",
"1420 0 CURVE",
"1536 0 LINE",
"1665 31 OFFCURVE",
"1844 299 OFFCURVE",
"1864 565 CURVE SMOOTH",
"1886 859 OFFCURVE",
"1729 1096 OFFCURVE",
"1434 1096 CURVE SMOOTH",
"1147 1096 OFFCURVE",
"976 847 OFFCURVE",
"981 604 CURVE"
);
},
{
closed = 1;
nodes = (
"339 105 LINE",
"256 203 OFFCURVE",
"235 327 OFFCURVE",
"235 515 CURVE SMOOTH",
"235 742 OFFCURVE",
"388 936 OFFCURVE",
"610 936 CURVE SMOOTH",
"842 936 OFFCURVE",
"971 752 OFFCURVE",
"971 515 CURVE SMOOTH",
"971 515 OFFCURVE",
"1083 502 OFFCURVE",
"1129 502 CURVE",
"1113 771 LINE",
"1032 949 OFFCURVE",
"847 1096 OFFCURVE",
"610 1096 CURVE SMOOTH",
"282 1096 OFFCURVE",
"75 843 OFFCURVE",
"75 515 CURVE SMOOTH",
"75 335 OFFCURVE",
"168 131 OFFCURVE",
"299 33 CURVE"
);
}
);
width = 2501;
}
);
note = p3;
unicode = 0D2C;
},
{
color = 6;
glyphname = p4;
lastChange = "2020-07-17 19:04:44 +0000";
layers = (
{
background = {
paths = (
{
closed = 1;
nodes = (
"1023 -24 OFFCURVE",
"1202 70 OFFCURVE",
"1202 215 CURVE SMOOTH",
"1202 390 OFFCURVE",
"1103 437 OFFCURVE",
"910 437 CURVE SMOOTH",
"715 437 OFFCURVE",
"652 456 OFFCURVE",
"652 516 CURVE SMOOTH",
"652 573 OFFCURVE",
"709 591 OFFCURVE",
"885 591 CURVE SMOOTH",
"1103 591 OFFCURVE",
"1202 664 OFFCURVE",
"1202 827 CURVE SMOOTH",
"1202 1024 OFFCURVE",
"1016 1096 OFFCURVE",
"710 1096 CURVE SMOOTH",
"323 1096 OFFCURVE",
"75 842 OFFCURVE",
"75 514 CURVE SMOOTH",
"75 294 OFFCURVE",
"198 72 OFFCURVE",
"383 0 CURVE",
"479 0 LINE",
"344 127 OFFCURVE",
"235 253 OFFCURVE",
"235 514 CURVE SMOOTH",
"235 741 OFFCURVE",
"389 933 OFFCURVE",
"710 933 CURVE SMOOTH",
"917 933 OFFCURVE",
"1022 901 OFFCURVE",
"1022 832 CURVE SMOOTH",
"1022 763 OFFCURVE",
"953 731 OFFCURVE",
"825 731 CURVE SMOOTH",
"578 731 OFFCURVE",
"472 666 OFFCURVE",
"472 516 CURVE SMOOTH",
"472 363 OFFCURVE",
"564 297 OFFCURVE",
"780 297 CURVE SMOOTH",
"956 297 OFFCURVE",
"1022 277 OFFCURVE",
"1022 213 CURVE SMOOTH",
"1022 147 OFFCURVE",
"968 126 OFFCURVE",
"831 126 CURVE",
"720 122 OFFCURVE",
"629 152 OFFCURVE",
"548 190 CURVE",
"548 70 LINE",
"581 47 OFFCURVE",
"660 -24 OFFCURVE",
"831 -24 CURVE"
);
}
);
};
layerId = "6CB67BB4-1561-4377-8865-B188364DD954";
paths = (
{
closed = 1;
nodes = (
"1004 -24 OFFCURVE",
"1132 56 OFFCURVE",
"1132 209 CURVE SMOOTH",
"1132 349 OFFCURVE",
"1055 416 OFFCURVE",
"908 435 CURVE SMOOTH",
"754 455 OFFCURVE",
"652 472 OFFCURVE",
"652 519 CURVE SMOOTH",
"652 569 OFFCURVE",
"754 588 OFFCURVE",
"908 610 CURVE SMOOTH",
"1042 629 OFFCURVE",
"1132 708 OFFCURVE",
"1132 835 CURVE SMOOTH",
"1132 1007 OFFCURVE",
"954 1096 OFFCURVE",
"710 1096 CURVE SMOOTH",
"323 1096 OFFCURVE",
"75 842 OFFCURVE",
"75 514 CURVE SMOOTH",
"75 294 OFFCURVE",
"198 72 OFFCURVE",
"383 0 CURVE",
"479 0 LINE",
"344 127 OFFCURVE",
"235 253 OFFCURVE",
"235 514 CURVE SMOOTH",
"235 741 OFFCURVE",
"389 933 OFFCURVE",
"710 933 CURVE SMOOTH",
"836 933 OFFCURVE",
"952 901 OFFCURVE",
"952 841 CURVE SMOOTH",
"952 784 OFFCURVE",
"895 756 OFFCURVE",
"809 746 CURVE SMOOTH",
"632 725 OFFCURVE",
"492 654 OFFCURVE",
"492 517 CURVE SMOOTH",
"492 394 OFFCURVE",
"624 320 OFFCURVE",
"789 299 CURVE SMOOTH",
"909 284 OFFCURVE",
"972 259 OFFCURVE",
"972 197 CURVE SMOOTH",
"972 138 OFFCURVE",
"892 107 OFFCURVE",
"814 107 CURVE SMOOTH",
"714 107 OFFCURVE",
"651 153 OFFCURVE",
"598 190 CURVE",
"598 70 LINE",
"625 33 OFFCURVE",
"670 -24 OFFCURVE",
"836 -24 CURVE"
);
}
);
width = 1207;
}
);
note = p4;
unicode = 0D2D;
},
{
color = 5;
glyphname = m1;
lastChange = "2020-07-10 19:10:11 +0000";
layers = (
{
background = {
paths = (
{
closed = 1;
nodes = (
"369 1094 OFFCURVE",
"91 811 OFFCURVE",
"91 486 CURVE SMOOTH",
"91 100 LINE SMOOTH",
"91 45 OFFCURVE",
"136 0 OFFCURVE",
"191 0 CURVE SMOOTH",
"1247 0 LINE SMOOTH",
"1302 0 OFFCURVE",
"1346 45 OFFCURVE",
"1347 100 CURVE SMOOTH",
"1349 464 LINE SMOOTH",
"1351 811 OFFCURVE",
"1069 1094 OFFCURVE",
"721 1094 CURVE SMOOTH"
);
},
{
closed = 1;
nodes = (
"757 889 OFFCURVE",
"810 807 OFFCURVE",
"810 714 CURVE SMOOTH",
"810 435 OFFCURVE",
"515 235 OFFCURVE",
"291 201 CURVE",
"291 482 LINE SMOOTH",
"291 689 OFFCURVE",
"452 889 OFFCURVE",
"662 889 CURVE SMOOTH"
);
},
{
closed = 1;
nodes = (
"1084 717 OFFCURVE",
"1148 596 OFFCURVE",
"1148 486 CURVE SMOOTH",
"1147 200 LINE",
"744 200 LINE",
"873 312 OFFCURVE",
"1010 487 OFFCURVE",
"1010 714 CURVE SMOOTH",
"1010 738 OFFCURVE",
"1008 762 OFFCURVE",
"1004 786 CURVE"
);
}
);
};
layerId = "6CB67BB4-1561-4377-8865-B188364DD954";
paths = (
{
closed = 1;
nodes = (
"1159 0 LINE",
"1159 150 LINE",
"204 150 LINE",
"204 0 LINE"
);
},
{
closed = 1;
nodes = (
"75 0 LINE",
"205 0 LINE",
"205 533 LINE",
"75 533 LINE"
);
},
{
closed = 1;
nodes = (
"1218 480 LINE",
"1220 498 OFFCURVE",
"1221 516 OFFCURVE",
"1221 534 CURVE SMOOTH",
"1221 871 OFFCURVE",
"1001 1096 OFFCURVE",
"670 1096 CURVE SMOOTH",
"352 1096 OFFCURVE",
"75 862 OFFCURVE",
"75 534 CURVE SMOOTH",
"75 523 OFFCURVE",
"75 511 OFFCURVE",
"76 500 CURVE",
"203 500 LINE",
"202 511 OFFCURVE",
"205 522 OFFCURVE",
"205 534 CURVE SMOOTH",
"205 751 OFFCURVE",
"378 936 OFFCURVE",
"670 936 CURVE SMOOTH",
"893 936 OFFCURVE",
"1041 775 OFFCURVE",
"1041 534 CURVE SMOOTH",
"1041 516 OFFCURVE",
"1050 498 OFFCURVE",
"1048 480 CURVE"
);
},
{
closed = 1;
nodes = (
"1041 120 OFFCURVE",
"1051 50 OFFCURVE",
"1081 0 CURVE",
"1261 0 LINE",
"1231 50 OFFCURVE",
"1221 120 OFFCURVE",
"1221 190 CURVE SMOOTH",
"1221 534 LINE",
"1041 596 LINE",
"1041 190 LINE SMOOTH"
);
},
{
closed = 1;
nodes = (
"299 938 OFFCURVE",
"298 873 CURVE",
"424 847 OFFCURVE",
"587 706 OFFCURVE",
"587 569 CURVE SMOOTH",
"587 363 OFFCURVE",
"375 192 OFFCURVE",
"280 107 CURVE",
"478 148 LINE",
"556 207 OFFCURVE",
"752 364 OFFCURVE",
"752 569 CURVE SMOOTH",
"752 806 OFFCURVE",
"564 972 OFFCURVE",
"343 933 CURVE",
"343 933 OFFCURVE"
);
}
);
width = 1336;
}
);
note = m1;
unicode = 0D2E;
},
{
color = 6;
glyphname = y1;
lastChange = "2020-06-23 18:41:22 +0000";
layers = (
{
background = {
paths = (
{
closed = 1;
nodes = (
"837 68 CURVE",
"892 22 OFFCURVE",
"880 -5 OFFCURVE",
"910 25 CURVE",
"982 -12 OFFCURVE",
"1008 -24 OFFCURVE",
"1176 -24 CURVE SMOOTH",
"1504 -24 OFFCURVE",
"1761 230 OFFCURVE",
"1761 558 CURVE SMOOTH",
"1761 779 OFFCURVE",
"1646 1002 OFFCURVE",
"1460 1073 CURVE",
"1366 1073 LINE",
"1502 945 OFFCURVE",
"1601 819 OFFCURVE",
"1601 558 CURVE SMOOTH",
"1601 310 OFFCURVE",
"1359 87 OFFCURVE",
"1062 118 CURVE",
"1086 142 OFFCURVE",
"948 101 OFFCURVE"
);
},
{
closed = 1;
nodes = (
"752 796 OFFCURVE",
"839 956 OFFCURVE",
"989 956 CURVE SMOOTH",
"1155 956 OFFCURVE",
"1214 816 OFFCURVE",
"1204 601 CURVE SMOOTH",
"1192 334 OFFCURVE",
"979 172 OFFCURVE",
"982 172 CURVE",
"982 172 OFFCURVE",
"794 346 OFFCURVE",
"771 590 CURVE SMOOTH"
);
},
{
closed = 1;
nodes = (
"1071 58 LINE",
"1171 152 OFFCURVE",
"1374 309 OFFCURVE",
"1384 601 CURVE SMOOTH",
"1395 917 OFFCURVE",
"1242 1096 OFFCURVE",
"987 1096 CURVE SMOOTH",
"828 1096 OFFCURVE",
"744 1002 OFFCURVE",
"705 926 CURVE",
"669 1006 OFFCURVE",
"578 1096 OFFCURVE",
"410 1096 CURVE",
"410 1086 OFFCURVE",
"406 1061 OFFCURVE",
"410 956 CURVE",
"608 956 OFFCURVE",
"622 757 OFFCURVE",
"630 579 CURVE SMOOTH",
"641 335 OFFCURVE",
"860 106 OFFCURVE",
"860 106 CURVE"
);
},
{
closed = 1;
nodes = (
"232 1096 OFFCURVE",
"75 965 OFFCURVE",
"75 673 CURVE SMOOTH",
"75 313 OFFCURVE",
"341 -24 OFFCURVE",
"728 -24 CURVE SMOOTH",
"919 -24 OFFCURVE",
"973 -7 OFFCURVE",
"1082 104 CURVE",
"974 158 LINE",
"913 121 OFFCURVE",
"917 117 OFFCURVE",
"830 117 CURVE SMOOTH",
"401 117 OFFCURVE",
"235 441 OFFCURVE",
"235 673 CURVE SMOOTH",
"235 894 OFFCURVE",
"344 956 OFFCURVE",
"410 956 CURVE",
"410 1096 LINE"
);
}
);
};
layerId = "6CB67BB4-1561-4377-8865-B188364DD954";
paths = (
{
closed = 1;
nodes = (
"1027 79 OFFCURVE",
"910 25 CURVE",
"982 -12 OFFCURVE",
"1008 -24 OFFCURVE",
"1176 -24 CURVE SMOOTH",
"1514 -24 OFFCURVE",
"1781 220 OFFCURVE",
"1781 558 CURVE SMOOTH",
"1781 779 OFFCURVE",
"1656 1002 OFFCURVE",
"1470 1073 CURVE",
"1366 1073 LINE",
"1502 945 OFFCURVE",
"1601 819 OFFCURVE",
"1601 558 CURVE SMOOTH",
"1601 310 OFFCURVE",
"1421 120 OFFCURVE",
"1115 120 CURVE",
"1035 61 OFFCURVE"
);
},
{
closed = 1;
nodes = (
"751 756 OFFCURVE",
"824 936 OFFCURVE",
"978 936 CURVE SMOOTH",
"1145 936 OFFCURVE",
"1214 816 OFFCURVE",
"1204 601 CURVE SMOOTH",
"1192 334 OFFCURVE",
"979 158 OFFCURVE",
"982 158 CURVE",
"982 158 OFFCURVE",
"793 306 OFFCURVE",
"770 550 CURVE SMOOTH"
);
},
{
closed = 1;
nodes = (
"1071 58 LINE",
"1171 152 OFFCURVE",
"1354 309 OFFCURVE",
"1364 601 CURVE SMOOTH",
"1375 917 OFFCURVE",
"1232 1096 OFFCURVE",
"978 1096 CURVE SMOOTH",
"824 1096 OFFCURVE",
"738 1002 OFFCURVE",
"699 926 CURVE",
"663 1006 OFFCURVE",
"578 1096 OFFCURVE",
"410 1096 CURVE",
"410 1086 OFFCURVE",
"406 1041 OFFCURVE",
"410 936 CURVE",
"608 936 OFFCURVE",
"612 717 OFFCURVE",
"630 539 CURVE SMOOTH",
"655 296 OFFCURVE",
"846 121 OFFCURVE",
"879 100 CURVE"
);
},
{
closed = 1;
nodes = (
"242 1096 OFFCURVE",
"75 975 OFFCURVE",
"75 673 CURVE SMOOTH",
"75 423 OFFCURVE",
"188 185 OFFCURVE",
"397 62 CURVE SMOOTH",
"489 8 OFFCURVE",
"600 -24 OFFCURVE",
"728 -24 CURVE SMOOTH",
"919 -24 OFFCURVE",
"961 -14 OFFCURVE",
"1071 58 CURVE",
"1072 58 OFFCURVE",
"874 108 OFFCURVE",
"870 107 CURVE SMOOTH",
"791 84 OFFCURVE",
"622 113 OFFCURVE",
"528 159 CURVE SMOOTH",
"329 257 OFFCURVE",
"235 457 OFFCURVE",
"235 673 CURVE SMOOTH",
"235 894 OFFCURVE",
"344 936 OFFCURVE",
"410 936 CURVE",
"410 1096 LINE"
);
}
);
width = 1856;
}
);
note = y1;
unicode = 0D2F;
},
{
color = 5;
glyphname = l3;
lastChange = "2020-06-06 12:35:47 +0000";
layers = (
{
background = {
paths = (
{
closed = 1;
nodes = (
"1456 1094 OFFCURVE",
"1411 1049 OFFCURVE",
"1411 994 CURVE SMOOTH",
"1413 206 LINE",
"306 203 LINE",
"306 367 LINE",
"1038 369 LINE SMOOTH",
"1129 369 OFFCURVE",
"1148 470 OFFCURVE",
"1148 562 CURVE SMOOTH",
"1148 857 OFFCURVE",
"915 1094 OFFCURVE",
"633 1094 CURVE SMOOTH",
"268 1094 OFFCURVE",
"106 792 OFFCURVE",
"106 425 CURVE SMOOTH",
"106 103 LINE SMOOTH",
"106 48 OFFCURVE",
"151 3 OFFCURVE",
"206 3 CURVE SMOOTH",
"1513 6 LINE SMOOTH",
"1568 6 OFFCURVE",
"1613 51 OFFCURVE",
"1613 106 CURVE SMOOTH",
"1611 993 LINE SMOOTH",
"1612 1049 OFFCURVE",
"1566 1094 OFFCURVE",
"1511 1094 CURVE SMOOTH"
);
},
{
closed = 1;
nodes = (
"312 567 LINE",
"332 741 OFFCURVE",
"442 894 OFFCURVE",
"633 894 CURVE SMOOTH",
"806 894 OFFCURVE",
"942 747 OFFCURVE",
"947 569 CURVE"
);
}
);
};
components = (
{
name = _part.main_stem;
transform = "{1, 0, 0, 1, -89, 0}";
}
);
layerId = "6CB67BB4-1561-4377-8865-B188364DD954";
paths = (
{
closed = 1;
nodes = (
"1511 0 LINE",
"1511 150 LINE",
"75 150 LINE",
"75 0 LINE"
);
},
{
closed = 1;
nodes = (
"235 61 OFFCURVE",
"235 513 OFFCURVE",
"235 514 CURVE SMOOTH",
"235 751 OFFCURVE",
"374 936 OFFCURVE",
"606 936 CURVE SMOOTH",
"888 936 OFFCURVE",
"991 741 OFFCURVE",
"991 514 CURVE SMOOTH",
"991 514 OFFCURVE",
"1131 514 OFFCURVE",
"1131 514 CURVE SMOOTH",
"1131 842 OFFCURVE",
"974 1096 OFFCURVE",
"606 1096 CURVE SMOOTH",
"259 1096 OFFCURVE",
"75 842 OFFCURVE",
"75 514 CURVE SMOOTH",
"75 513 OFFCURVE",
"75 61 OFFCURVE",
"75 60 CURVE",
"235 60 LINE"
);
},
{
closed = 1;
nodes = (
"1131 364 LINE",
"1131 514 LINE",
"141 514 LINE",
"141 364 LINE"
);
}
);
width = 1676;
}
);
note = l3;
unicode = 0D32;
},
{
color = 5;
glyphname = lh;
lastChange = "2020-07-13 18:38:32 +0000";
layers = (
{
background = {
paths = (
{
closed = 1;
nodes = (
"716 687 OFFCURVE",
"592 810 OFFCURVE",
"438 824 CURVE",
"513 871 OFFCURVE",
"608 894 OFFCURVE",
"708 894 CURVE SMOOTH",
"843 894 OFFCURVE",
"999 843 OFFCURVE",
"999 709 CURVE SMOOTH",
"999 651 OFFCURVE",
"961 631 OFFCURVE",
"902 631 CURVE SMOOTH",
"891 631 OFFCURVE",
"879 632 OFFCURVE",
"868 632 CURVE SMOOTH",
"837 634 LINE",
"834 634 LINE SMOOTH",
"779 634 OFFCURVE",
"734 589 OFFCURVE",
"734 534 CURVE SMOOTH",
"734 482 OFFCURVE",
"776 437 OFFCURVE",
"828 434 CURVE SMOOTH",
"921 429 OFFCURVE",
"1031 426 OFFCURVE",
"1031 331 CURVE SMOOTH",
"1031 227 OFFCURVE",
"915 198 OFFCURVE",
"805 198 CURVE SMOOTH",
"422 199 LINE SMOOTH",
"243 199 OFFCURVE",
"94 121 OFFCURVE",
"94 -60 CURVE SMOOTH",
"94 -231 OFFCURVE",
"231 -315 OFFCURVE",
"402 -315 CURVE SMOOTH",
"1118 -315 LINE SMOOTH",
"1173 -315 OFFCURVE",
"1218 -270 OFFCURVE",
"1218 -215 CURVE SMOOTH",
"1218 -160 OFFCURVE",
"1173 -115 OFFCURVE",
"1118 -115 CURVE SMOOTH",
"407 -115 LINE SMOOTH",
"352 -115 OFFCURVE",
"294 -112 OFFCURVE",
"294 -61 CURVE SMOOTH",
"294 -4 OFFCURVE",
"359 -1 OFFCURVE",
"421 -1 CURVE SMOOTH",
"804 -2 LINE SMOOTH",
"1032 -2 OFFCURVE",
"1231 101 OFFCURVE",
"1231 330 CURVE SMOOTH",
"1231 419 OFFCURVE",
"1192 489 OFFCURVE",
"1142 537 CURVE",
"1175 579 OFFCURVE",
"1199 640 OFFCURVE",
"1199 709 CURVE SMOOTH",
"1199 966 OFFCURVE",
"952 1094 OFFCURVE",
"709 1094 CURVE SMOOTH",
"407 1094 OFFCURVE",
"95 917 OFFCURVE",
"95 590 CURVE SMOOTH",
"95 393 OFFCURVE",
"223 229 OFFCURVE",
"423 229 CURVE SMOOTH",
"589 229 OFFCURVE",
"716 360 OFFCURVE",
"716 523 CURVE SMOOTH"
);
},
{
closed = 1;
nodes = (
"528 482 OFFCURVE",
"481 414 OFFCURVE",
"429 414 CURVE SMOOTH",
"364 414 OFFCURVE",
"304 476 OFFCURVE",
"304 531 CURVE SMOOTH",
"304 585 OFFCURVE",
"353 651 OFFCURVE",
"413 651 CURVE SMOOTH",
"471 651 OFFCURVE",
"528 590 OFFCURVE",
"528 534 CURVE SMOOTH"
);
}
);
};
components = (
{
name = _part.ee1;
transform = "{1, 0, 0, 1, 0, 50}";
}
);
layerId = "6CB67BB4-1561-4377-8865-B188364DD954";
paths = (
{
closed = 1;
nodes = (
"538 -449 OFFCURVE",
"908 -449 OFFCURVE",
"1066 -449 CURVE",
"1066 -269 LINE",
"380 -269 LINE SMOOTH",
"308 -269 OFFCURVE",
"266 -225 OFFCURVE",
"266 -150 CURVE SMOOTH",
"266 -73 OFFCURVE",
"308 -28 OFFCURVE",
"380 -28 CURVE SMOOTH",
"882 -28 LINE",
"1019 122 LINE",
"679 122 OFFCURVE",
"385 122 OFFCURVE",
"381 122 CURVE SMOOTH",
"201 122 OFFCURVE",
"94 21 OFFCURVE",
"94 -150 CURVE SMOOTH",
"94 -338 OFFCURVE",
"201 -449 OFFCURVE",
"381 -449 CURVE SMOOTH"
);
},
{
closed = 1;
nodes = (
"1125 -449 OFFCURVE",
"1183 -439 OFFCURVE",
"1225 -409 CURVE",
"1225 -229 LINE",
"1183 -259 OFFCURVE",
"1125 -269 OFFCURVE",
"1066 -269 CURVE",
"1066 -449 LINE"
);
},
{
closed = 1;
nodes = (
"157 822 OFFCURVE",
"454 936 OFFCURVE",
"713 936 CURVE SMOOTH",
"919 936 OFFCURVE",
"1056 865 OFFCURVE",
"1056 758 CURVE SMOOTH",
"1056 675 OFFCURVE",
"1046 622 OFFCURVE",
"930 622 CURVE SMOOTH",
"871 622 OFFCURVE",
"813 612 OFFCURVE",
"771 582 CURVE",
"771 422 LINE",
"812 451 OFFCURVE",
"868 462 OFFCURVE",
"926 462 CURVE SMOOTH",
"1056 462 OFFCURVE",
"1087 409 OFFCURVE",
"1087 308 CURVE SMOOTH",
"1087 197 OFFCURVE",
"1011 121 OFFCURVE",
"912 121 CURVE",
"882 -28 LINE",
"1154 -28 OFFCURVE",
"1278 150 OFFCURVE",
"1278 318 CURVE SMOOTH",
"1278 407 OFFCURVE",
"1243 494 OFFCURVE",
"1175 548 CURVE",
"1213 620 OFFCURVE",
"1231 689 OFFCURVE",
"1231 751 CURVE SMOOTH",
"1231 957 OFFCURVE",
"1022 1094 OFFCURVE",
"709 1094 CURVE SMOOTH",
"321 1094 OFFCURVE",
"75 873 OFFCURVE",
"75 542 CURVE"
);
}
);
width = 1346;
}
);
note = lh;
unicode = 0D33;
},
{
color = 5;
glyphname = zh;
lastChange = "2020-07-17 19:06:04 +0000";
layers = (
{
background = {
paths = (
{
closed = 1;
nodes = (
"789 452 OFFCURVE",
"596 452 CURVE SMOOTH",
"409 452 OFFCURVE",
"225 545 OFFCURVE",
"225 722 CURVE SMOOTH",
"225 857 OFFCURVE",
"338 976 OFFCURVE",
"440 1073 CURVE",
"346 1073 LINE",
"207 1020 OFFCURVE",
"75 888 OFFCURVE",
"75 722 CURVE SMOOTH",
"75 445 OFFCURVE",
"337 292 OFFCURVE",
"603 292 CURVE SMOOTH",
"882 292 OFFCURVE",
"1166 457 OFFCURVE",
"1166 758 CURVE SMOOTH",
"1166 935 OFFCURVE",
"1033 1096 OFFCURVE",
"796 1096 CURVE SMOOTH",
"575 1096 OFFCURVE",
"454 935 OFFCURVE",
"454 768 CURVE SMOOTH",
"454 597 OFFCURVE",
"575 506 OFFCURVE",
"674 431 CURVE",
"825 477 LINE",
"709 569 OFFCURVE",
"604 632 OFFCURVE",
"604 768 CURVE SMOOTH",
"604 861 OFFCURVE",
"665 956 OFFCURVE",
"796 956 CURVE SMOOTH",
"927 956 OFFCURVE",
"986 860 OFFCURVE",
"986 758 CURVE SMOOTH",
"986 531 OFFCURVE"
);
},
{
closed = 1;
nodes = (
"730 357 LINE",
"792 243 OFFCURVE",
"659 126 OFFCURVE",
"526 126 CURVE SMOOTH",
"376 126 OFFCURVE",
"278 191 OFFCURVE",
"195 267 CURVE",
"195 141 LINE",
"223 105 OFFCURVE",
"335 -24 OFFCURVE",
"526 -24 CURVE SMOOTH",
"752 -24 OFFCURVE",
"970 199 OFFCURVE",
"876 402 CURVE"
);
}
);
};
layerId = "6CB67BB4-1561-4377-8865-B188364DD954";
paths = (
{
closed = 1;
nodes = (
"812 266 OFFCURVE",
"730 126 OFFCURVE",
"526 126 CURVE SMOOTH",
"376 126 OFFCURVE",
"278 191 OFFCURVE",
"195 267 CURVE",
"195 141 LINE",
"223 105 OFFCURVE",
"335 -24 OFFCURVE",
"526 -24 CURVE SMOOTH",
"862 -24 OFFCURVE",
"976 252 OFFCURVE",
"852 421 CURVE SMOOTH",
"762 544 OFFCURVE",
"604 632 OFFCURVE",
"604 768 CURVE SMOOTH",
"604 861 OFFCURVE",
"665 956 OFFCURVE",
"796 956 CURVE SMOOTH",
"927 956 OFFCURVE",
"986 860 OFFCURVE",
"986 758 CURVE SMOOTH",
"986 531 OFFCURVE",
"789 442 OFFCURVE",
"596 442 CURVE SMOOTH",
"409 442 OFFCURVE",
"215 545 OFFCURVE",
"215 722 CURVE SMOOTH",
"215 857 OFFCURVE",
"338 976 OFFCURVE",
"440 1073 CURVE",
"346 1073 LINE",
"207 1020 OFFCURVE",
"75 888 OFFCURVE",
"75 722 CURVE SMOOTH",
"75 445 OFFCURVE",
"337 292 OFFCURVE",
"603 292 CURVE SMOOTH",
"882 292 OFFCURVE",
"1166 457 OFFCURVE",
"1166 758 CURVE SMOOTH",
"1166 935 OFFCURVE",
"1033 1096 OFFCURVE",
"796 1096 CURVE SMOOTH",
"575 1096 OFFCURVE",
"454 935 OFFCURVE",
"454 768 CURVE SMOOTH",
"454 597 OFFCURVE",
"621 480 OFFCURVE",
"703 388 CURVE SMOOTH"
);
}
);
width = 1241;
}
);
note = zh;
unicode = 0D34;
},
{
color = 5;
glyphname = v1;
lastChange = "2020-05-18 19:19:02 +0000";
layers = (
{
background = {
paths = (
{
closed = 1;
nodes = (
"1454 988 LINE",
"1453 199 LINE",
"1121 200 LINE",
"1187 290 OFFCURVE",
"1226 408 OFFCURVE",
"1226 524 CURVE SMOOTH",
"1226 838 OFFCURVE",
"963 1091 OFFCURVE",
"649 1091 CURVE SMOOTH",
"337 1091 OFFCURVE",
"75 838 OFFCURVE",
"75 528 CURVE SMOOTH",
"75 242 OFFCURVE",
"296 19 OFFCURVE",
"552 -14 CURVE SMOOTH",
"556 -15 OFFCURVE",
"562 -15 OFFCURVE",
"566 -15 CURVE SMOOTH",
"621 -15 OFFCURVE",
"666 30 OFFCURVE",
"666 85 CURVE SMOOTH",
"666 134 OFFCURVE",
"626 179 OFFCURVE",
"577 185 CURVE SMOOTH",
"415 206 OFFCURVE",
"275 347 OFFCURVE",
"275 529 CURVE SMOOTH",
"275 728 OFFCURVE",
"448 891 OFFCURVE",
"650 891 CURVE SMOOTH",
"853 891 OFFCURVE",
"1026 726 OFFCURVE",
"1026 524 CURVE SMOOTH",
"1026 363 OFFCURVE",
"920 240 OFFCURVE",
"797 195 CURVE SMOOTH",
"761 182 OFFCURVE",
"731 139 OFFCURVE",
"731 101 CURVE SMOOTH",
"731 46 OFFCURVE",
"776 1 OFFCURVE",
"831 1 CURVE SMOOTH",
"1552 -1 LINE",
"1553 -1 LINE SMOOTH",
"1608 -1 OFFCURVE",
"1653 44 OFFCURVE",
"1653 99 CURVE SMOOTH",
"1654 988 LINE",
"1654 989 LINE SMOOTH",
"1654 1044 OFFCURVE",
"1609 1089 OFFCURVE",
"1554 1089 CURVE SMOOTH",
"1499 1089 OFFCURVE",
"1454 1044 OFFCURVE",
"1454 989 CURVE SMOOTH"
);
}
);
};
components = (
{
name = _part.ra;
},
{
name = _part.main_stem;
transform = "{1, 0, 0, 1, -20, 0}";
}
);
layerId = "6CB67BB4-1561-4377-8865-B188364DD954";
paths = (
{
closed = 1;
nodes = (
"1560 0 LINE",
"1560 150 LINE",
"890 150 LINE",
"792 0 LINE"
);
}
);
width = 1745;
}
);
note = v1;
unicode = 0D35;
},
{
color = 5;
glyphname = z1;
lastChange = "2020-07-15 08:41:58 +0000";
layers = (
{
background = {
paths = (
{
closed = 1;
nodes = (
"982 754 OFFCURVE",
"1077 891 OFFCURVE",
"1263 891 CURVE SMOOTH",
"1292 891 OFFCURVE",
"1322 882 OFFCURVE",
"1353 873 CURVE",
"1198 783 OFFCURVE",
"1069 615 OFFCURVE",
"1069 389 CURVE SMOOTH",
"1069 166 OFFCURVE",
"1216 -26 OFFCURVE",
"1444 -26 CURVE SMOOTH",
"1693 -26 OFFCURVE",
"1845 205 OFFCURVE",
"1845 443 CURVE SMOOTH",
"1845 779 OFFCURVE",
"1598 1094 OFFCURVE",
"1263 1094 CURVE SMOOTH",
"971 1094 OFFCURVE",
"782 870 OFFCURVE",
"782 571 CURVE SMOOTH",
"782 536 OFFCURVE",
"783 505 OFFCURVE",
"783 471 CURVE SMOOTH",
"783 304 OFFCURVE",
"724 178 OFFCURVE",
"564 178 CURVE SMOOTH",
"387 178 OFFCURVE",
"276 360 OFFCURVE",
"276 537 CURVE SMOOTH",
"276 715 OFFCURVE",
"378 842 OFFCURVE",
"500 905 CURVE SMOOTH",
"531 920 OFFCURVE",
"555 960 OFFCURVE",
"555 994 CURVE SMOOTH",
"555 1049 OFFCURVE",
"510 1094 OFFCURVE",
"455 1094 CURVE SMOOTH",
"440 1094 OFFCURVE",
"420 1089 OFFCURVE",
"408 1082 CURVE SMOOTH",
"226 988 OFFCURVE",
"75 800 OFFCURVE",
"75 536 CURVE SMOOTH",
"75 249 OFFCURVE",
"271 -22 OFFCURVE",
"564 -22 CURVE SMOOTH",
"831 -22 OFFCURVE",
"983 190 OFFCURVE",
"983 458 CURVE SMOOTH",
"983 492 OFFCURVE",
"982 525 OFFCURVE",
"982 558 CURVE SMOOTH"
);
},
{
closed = 1;
nodes = (
"1269 568 OFFCURVE",
"1400 699 OFFCURVE",
"1547 737 CURVE",
"1601 666 OFFCURVE",
"1645 553 OFFCURVE",
"1645 442 CURVE SMOOTH",
"1645 315 OFFCURVE",
"1575 174 OFFCURVE",
"1443 174 CURVE SMOOTH",
"1330 174 OFFCURVE",
"1269 278 OFFCURVE",
"1269 389 CURVE SMOOTH"
);
}
);
};
components = (
{
name = _part.big_ra_circle;
transform = "{1, 0, 0, 1, 657, 1}";
}
);
layerId = "6CB67BB4-1561-4377-8865-B188364DD954";
paths = (
{
closed = 1;
nodes = (
"74 195 OFFCURVE",
"250 -21 OFFCURVE",
"549 -21 CURVE SMOOTH",
"816 -21 OFFCURVE",
"956 160 OFFCURVE",
"956 508 CURVE SMOOTH",
"956 799 OFFCURVE",
"1069 936 OFFCURVE",
"1287 936 CURVE SMOOTH",
"1560 936 OFFCURVE",
"1721 783 OFFCURVE",
"1721 515 CURVE SMOOTH",
"1721 256 OFFCURVE",
"1648 120 OFFCURVE",
"1408 0 CURVE",
"1416 -24 LINE",
"1545 -22 OFFCURVE",
"1848 59 OFFCURVE",
"1848 515 CURVE SMOOTH",
"1848 843 OFFCURVE",
"1656 1096 OFFCURVE",
"1287 1096 CURVE SMOOTH",
"951 1096 OFFCURVE",
"776 892 OFFCURVE",
"776 531 CURVE SMOOTH",
"776 273 OFFCURVE",
"698 139 OFFCURVE",
"549 139 CURVE SMOOTH",
"351 139 OFFCURVE",
"234 296 OFFCURVE",
"234 561 CURVE SMOOTH",
"234 821 OFFCURVE",
"342 945 OFFCURVE",
"477 1072 CURVE",
"379 1072 LINE",
"196 999 OFFCURVE",
"74 780 OFFCURVE",
"74 561 CURVE SMOOTH"
);
}
);
width = 1923;
}
);
note = z1;
unicode = 0D36;
},
{
color = 5;
glyphname = sh;
lastChange = "2020-07-17 19:06:42 +0000";
layers = (
{
background = {
paths = (
{
closed = 1;
nodes = (
"894 1100 OFFCURVE",
"790 942 OFFCURVE",
"790 781 CURVE SMOOTH",
"790 586 OFFCURVE",
"944 371 OFFCURVE",
"1211 371 CURVE SMOOTH",
"1223 371 OFFCURVE",
"1235 371 OFFCURVE",
"1247 372 CURVE",
"1246 198 LINE",
"808 198 LINE",
"827 242 OFFCURVE",
"836 289 OFFCURVE",
"836 337 CURVE SMOOTH",
"836 539 OFFCURVE",
"676 698 OFFCURVE",
"476 698 CURVE SMOOTH",
"276 698 OFFCURVE",
"115 540 OFFCURVE",
"115 337 CURVE SMOOTH",
"115 175 OFFCURVE",
"216 57 OFFCURVE",
"333 6 CURVE SMOOTH",
"344 1 OFFCURVE",
"362 -3 OFFCURVE",
"374 -3 CURVE SMOOTH",
"429 -3 OFFCURVE",
"474 42 OFFCURVE",
"474 97 CURVE SMOOTH",
"474 134 OFFCURVE",
"446 176 OFFCURVE",
"412 190 CURVE SMOOTH",
"359 213 OFFCURVE",
"315 265 OFFCURVE",
"315 338 CURVE SMOOTH",
"315 427 OFFCURVE",
"387 498 OFFCURVE",
"475 498 CURVE SMOOTH",
"564 498 OFFCURVE",
"636 428 OFFCURVE",
"636 338 CURVE SMOOTH",
"636 265 OFFCURVE",
"593 213 OFFCURVE",
"540 190 CURVE SMOOTH",
"507 176 OFFCURVE",
"479 134 OFFCURVE",
"479 98 CURVE SMOOTH",
"479 43 OFFCURVE",
"524 -2 OFFCURVE",
"579 -2 CURVE SMOOTH",
"1803 -2 LINE SMOOTH",
"1858 -2 OFFCURVE",
"1903 43 OFFCURVE",
"1903 98 CURVE SMOOTH",
"1903 997 LINE SMOOTH",
"1903 1052 OFFCURVE",
"1858 1097 OFFCURVE",
"1803 1097 CURVE SMOOTH",
"1757 1097 OFFCURVE",
"1713 1060 OFFCURVE",
"1705 1014 CURVE SMOOTH",
"1678 859 OFFCURVE",
"1576 713 OFFCURVE",
"1449 639 CURVE",
"1450 730 LINE SMOOTH",
"1450 946 OFFCURVE",
"1341 1100 OFFCURVE",
"1127 1100 CURVE SMOOTH"
);
},
{
closed = 1;
nodes = (
"1224 919 OFFCURVE",
"1250 833 OFFCURVE",
"1250 736 CURVE SMOOTH",
"1250 682 OFFCURVE",
"1249 627 OFFCURVE",
"1249 573 CURVE",
"1237 572 OFFCURVE",
"1226 571 OFFCURVE",
"1214 571 CURVE SMOOTH",
"1090 571 OFFCURVE",
"977 633 OFFCURVE",
"977 751 CURVE SMOOTH",
"977 829 OFFCURVE",
"1047 919 OFFCURVE",
"1129 919 CURVE SMOOTH"
);
},
{
closed = 1;
nodes = (
"1703 198 LINE",
"1446 198 LINE",
"1448 417 LINE",
"1544 454 OFFCURVE",
"1631 512 OFFCURVE",
"1703 585 CURVE"
);
}
);
};
components = (
{
name = _part_ra;
transform = "{1, 0, 0, 1, 30, 0}";
},
{
name = _part.main_stem;
transform = "{1, 0, 0, 1, 256, 0}";
}
);
layerId = "6CB67BB4-1561-4377-8865-B188364DD954";
paths = (
{
closed = 1;
nodes = (
"1762 0 LINE",
"1762 150 LINE",
"667 150 LINE",
"626 0 LINE"
);
},
{
closed = 1;
nodes = (
"956 360 OFFCURVE",
"1139 360 CURVE SMOOTH",
"1320 360 OFFCURVE",
"1548 472 OFFCURVE",
"1741 682 CURVE",
"1742 856 LINE",
"1548 637 OFFCURVE",
"1316 499 OFFCURVE",
"1159 499 CURVE SMOOTH",
"1053 499 OFFCURVE",
"961 578 OFFCURVE",
"961 740 CURVE SMOOTH",
"961 869 OFFCURVE",
"1037 946 OFFCURVE",
"1166 946 CURVE SMOOTH",
"1254 946 OFFCURVE",
"1313 869 OFFCURVE",
"1313 753 CURVE SMOOTH",
"1313 130 LINE",
"1473 126 LINE",
"1473 753 LINE SMOOTH",
"1473 959 OFFCURVE",
"1350 1096 OFFCURVE",
"1166 1096 CURVE SMOOTH",
"949 1096 OFFCURVE",
"821 964 OFFCURVE",
"821 740 CURVE SMOOTH",
"821 495 OFFCURVE"
);
}
);
width = 2021;
}
);
note = sh;
unicode = 0D37;
},
{
color = 6;
glyphname = s1;
lastChange = "2020-07-17 11:24:22 +0000";
layers = (
{
background = {
paths = (
{
closed = 1;
nodes = (
"75 294 OFFCURVE",
"199 72 OFFCURVE",
"383 0 CURVE",
"479 0 LINE",
"344 127 OFFCURVE",
"235 253 OFFCURVE",
"235 514 CURVE SMOOTH",
"235 741 OFFCURVE",
"388 936 OFFCURVE",
"610 936 CURVE SMOOTH",
"763 936 OFFCURVE",
"866 829 OFFCURVE",
"866 685 CURVE SMOOTH",
"866 190 LINE SMOOTH",
"866 120 OFFCURVE",
"876 50 OFFCURVE",
"906 0 CURVE",
"1066 0 LINE",
"1036 50 OFFCURVE",
"1026 120 OFFCURVE",
"1026 190 CURVE SMOOTH",
"1026 570 LINE SMOOTH",
"1026 793 OFFCURVE",
"1136 936 OFFCURVE",
"1329 936 CURVE SMOOTH",
"1472 936 OFFCURVE",
"1611 875 OFFCURVE",
"1611 682 CURVE SMOOTH",
"1611 400 LINE SMOOTH",
"1611 152 OFFCURVE",
"1770 -24 OFFCURVE",
"2003 -24 CURVE SMOOTH",
"2252 -24 OFFCURVE",
"2429 186 OFFCURVE",
"2429 486 CURVE SMOOTH",
"2429 794 OFFCURVE",
"2250 1004 OFFCURVE",
"2065 1072 CURVE",
"1949 1072 LINE",
"2101 971 OFFCURVE",
"2269 754 OFFCURVE",
"2269 486 CURVE SMOOTH",
"2269 270 OFFCURVE",
"2157 136 OFFCURVE",
"2003 136 CURVE SMOOTH",
"1861 136 OFFCURVE",
"1771 237 OFFCURVE",
"1771 400 CURVE SMOOTH",
"1771 681 LINE SMOOTH",
"1771 962 OFFCURVE",
"1566 1096 OFFCURVE",
"1329 1096 CURVE SMOOTH",
"1168 1096 OFFCURVE",
"1041 1028 OFFCURVE",
"961 912 CURVE",
"891 1054 OFFCURVE",
"742 1096 OFFCURVE",
"610 1096 CURVE SMOOTH",
"282 1096 OFFCURVE",
"75 842 OFFCURVE",
"75 514 CURVE SMOOTH"
);
}
);
};
layerId = "6CB67BB4-1561-4377-8865-B188364DD954";
paths = (
{
closed = 1;
nodes = (
"75 294 OFFCURVE",
"199 72 OFFCURVE",
"383 0 CURVE",
"479 0 LINE",
"344 127 OFFCURVE",
"235 253 OFFCURVE",
"235 514 CURVE SMOOTH",
"235 741 OFFCURVE",
"388 936 OFFCURVE",
"610 936 CURVE SMOOTH",
"773 936 OFFCURVE",
"866 831 OFFCURVE",
"866 685 CURVE SMOOTH",
"866 190 LINE SMOOTH",
"866 120 OFFCURVE",
"876 50 OFFCURVE",
"906 0 CURVE",
"1066 0 LINE",
"1036 50 OFFCURVE",
"1026 120 OFFCURVE",
"1026 190 CURVE SMOOTH",
"1026 570 LINE SMOOTH",
"1026 796 OFFCURVE",
"1136 936 OFFCURVE",
"1329 936 CURVE SMOOTH",
"1472 936 OFFCURVE",
"1611 877 OFFCURVE",
"1611 682 CURVE SMOOTH",
"1611 400 LINE SMOOTH",
"1611 152 OFFCURVE",
"1770 -24 OFFCURVE",
"2003 -24 CURVE SMOOTH",
"2252 -24 OFFCURVE",
"2429 186 OFFCURVE",
"2429 486 CURVE SMOOTH",
"2429 794 OFFCURVE",
"2250 1004 OFFCURVE",
"2065 1072 CURVE",
"1949 1072 LINE",
"2101 971 OFFCURVE",
"2269 754 OFFCURVE",
"2269 486 CURVE SMOOTH",
"2269 270 OFFCURVE",
"2157 136 OFFCURVE",
"2003 136 CURVE SMOOTH",
"1861 136 OFFCURVE",
"1771 237 OFFCURVE",
"1771 400 CURVE SMOOTH",
"1771 681 LINE SMOOTH",
"1771 954 OFFCURVE",
"1579 1096 OFFCURVE",
"1329 1096 CURVE SMOOTH",
"1168 1096 OFFCURVE",
"1041 1028 OFFCURVE",
"961 912 CURVE",
"881 1054 OFFCURVE",
"742 1096 OFFCURVE",
"610 1096 CURVE SMOOTH",
"282 1096 OFFCURVE",
"75 842 OFFCURVE",
"75 514 CURVE SMOOTH"
);
}
);
width = 2504;
}
);
note = s1;
unicode = 0D38;
},
{
color = 5;
glyphname = h1;
lastChange = "2020-06-27 14:34:50 +0000";
layers = (
{
background = {
paths = (
{
closed = 1;
nodes = (
"606 556 OFFCURVE",
"693 471 OFFCURVE",
"693 366 CURVE SMOOTH",
"693 284 OFFCURVE",
"640 220 OFFCURVE",
"580 194 CURVE SMOOTH",
"547 179 OFFCURVE",
"521 139 OFFCURVE",
"521 103 CURVE SMOOTH",
"521 48 OFFCURVE",
"565 3 OFFCURVE",
"620 3 CURVE SMOOTH",
"1586 0 LINE SMOOTH",
"1641 0 OFFCURVE",
"1686 45 OFFCURVE",
"1686 100 CURVE SMOOTH",
"1686 146 OFFCURVE",
"1650 189 OFFCURVE",
"1605 198 CURVE SMOOTH",
"1457 227 OFFCURVE",
"1325 363 OFFCURVE",
"1325 536 CURVE SMOOTH",
"1325 724 OFFCURVE",
"1476 895 OFFCURVE",
"1668 895 CURVE SMOOTH",
"1861 895 OFFCURVE",
"2024 724 OFFCURVE",
"2024 525 CURVE SMOOTH",
"2024 362 OFFCURVE",
"1921 239 OFFCURVE",
"1801 188 CURVE SMOOTH",
"1767 174 OFFCURVE",
"1739 132 OFFCURVE",
"1739 95 CURVE SMOOTH",
"1739 40 OFFCURVE",
"1784 -5 OFFCURVE",
"1839 -5 CURVE SMOOTH",
"1851 -5 OFFCURVE",
"1869 -1 OFFCURVE",
"1880 4 CURVE SMOOTH",
"2065 83 OFFCURVE",
"2223 278 OFFCURVE",
"2223 525 CURVE SMOOTH",
"2223 833 OFFCURVE",
"1977 1097 OFFCURVE",
"1669 1097 CURVE SMOOTH",
"1366 1097 OFFCURVE",
"1124 841 OFFCURVE",
"1124 541 CURVE SMOOTH",
"1124 417 OFFCURVE",
"1167 295 OFFCURVE",
"1241 201 CURVE",
"856 202 LINE",
"881 256 OFFCURVE",
"893 312 OFFCURVE",
"893 366 CURVE SMOOTH",
"893 584 OFFCURVE",
"725 756 OFFCURVE",
"502 756 CURVE SMOOTH",
"285 756 OFFCURVE",
"115 580 OFFCURVE",
"115 364 CURVE SMOOTH",
"115 188 OFFCURVE",
"240 49 OFFCURVE",
"372 1 CURVE SMOOTH",
"381 -3 OFFCURVE",
"398 -5 OFFCURVE",
"408 -5 CURVE SMOOTH",
"463 -5 OFFCURVE",
"508 40 OFFCURVE",
"508 95 CURVE SMOOTH",
"508 134 OFFCURVE",
"477 177 OFFCURVE",
"440 190 CURVE SMOOTH",
"375 214 OFFCURVE",
"316 280 OFFCURVE",
"316 366 CURVE SMOOTH",
"316 470 OFFCURVE",
"400 556 OFFCURVE",
"505 556 CURVE SMOOTH"
);
}
);
};
components = (
{
name = _part_ra;
transform = "{1, 0, 0, 1, 30, 0}";
},
{
name = _part.ra;
transform = "{1, 0, 0, 1, 1053, 0}";
}
);
layerId = "6CB67BB4-1561-4377-8865-B188364DD954";
paths = (
{
closed = 1;
nodes = (
"1449 0 LINE",
"1368 150 LINE",
"644 150 LINE",
"644 0 LINE"
);
}
);
width = 2299;
}
);
note = h1;
unicode = 0D39;
},
{
color = 5;
glyphname = avagraha;
lastChange = "2020-05-22 19:04:36 +0000";
layers = (
{
background = {
paths = (
{
closed = 1;
nodes = (
"177 -162 OFFCURVE",
"132 -117 OFFCURVE",
"77 -117 CURVE SMOOTH",
"-2 -117 OFFCURVE",
"-32 -196 OFFCURVE",
"-32 -280 CURVE SMOOTH",
"-32 -488 OFFCURVE",
"126 -644 OFFCURVE",
"330 -644 CURVE SMOOTH",
"612 -644 OFFCURVE",
"707 -383 OFFCURVE",
"743 -146 CURVE SMOOTH",
"897 877 LINE SMOOTH",
"921 1034 OFFCURVE",
"961 1234 OFFCURVE",
"1131 1234 CURVE SMOOTH",
"1225 1234 OFFCURVE",
"1300 1165 OFFCURVE",
"1300 1072 CURVE SMOOTH",
"1300 1058 OFFCURVE",
"1296 1044 OFFCURVE",
"1296 1031 CURVE SMOOTH",
"1296 976 OFFCURVE",
"1341 931 OFFCURVE",
"1396 931 CURVE SMOOTH",
"1444 931 OFFCURVE",
"1490 970 OFFCURVE",
"1496 1018 CURVE SMOOTH",
"1499 1036 OFFCURVE",
"1500 1054 OFFCURVE",
"1500 1071 CURVE SMOOTH",
"1500 1278 OFFCURVE",
"1341 1434 OFFCURVE",
"1134 1434 CURVE SMOOTH",
"837 1434 OFFCURVE",
"737 1157 OFFCURVE",
"700 907 CURVE SMOOTH",
"545 -116 LINE SMOOTH",
"522 -265 OFFCURVE",
"488 -444 OFFCURVE",
"327 -444 CURVE SMOOTH",
"242 -444 OFFCURVE",
"167 -373 OFFCURVE",
"167 -285 CURVE SMOOTH",
"167 -262 OFFCURVE",
"177 -240 OFFCURVE",
"177 -217 CURVE SMOOTH"
);
}
);
};
layerId = "6CB67BB4-1561-4377-8865-B188364DD954";
paths = (
{
closed = 1;
nodes = (
"697 877 OFFCURVE",
"697 878 OFFCURVE",
"697 878 CURVE",
"860 881 LINE",
"860 881 OFFCURVE",
"860 880 OFFCURVE",
"860 881 CURVE SMOOTH",
"900 1167 OFFCURVE",
"1064 1303 OFFCURVE",
"1177 1303 CURVE SMOOTH",
"1292 1303 OFFCURVE",
"1347 1263 OFFCURVE",
"1426 1195 CURVE",
"1427 1271 LINE",
"1357 1378 OFFCURVE",
"1268 1432 OFFCURVE",
"1157 1432 CURVE SMOOTH",
"928 1432 OFFCURVE",
"737 1209 OFFCURVE",
"697 878 CURVE SMOOTH"
);
},
{
closed = 1;
nodes = (
"448 -675 OFFCURVE",
"641 -491 OFFCURVE",
"697 -160 CURVE",
"697 -159 LINE",
"547 -119 LINE",
"500 -415 OFFCURVE",
"347 -512 OFFCURVE",
"240 -484 CURVE SMOOTH",
"129 -455 OFFCURVE",
"116 -409 OFFCURVE",
"30 -305 CURVE",
"0 -417 LINE",
"66 -515 OFFCURVE",
"119 -586 OFFCURVE",
"226 -615 CURVE SMOOTH"
);
},
{
closed = 1;
nodes = (
"860 881 LINE",
"697 878 LINE",
"547 -119 LINE",
"697 -160 LINE"
);
}
);
width = 1427;
}
);
note = avagraha;
unicode = 0D3D;
},
{
color = 5;
glyphname = a2;
lastChange = "2020-07-17 11:22:07 +0000";
layers = (
{
background = {
paths = (
{
closed = 1;
nodes = (
"690 370 OFFCURVE",
"601 179 OFFCURVE",
"417 179 CURVE SMOOTH",
"315 179 OFFCURVE",
"234 261 OFFCURVE",
"228 357 CURVE SMOOTH",
"226 410 OFFCURVE",
"181 452 OFFCURVE",
"128 452 CURVE SMOOTH",
"73 452 OFFCURVE",
"28 407 OFFCURVE",
"28 352 CURVE SMOOTH",
"28 345 LINE SMOOTH",
"40 145 OFFCURVE",
"205 -21 OFFCURVE",
"417 -21 CURVE SMOOTH",
"723 -21 OFFCURVE",
"890 267 OFFCURVE",
"890 550 CURVE SMOOTH",
"890 825 OFFCURVE",
"721 1096 OFFCURVE",
"429 1096 CURVE SMOOTH",
"221 1096 OFFCURVE",
"55 932 OFFCURVE",
"38 738 CURVE SMOOTH",
"38 735 OFFCURVE",
"37 731 OFFCURVE",
"37 728 CURVE SMOOTH",
"37 673 OFFCURVE",
"82 628 OFFCURVE",
"137 628 CURVE SMOOTH",
"188 628 OFFCURVE",
"233 669 OFFCURVE",
"237 720 CURVE SMOOTH",
"245 814 OFFCURVE",
"327 896 OFFCURVE",
"428 896 CURVE SMOOTH",
"601 896 OFFCURVE",
"690 718 OFFCURVE",
"690 549 CURVE SMOOTH"
);
}
);
};
components = (
{
name = _part.neettam;
transform = "{1, 0, 0, 1, -47, 0}";
}
);
layerId = "6CB67BB4-1561-4377-8865-B188364DD954";
width = 669;
}
);
note = a2;
unicode = 0D3E;
},
{
color = 5;
glyphname = i1;
lastChange = "2020-07-17 11:21:32 +0000";
layers = (
{
layerId = "6CB67BB4-1561-4377-8865-B188364DD954";
paths = (
{
closed = 1;
nodes = (
"227 50 OFFCURVE",
"217 120 OFFCURVE",
"217 190 CURVE",
"217 1188 LINE",
"37 1188 LINE",
"37 190 LINE",
"37 120 OFFCURVE",
"47 50 OFFCURVE",
"77 0 CURVE",
"257 0 LINE"
);
},
{
closed = 1;
nodes = (
"-560 1274 LINE",
"-530 1464 OFFCURVE",
"-349 1592 OFFCURVE",
"-177 1592 CURVE SMOOTH",
"73 1592 OFFCURVE",
"217 1438 OFFCURVE",
"217 1188 CURVE",
"37 1188 LINE",
"37 1308 OFFCURVE",
"-47 1432 OFFCURVE",
"-187 1432 CURVE SMOOTH",
"-348 1432 OFFCURVE",
"-433 1359 OFFCURVE",
"-506 1249 CURVE"
);
}
);
width = 287;
}
);
note = i1;
unicode = 0D3F;
},
{
color = 5;
glyphname = i2;
lastChange = "2020-07-17 11:20:43 +0000";
layers = (
{
background = {
paths = (
{
closed = 1;
nodes = (
"32 1218 OFFCURVE",
"32 1226 OFFCURVE",
"31 1237 CURVE",
"109 1203 OFFCURVE",
"133 1140 OFFCURVE",
"133 1008 CURVE SMOOTH",
"130 73 LINE SMOOTH",
"130 12 OFFCURVE",
"180 -19 OFFCURVE",
"225 -19 CURVE SMOOTH",
"270 -19 OFFCURVE",
"320 12 OFFCURVE",
"320 72 CURVE SMOOTH",
"323 1009 LINE SMOOTH",
"323 1286 OFFCURVE",
"177 1446 OFFCURVE",
"-101 1446 CURVE SMOOTH",
"-254 1446 OFFCURVE",
"-404 1367 OFFCURVE",
"-404 1203 CURVE SMOOTH",
"-404 1093 OFFCURVE",
"-306 995 OFFCURVE",
"-193 995 CURVE SMOOTH",
"-84 995 OFFCURVE",
"32 1085 OFFCURVE",
"32 1209 CURVE SMOOTH"
);
},
{
closed = 1;
nodes = (
"-135 1267 OFFCURVE",
"-113 1245 OFFCURVE",
"-113 1205 CURVE SMOOTH",
"-113 1173 OFFCURVE",
"-142 1149 OFFCURVE",
"-180 1149 CURVE SMOOTH",
"-215 1149 OFFCURVE",
"-252 1180 OFFCURVE",
"-252 1204 CURVE SMOOTH",
"-252 1245 OFFCURVE",
"-216 1267 OFFCURVE",
"-172 1267 CURVE SMOOTH"
);
}
);
};
components = (
{
name = i1;
},
{
name = _part.vallivattam;
transform = "{1, 0, 0, 1, -639, 136}";
}
);
layerId = "6CB67BB4-1561-4377-8865-B188364DD954";
width = 379;
}
);
note = i2;
unicode = 0D40;
},
{
color = 5;
glyphname = u1;
lastChange = "2020-07-17 11:21:26 +0000";
layers = (
{
background = {
paths = (
{
closed = 1;
nodes = (
"285 -579 OFFCURVE",
"428 -441 OFFCURVE",
"428 -259 CURVE SMOOTH",
"428 -99 OFFCURVE",
"321 21 OFFCURVE",
"181 55 CURVE",
"282 264 OFFCURVE",
"337 487 OFFCURVE",
"337 632 CURVE SMOOTH",
"337 851 OFFCURVE",
"190 1096 OFFCURVE",
"-39 1096 CURVE SMOOTH",
"-85 1096 OFFCURVE",
"-123 1044 OFFCURVE",
"-123 1002 CURVE SMOOTH",
"-123 953 OFFCURVE",
"-89 914 OFFCURVE",
"-46 906 CURVE SMOOTH",
"67 884 OFFCURVE",
"148 776 OFFCURVE",
"148 620 CURVE SMOOTH",
"148 445 OFFCURVE",
"25 160 OFFCURVE",
"-48 24 CURVE",
"-138 -27 OFFCURVE",
"-216 -131 OFFCURVE",
"-216 -258 CURVE SMOOTH",
"-216 -429 OFFCURVE",
"-80 -579 OFFCURVE",
"107 -579 CURVE SMOOTH"
);
},
{
closed = 1;
nodes = (
"-26 -180 OFFCURVE",
"26 -116 OFFCURVE",
"100 -116 CURVE SMOOTH",
"168 -116 OFFCURVE",
"238 -181 OFFCURVE",
"238 -255 CURVE SMOOTH",
"238 -334 OFFCURVE",
"181 -387 OFFCURVE",
"104 -387 CURVE SMOOTH",
"32 -387 OFFCURVE",
"-26 -326 OFFCURVE",
"-26 -253 CURVE SMOOTH"
);
},
{
closed = 0;
nodes = (
"319 558 LINE SMOOTH",
"319 804 OFFCURVE",
"124 1042 OFFCURVE",
"-5 1072 CURVE",
"-121 1072 LINE",
"-119 1071 OFFCURVE",
"-118 1070 OFFCURVE",
"-117 1069 CURVE SMOOTH",
"2 950 OFFCURVE",
"119 748 OFFCURVE",
"119 558 CURVE SMOOTH"
);
}
);
};
components = (
{
name = _part.ee1;
transform = "{1, 0, 0, 1, -325, -773}";
}
);
layerId = "6CB67BB4-1561-4377-8865-B188364DD954";
paths = (
{
closed = 1;
nodes = (
"264 356 OFFCURVE",
"332 488 OFFCURVE",
"332 636 CURVE SMOOTH",
"332 840 OFFCURVE",
"230 955 OFFCURVE",
"58 1072 CURVE",
"-72 1072 LINE",
"124 937 OFFCURVE",
"162 764 OFFCURVE",
"162 636 CURVE SMOOTH",
"162 524 OFFCURVE",
"115 363 OFFCURVE",
"9 42 CURVE",
"151 6 LINE"
);
}
);
width = 389;
}
);
note = u1;
unicode = 0D41;
},
{
color = 5;
glyphname = u2;
lastChange = "2020-07-17 11:23:51 +0000";
layers = (
{
background = {
paths = (
{
closed = 1;
nodes = (
"604 -636 OFFCURVE",
"762 -491 OFFCURVE",
"762 -297 CURVE SMOOTH",
"762 -281 OFFCURVE",
"761 -267 OFFCURVE",
"759 -251 CURVE",
"788 -296 OFFCURVE",
"809 -355 OFFCURVE",
"809 -420 CURVE SMOOTH",
"809 -613 OFFCURVE",
"665 -756 OFFCURVE",
"474 -756 CURVE SMOOTH",
"401 -756 OFFCURVE",
"323 -733 OFFCURVE",
"290 -710 CURVE SMOOTH",
"262 -691 OFFCURVE",
"235 -679 OFFCURVE",
"210 -679 CURVE SMOOTH",
"154 -679 OFFCURVE",
"120 -728 OFFCURVE",
"120 -774 CURVE SMOOTH",
"120 -802 OFFCURVE",
"132 -830 OFFCURVE",
"159 -849 CURVE SMOOTH",
"250 -914 OFFCURVE",
"352 -947 OFFCURVE",
"464 -947 CURVE SMOOTH",
"771 -947 OFFCURVE",
"999 -711 OFFCURVE",
"999 -423 CURVE SMOOTH",
"999 -152 OFFCURVE",
"784 79 OFFCURVE",
"512 79 CURVE SMOOTH",
"504 79 OFFCURVE",
"496 79 OFFCURVE",
"487 78 CURVE",
"554 223 OFFCURVE",
"629 474 OFFCURVE",
"629 604 CURVE SMOOTH",
"629 842 OFFCURVE",
"498 1095 OFFCURVE",
"253 1095 CURVE SMOOTH",
"205 1095 OFFCURVE",
"168 1045 OFFCURVE",
"168 1000 CURVE SMOOTH",
"168 947 OFFCURVE",
"207 915 OFFCURVE",
"262 903 CURVE SMOOTH",
"376 882 OFFCURVE",
"439 757 OFFCURVE",
"439 600 CURVE SMOOTH",
"439 458 OFFCURVE",
"307 141 OFFCURVE",
"239 -9 CURVE",
"144 -67 OFFCURVE",
"77 -175 OFFCURVE",
"77 -297 CURVE SMOOTH",
"77 -479 OFFCURVE",
"219 -636 OFFCURVE",
"414 -636 CURVE SMOOTH"
);
},
{
closed = 1;
nodes = (
"572 -382 OFFCURVE",
"500 -447 OFFCURVE",
"419 -447 CURVE SMOOTH",
"342 -447 OFFCURVE",
"264 -383 OFFCURVE",
"264 -306 CURVE SMOOTH",
"264 -228 OFFCURVE",
"339 -149 OFFCURVE",
"418 -149 CURVE SMOOTH",
"500 -149 OFFCURVE",
"572 -214 OFFCURVE",
"572 -301 CURVE SMOOTH"
);
}
);
};
components = (
{
alignment = -1;
name = u1;
},
{
name = _part.oo_neettam;
transform = "{1, 0, 0, 1, -316, -9}";
}
);
layerId = "6CB67BB4-1561-4377-8865-B188364DD954";
width = 649;
}
);
note = u2;
unicode = 0D42;
},
{
color = 6;
glyphname = r1;
lastChange = "2020-06-16 09:50:41 +0000";
layers = (
{
background = {
paths = (
{
closed = 1;
nodes = (
"-93 -117 OFFCURVE",
"-229 -62 OFFCURVE",
"-394 -62 CURVE SMOOTH",
"-549 -62 OFFCURVE",
"-707 -146 OFFCURVE",
"-707 -315 CURVE SMOOTH",
"-707 -495 OFFCURVE",
"-536 -587 OFFCURVE",
"-365 -587 CURVE SMOOTH",
"98 -587 OFFCURVE",
"318 -202 OFFCURVE",
"319 376 CURVE SMOOTH",
"319 605 OFFCURVE",
"263 829 OFFCURVE",
"151 1048 CURVE SMOOTH",
"136 1078 OFFCURVE",
"110 1098 OFFCURVE",
"77 1098 CURVE SMOOTH",
"33 1098 OFFCURVE",
"-21 1069 OFFCURVE",
"-21 1013 CURVE SMOOTH",
"-21 999 OFFCURVE",
"-17 983 OFFCURVE",
"-9 968 CURVE SMOOTH",
"90 773 OFFCURVE",
"139 574 OFFCURVE",
"139 373 CURVE SMOOTH",
"139 178 OFFCURVE",
"102 -66 OFFCURVE",
"19 -187 CURVE"
);
},
{
closed = 1;
nodes = (
"-525 -268 OFFCURVE",
"-467 -242 OFFCURVE",
"-395 -242 CURVE SMOOTH",
"-296 -242 OFFCURVE",
"-205 -266 OFFCURVE",
"-108 -319 CURVE",
"-175 -365 OFFCURVE",
"-276 -408 OFFCURVE",
"-367 -408 CURVE SMOOTH",
"-448 -408 OFFCURVE",
"-525 -375 OFFCURVE",
"-525 -312 CURVE SMOOTH"
);
}
);
};
layerId = "6CB67BB4-1561-4377-8865-B188364DD954";
paths = (
{
closed = 1;
nodes = (
"44 -230 LINE",
"-28 -178 OFFCURVE",
"-136 -96 OFFCURVE",
"-295 -86 CURVE SMOOTH",
"-486 -73 OFFCURVE",
"-693 -137 OFFCURVE",
"-693 -309 CURVE SMOOTH",
"-693 -471 OFFCURVE",
"-567 -562 OFFCURVE",
"-330 -562 CURVE SMOOTH",
"37 -562 OFFCURVE",
"275 -302 OFFCURVE",
"275 273 CURVE SMOOTH",
"275 694 OFFCURVE",
"154 920 OFFCURVE",
"55 1072 CURVE",
"-25 1072 LINE",
"131 734 OFFCURVE",
"197 22 OFFCURVE",
"25 -235 CURVE",
"10 -263 LINE",
"-97 -378 OFFCURVE",
"-215 -442 OFFCURVE",
"-330 -442 CURVE SMOOTH",
"-467 -442 OFFCURVE",
"-553 -402 OFFCURVE",
"-553 -309 CURVE SMOOTH",
"-553 -226 OFFCURVE",
"-443 -169 OFFCURVE",
"-320 -174 CURVE SMOOTH",
"-172 -180 OFFCURVE",
"-82 -230 OFFCURVE",
"6 -288 CURVE"
);
}
);
width = 350;
}
);
note = r1;
unicode = 0D43;
},
{
color = 5;
glyphname = e1;
lastChange = "2020-06-17 08:59:19 +0000";
layers = (
{
background = {
paths = (
{
closed = 1;
nodes = (
"844 585 OFFCURVE",
"667 760 OFFCURVE",
"455 760 CURVE SMOOTH",
"419 760 OFFCURVE",
"378 756 OFFCURVE",
"316 718 CURVE",
"390 848 OFFCURVE",
"531 898 OFFCURVE",
"664 898 CURVE SMOOTH",
"901 898 OFFCURVE",
"1092 699 OFFCURVE",
"1092 461 CURVE SMOOTH",
"1092 341 OFFCURVE",
"1041 231 OFFCURVE",
"966 156 CURVE SMOOTH",
"949 140 OFFCURVE",
"936 107 OFFCURVE",
"936 84 CURVE SMOOTH",
"936 29 OFFCURVE",
"981 -16 OFFCURVE",
"1036 -16 CURVE SMOOTH",
"1059 -16 OFFCURVE",
"1092 -3 OFFCURVE",
"1108 14 CURVE SMOOTH",
"1221 127 OFFCURVE",
"1293 268 OFFCURVE",
"1293 462 CURVE SMOOTH",
"1293 809 OFFCURVE",
"1007 1096 OFFCURVE",
"667 1096 CURVE SMOOTH",
"327 1096 OFFCURVE",
"35 815 OFFCURVE",
"35 465 CURVE SMOOTH",
"35 217 OFFCURVE",
"203 -12 OFFCURVE",
"461 -12 CURVE SMOOTH",
"669 -12 OFFCURVE",
"844 158 OFFCURVE",
"844 370 CURVE SMOOTH"
);
},
{
closed = 1;
nodes = (
"644 269 OFFCURVE",
"561 187 OFFCURVE",
"461 187 CURVE SMOOTH",
"368 187 OFFCURVE",
"259 266 OFFCURVE",
"259 362 CURVE SMOOTH",
"259 475 OFFCURVE",
"349 558 OFFCURVE",
"454 558 CURVE SMOOTH",
"556 558 OFFCURVE",
"644 474 OFFCURVE",
"644 370 CURVE SMOOTH"
);
}
);
};
components = (
{
name = _part.e1;
}
);
layerId = "6CB67BB4-1561-4377-8865-B188364DD954";
width = 1286;
}
);
note = e1;
unicode = 0D46;
},
